<svg width="148" height="151" viewBox="0 0 148 151" fill="none" xmlns="http://www.w3.org/2000/svg">
<g id="Group 1077238148">
<path id="Vector" fill-rule="evenodd" clip-rule="evenodd" d="M147.311 3.64136C147.311 5.1243 146.11 6.32594 144.628 6.32594C143.147 6.32594 141.946 5.1243 141.946 3.64136C141.946 2.15842 143.147 0.956787 144.628 0.956787C146.11 0.956787 147.311 2.15843 147.311 3.64136Z" fill="#B5B7BA"/>
<path id="Vector_2" fill-rule="evenodd" clip-rule="evenodd" d="M147.311 21.7119C147.311 23.1949 146.11 24.3965 144.628 24.3965C143.147 24.3965 141.946 23.1949 141.946 21.7119C141.946 20.229 143.147 19.0273 144.628 19.0273C146.11 19.0273 147.311 20.229 147.311 21.7119Z" fill="#B5B7BA"/>
<path id="Vector_3" fill-rule="evenodd" clip-rule="evenodd" d="M147.311 39.7822C147.311 41.2652 146.11 42.4668 144.628 42.4668C143.147 42.4668 141.946 41.2652 141.946 39.7822C141.946 38.2993 143.147 37.0977 144.628 37.0977C146.11 37.0977 147.311 38.2993 147.311 39.7822Z" fill="#B5B7BA"/>
<path id="Vector_4" fill-rule="evenodd" clip-rule="evenodd" d="M147.311 57.8525C147.311 59.3355 146.11 60.5371 144.628 60.5371C143.147 60.5371 141.946 59.3355 141.946 57.8525C141.946 56.3696 143.147 55.168 144.628 55.168C146.11 55.168 147.311 56.3696 147.311 57.8525Z" fill="#B5B7BA"/>
<path id="Vector_5" fill-rule="evenodd" clip-rule="evenodd" d="M147.311 75.9231C147.311 77.406 146.11 78.6077 144.628 78.6077C143.147 78.6077 141.946 77.406 141.946 75.9231C141.946 74.4402 143.147 73.2385 144.628 73.2385C146.11 73.2385 147.311 74.4402 147.311 75.9231Z" fill="#B5B7BA"/>
<path id="Vector_6" fill-rule="evenodd" clip-rule="evenodd" d="M147.311 93.9937C147.311 95.4766 146.11 96.6782 144.628 96.6782C143.147 96.6782 141.946 95.4766 141.946 93.9937C141.946 92.5107 143.147 91.3091 144.628 91.3091C146.11 91.3091 147.311 92.5107 147.311 93.9937Z" fill="#B5B7BA"/>
<path id="Vector_7" fill-rule="evenodd" clip-rule="evenodd" d="M147.311 112.064C147.311 113.547 146.11 114.749 144.628 114.749C143.147 114.749 141.946 113.547 141.946 112.064C141.946 110.581 143.147 109.379 144.628 109.379C146.11 109.379 147.311 110.581 147.311 112.064Z" fill="#B5B7BA"/>
<path id="Vector_8" fill-rule="evenodd" clip-rule="evenodd" d="M147.311 130.131C147.311 131.614 146.11 132.816 144.628 132.816C143.147 132.816 141.946 131.614 141.946 130.131C141.946 128.648 143.147 127.447 144.628 127.447C146.11 127.447 147.311 128.648 147.311 130.131Z" fill="#B5B7BA"/>
<path id="Vector_9" fill-rule="evenodd" clip-rule="evenodd" d="M147.311 148.202C147.311 149.685 146.11 150.886 144.628 150.886C143.147 150.886 141.946 149.685 141.946 148.202C141.946 146.719 143.147 145.517 144.628 145.517C146.11 145.517 147.311 146.719 147.311 148.202Z" fill="#B5B7BA"/>
<path id="Vector_10" fill-rule="evenodd" clip-rule="evenodd" d="M129.566 3.64136C129.566 5.1243 128.366 6.32594 126.884 6.32594C125.402 6.32594 124.202 5.1243 124.202 3.64136C124.202 2.15842 125.402 0.956787 126.884 0.956787C128.366 0.956787 129.566 2.15843 129.566 3.64136Z" fill="#B5B7BA"/>
<path id="Vector_11" fill-rule="evenodd" clip-rule="evenodd" d="M129.566 21.7119C129.566 23.1949 128.366 24.3965 126.884 24.3965C125.402 24.3965 124.202 23.1949 124.202 21.7119C124.202 20.229 125.402 19.0273 126.884 19.0273C128.366 19.0273 129.566 20.229 129.566 21.7119Z" fill="#B5B7BA"/>
<path id="Vector_12" fill-rule="evenodd" clip-rule="evenodd" d="M129.566 39.7822C129.566 41.2652 128.366 42.4668 126.884 42.4668C125.402 42.4668 124.202 41.2652 124.202 39.7822C124.202 38.2993 125.402 37.0977 126.884 37.0977C128.366 37.0977 129.566 38.2993 129.566 39.7822Z" fill="#B5B7BA"/>
<path id="Vector_13" fill-rule="evenodd" clip-rule="evenodd" d="M129.566 57.8525C129.566 59.3355 128.366 60.5371 126.884 60.5371C125.402 60.5371 124.202 59.3355 124.202 57.8525C124.202 56.3696 125.402 55.168 126.884 55.168C128.366 55.168 129.566 56.3696 129.566 57.8525Z" fill="#B5B7BA"/>
<path id="Vector_14" fill-rule="evenodd" clip-rule="evenodd" d="M129.566 75.9231C129.566 77.406 128.366 78.6077 126.884 78.6077C125.402 78.6077 124.202 77.406 124.202 75.9231C124.202 74.4402 125.402 73.2385 126.884 73.2385C128.366 73.2385 129.566 74.4402 129.566 75.9231Z" fill="#B5B7BA"/>
<path id="Vector_15" fill-rule="evenodd" clip-rule="evenodd" d="M129.566 93.9937C129.566 95.4766 128.366 96.6782 126.884 96.6782C125.402 96.6782 124.202 95.4766 124.202 93.9937C124.202 92.5107 125.402 91.3091 126.884 91.3091C128.366 91.3091 129.566 92.5107 129.566 93.9937Z" fill="#B5B7BA"/>
<path id="Vector_16" fill-rule="evenodd" clip-rule="evenodd" d="M129.566 112.064C129.566 113.547 128.366 114.749 126.884 114.749C125.402 114.749 124.202 113.547 124.202 112.064C124.202 110.581 125.402 109.379 126.884 109.379C128.366 109.379 129.566 110.581 129.566 112.064Z" fill="#B5B7BA"/>
<path id="Vector_17" fill-rule="evenodd" clip-rule="evenodd" d="M129.566 130.131C129.566 131.614 128.366 132.816 126.884 132.816C125.402 132.816 124.202 131.614 124.202 130.131C124.202 128.648 125.402 127.447 126.884 127.447C128.366 127.447 129.566 128.648 129.566 130.131Z" fill="#B5B7BA"/>
<path id="Vector_18" fill-rule="evenodd" clip-rule="evenodd" d="M129.566 148.202C129.566 149.685 128.366 150.886 126.884 150.886C125.402 150.886 124.202 149.685 124.202 148.202C124.202 146.719 125.402 145.517 126.884 145.517C128.366 145.517 129.566 146.719 129.566 148.202Z" fill="#B5B7BA"/>
<path id="Vector_19" fill-rule="evenodd" clip-rule="evenodd" d="M111.824 3.64136C111.824 5.1243 110.624 6.32594 109.142 6.32594C107.66 6.32594 106.46 5.1243 106.46 3.64136C106.46 2.15842 107.66 0.956787 109.142 0.956787C110.624 0.956787 111.824 2.15843 111.824 3.64136Z" fill="#B5B7BA"/>
<path id="Vector_20" fill-rule="evenodd" clip-rule="evenodd" d="M111.824 21.7119C111.824 23.1949 110.624 24.3965 109.142 24.3965C107.66 24.3965 106.46 23.1949 106.46 21.7119C106.46 20.229 107.66 19.0273 109.142 19.0273C110.624 19.0273 111.824 20.229 111.824 21.7119Z" fill="#B5B7BA"/>
<path id="Vector_21" fill-rule="evenodd" clip-rule="evenodd" d="M111.824 39.7822C111.824 41.2652 110.624 42.4668 109.142 42.4668C107.66 42.4668 106.46 41.2652 106.46 39.7822C106.46 38.2993 107.66 37.0977 109.142 37.0977C110.624 37.0977 111.824 38.2993 111.824 39.7822Z" fill="#B5B7BA"/>
<path id="Vector_22" fill-rule="evenodd" clip-rule="evenodd" d="M111.824 57.8525C111.824 59.3355 110.624 60.5371 109.142 60.5371C107.66 60.5371 106.46 59.3355 106.46 57.8525C106.46 56.3696 107.66 55.168 109.142 55.168C110.624 55.168 111.824 56.3696 111.824 57.8525Z" fill="#B5B7BA"/>
<path id="Vector_23" fill-rule="evenodd" clip-rule="evenodd" d="M111.824 75.9231C111.824 77.406 110.624 78.6077 109.142 78.6077C107.66 78.6077 106.46 77.406 106.46 75.9231C106.46 74.4402 107.66 73.2385 109.142 73.2385C110.624 73.2385 111.824 74.4402 111.824 75.9231Z" fill="#B5B7BA"/>
<path id="Vector_24" fill-rule="evenodd" clip-rule="evenodd" d="M111.824 93.9937C111.824 95.4766 110.624 96.6782 109.142 96.6782C107.66 96.6782 106.46 95.4766 106.46 93.9937C106.46 92.5107 107.66 91.3091 109.142 91.3091C110.624 91.3091 111.824 92.5107 111.824 93.9937Z" fill="#B5B7BA"/>
<path id="Vector_25" fill-rule="evenodd" clip-rule="evenodd" d="M111.824 112.064C111.824 113.547 110.624 114.749 109.142 114.749C107.66 114.749 106.46 113.547 106.46 112.064C106.46 110.581 107.66 109.379 109.142 109.379C110.624 109.379 111.824 110.581 111.824 112.064Z" fill="#B5B7BA"/>
<path id="Vector_26" fill-rule="evenodd" clip-rule="evenodd" d="M111.824 130.131C111.824 131.614 110.624 132.816 109.142 132.816C107.66 132.816 106.46 131.614 106.46 130.131C106.46 128.648 107.66 127.447 109.142 127.447C110.624 127.447 111.824 128.648 111.824 130.131Z" fill="#B5B7BA"/>
<path id="Vector_27" fill-rule="evenodd" clip-rule="evenodd" d="M111.824 148.202C111.824 149.685 110.624 150.886 109.142 150.886C107.66 150.886 106.46 149.685 106.46 148.202C106.46 146.719 107.66 145.517 109.142 145.517C110.624 145.517 111.824 146.719 111.824 148.202Z" fill="#B5B7BA"/>
<path id="Vector_28" fill-rule="evenodd" clip-rule="evenodd" d="M94.0801 3.64136C94.0801 5.1243 92.8795 6.32594 91.3978 6.32594C89.9161 6.32594 88.7155 5.1243 88.7155 3.64136C88.7155 2.15842 89.9161 0.956787 91.3978 0.956787C92.8795 0.956787 94.0801 2.15843 94.0801 3.64136Z" fill="#B5B7BA"/>
<path id="Vector_29" fill-rule="evenodd" clip-rule="evenodd" d="M94.0801 21.7119C94.0801 23.1949 92.8795 24.3965 91.3978 24.3965C89.9161 24.3965 88.7155 23.1949 88.7155 21.7119C88.7155 20.229 89.9161 19.0273 91.3978 19.0273C92.8795 19.0273 94.0801 20.229 94.0801 21.7119Z" fill="#B5B7BA"/>
<path id="Vector_30" fill-rule="evenodd" clip-rule="evenodd" d="M94.0801 39.7822C94.0801 41.2652 92.8795 42.4668 91.3978 42.4668C89.9161 42.4668 88.7155 41.2652 88.7155 39.7822C88.7155 38.2993 89.9161 37.0977 91.3978 37.0977C92.8795 37.0977 94.0801 38.2993 94.0801 39.7822Z" fill="#B5B7BA"/>
<path id="Vector_31" fill-rule="evenodd" clip-rule="evenodd" d="M94.0801 57.8525C94.0801 59.3355 92.8795 60.5371 91.3978 60.5371C89.9161 60.5371 88.7155 59.3355 88.7155 57.8525C88.7155 56.3696 89.9161 55.168 91.3978 55.168C92.8795 55.168 94.0801 56.3696 94.0801 57.8525Z" fill="#B5B7BA"/>
<path id="Vector_32" fill-rule="evenodd" clip-rule="evenodd" d="M94.0801 75.9231C94.0801 77.406 92.8795 78.6077 91.3978 78.6077C89.9161 78.6077 88.7155 77.406 88.7155 75.9231C88.7155 74.4402 89.9161 73.2385 91.3978 73.2385C92.8795 73.2385 94.0801 74.4402 94.0801 75.9231Z" fill="#B5B7BA"/>
<path id="Vector_33" fill-rule="evenodd" clip-rule="evenodd" d="M94.0801 93.9937C94.0801 95.4766 92.8795 96.6782 91.3978 96.6782C89.9161 96.6782 88.7155 95.4766 88.7155 93.9937C88.7155 92.5107 89.9161 91.3091 91.3978 91.3091C92.8795 91.3091 94.0801 92.5107 94.0801 93.9937Z" fill="#B5B7BA"/>
<path id="Vector_34" fill-rule="evenodd" clip-rule="evenodd" d="M94.0801 112.064C94.0801 113.547 92.8795 114.749 91.3978 114.749C89.9161 114.749 88.7155 113.547 88.7155 112.064C88.7155 110.581 89.9161 109.379 91.3978 109.379C92.8795 109.379 94.0801 110.581 94.0801 112.064Z" fill="#B5B7BA"/>
<path id="Vector_35" fill-rule="evenodd" clip-rule="evenodd" d="M94.0801 130.131C94.0801 131.614 92.8795 132.816 91.3978 132.816C89.9161 132.816 88.7155 131.614 88.7155 130.131C88.7155 128.648 89.9161 127.447 91.3978 127.447C92.8795 127.447 94.0801 128.648 94.0801 130.131Z" fill="#B5B7BA"/>
<path id="Vector_36" fill-rule="evenodd" clip-rule="evenodd" d="M94.0801 148.202C94.0801 149.685 92.8795 150.886 91.3978 150.886C89.9161 150.886 88.7155 149.685 88.7155 148.202C88.7155 146.719 89.9161 145.517 91.3978 145.517C92.8795 145.517 94.0801 146.719 94.0801 148.202Z" fill="#B5B7BA"/>
<path id="Vector_37" fill-rule="evenodd" clip-rule="evenodd" d="M76.3359 3.64136C76.3359 5.1243 75.1353 6.32594 73.6537 6.32594C72.172 6.32594 70.9714 5.1243 70.9714 3.64136C70.9714 2.15842 72.172 0.956787 73.6537 0.956787C75.1353 0.956787 76.3359 2.15843 76.3359 3.64136Z" fill="#B5B7BA"/>
<path id="Vector_38" fill-rule="evenodd" clip-rule="evenodd" d="M76.3359 21.7119C76.3359 23.1949 75.1353 24.3965 73.6537 24.3965C72.172 24.3965 70.9714 23.1949 70.9714 21.7119C70.9714 20.229 72.172 19.0273 73.6537 19.0273C75.1353 19.0273 76.3359 20.229 76.3359 21.7119Z" fill="#B5B7BA"/>
<path id="Vector_39" fill-rule="evenodd" clip-rule="evenodd" d="M76.3359 39.7822C76.3359 41.2652 75.1353 42.4668 73.6537 42.4668C72.172 42.4668 70.9714 41.2652 70.9714 39.7822C70.9714 38.2993 72.172 37.0977 73.6537 37.0977C75.1353 37.0977 76.3359 38.2993 76.3359 39.7822Z" fill="#B5B7BA"/>
<path id="Vector_40" fill-rule="evenodd" clip-rule="evenodd" d="M76.3359 57.8525C76.3359 59.3355 75.1353 60.5371 73.6537 60.5371C72.172 60.5371 70.9714 59.3355 70.9714 57.8525C70.9714 56.3696 72.172 55.168 73.6537 55.168C75.1353 55.168 76.3359 56.3696 76.3359 57.8525Z" fill="#B5B7BA"/>
<path id="Vector_41" fill-rule="evenodd" clip-rule="evenodd" d="M76.3359 75.9231C76.3359 77.406 75.1353 78.6077 73.6537 78.6077C72.172 78.6077 70.9714 77.406 70.9714 75.9231C70.9714 74.4402 72.172 73.2385 73.6537 73.2385C75.1353 73.2385 76.3359 74.4402 76.3359 75.9231Z" fill="#B5B7BA"/>
<path id="Vector_42" fill-rule="evenodd" clip-rule="evenodd" d="M76.3359 93.9937C76.3359 95.4766 75.1353 96.6782 73.6537 96.6782C72.172 96.6782 70.9714 95.4766 70.9714 93.9937C70.9714 92.5107 72.172 91.3091 73.6537 91.3091C75.1353 91.3091 76.3359 92.5107 76.3359 93.9937Z" fill="#B5B7BA"/>
<path id="Vector_43" fill-rule="evenodd" clip-rule="evenodd" d="M76.3359 112.064C76.3359 113.547 75.1353 114.749 73.6537 114.749C72.172 114.749 70.9714 113.547 70.9714 112.064C70.9714 110.581 72.172 109.379 73.6537 109.379C75.1353 109.379 76.3359 110.581 76.3359 112.064Z" fill="#B5B7BA"/>
<path id="Vector_44" fill-rule="evenodd" clip-rule="evenodd" d="M76.3359 130.131C76.3359 131.614 75.1353 132.816 73.6537 132.816C72.172 132.816 70.9714 131.614 70.9714 130.131C70.9714 128.648 72.172 127.447 73.6537 127.447C75.1353 127.447 76.3359 128.648 76.3359 130.131Z" fill="#B5B7BA"/>
<path id="Vector_45" fill-rule="evenodd" clip-rule="evenodd" d="M76.3359 148.202C76.3359 149.685 75.1353 150.886 73.6537 150.886C72.172 150.886 70.9714 149.685 70.9714 148.202C70.9714 146.719 72.172 145.517 73.6537 145.517C75.1353 145.517 76.3359 146.719 76.3359 148.202Z" fill="#B5B7BA"/>
<path id="Vector_46" fill-rule="evenodd" clip-rule="evenodd" d="M58.5937 3.64136C58.5937 5.1243 57.3931 6.32594 55.9115 6.32594C54.4298 6.32594 53.2292 5.1243 53.2292 3.64136C53.2292 2.15842 54.4298 0.956787 55.9115 0.956787C57.3931 0.956787 58.5937 2.15843 58.5937 3.64136Z" fill="#B5B7BA"/>
<path id="Vector_47" fill-rule="evenodd" clip-rule="evenodd" d="M58.5937 21.7119C58.5937 23.1949 57.3931 24.3965 55.9115 24.3965C54.4298 24.3965 53.2292 23.1949 53.2292 21.7119C53.2292 20.229 54.4298 19.0273 55.9115 19.0273C57.3931 19.0273 58.5937 20.229 58.5937 21.7119Z" fill="#B5B7BA"/>
<path id="Vector_48" fill-rule="evenodd" clip-rule="evenodd" d="M58.5937 39.7822C58.5937 41.2652 57.3931 42.4668 55.9115 42.4668C54.4298 42.4668 53.2292 41.2652 53.2292 39.7822C53.2292 38.2993 54.4298 37.0977 55.9115 37.0977C57.3931 37.0977 58.5937 38.2993 58.5937 39.7822Z" fill="#B5B7BA"/>
<path id="Vector_49" fill-rule="evenodd" clip-rule="evenodd" d="M58.5937 57.8525C58.5937 59.3355 57.3931 60.5371 55.9115 60.5371C54.4298 60.5371 53.2292 59.3355 53.2292 57.8525C53.2292 56.3696 54.4298 55.168 55.9115 55.168C57.3931 55.168 58.5937 56.3696 58.5937 57.8525Z" fill="#B5B7BA"/>
<path id="Vector_50" fill-rule="evenodd" clip-rule="evenodd" d="M58.5937 75.9231C58.5937 77.406 57.3931 78.6077 55.9115 78.6077C54.4298 78.6077 53.2292 77.406 53.2292 75.9231C53.2292 74.4402 54.4298 73.2385 55.9115 73.2385C57.3931 73.2385 58.5937 74.4402 58.5937 75.9231Z" fill="#B5B7BA"/>
<path id="Vector_51" fill-rule="evenodd" clip-rule="evenodd" d="M58.5937 93.9937C58.5937 95.4766 57.3931 96.6782 55.9115 96.6782C54.4298 96.6782 53.2292 95.4766 53.2292 93.9937C53.2292 92.5107 54.4298 91.3091 55.9115 91.3091C57.3931 91.3091 58.5937 92.5107 58.5937 93.9937Z" fill="#B5B7BA"/>
<path id="Vector_52" fill-rule="evenodd" clip-rule="evenodd" d="M58.5937 112.064C58.5937 113.547 57.3931 114.749 55.9115 114.749C54.4298 114.749 53.2292 113.547 53.2292 112.064C53.2292 110.581 54.4298 109.379 55.9115 109.379C57.3931 109.379 58.5937 110.581 58.5937 112.064Z" fill="#B5B7BA"/>
<path id="Vector_53" fill-rule="evenodd" clip-rule="evenodd" d="M58.5937 130.131C58.5937 131.614 57.3931 132.816 55.9115 132.816C54.4298 132.816 53.2292 131.614 53.2292 130.131C53.2292 128.648 54.4298 127.447 55.9115 127.447C57.3931 127.447 58.5937 128.648 58.5937 130.131Z" fill="#B5B7BA"/>
<path id="Vector_54" fill-rule="evenodd" clip-rule="evenodd" d="M58.5937 148.202C58.5937 149.685 57.3931 150.886 55.9115 150.886C54.4298 150.886 53.2292 149.685 53.2292 148.202C53.2292 146.719 54.4298 145.517 55.9115 145.517C57.3931 145.517 58.5937 146.719 58.5937 148.202Z" fill="#B5B7BA"/>
<path id="Vector_55" fill-rule="evenodd" clip-rule="evenodd" d="M40.8496 3.64136C40.8496 5.1243 39.649 6.32594 38.1673 6.32594C36.6857 6.32594 35.485 5.1243 35.485 3.64136C35.485 2.15842 36.6857 0.956787 38.1673 0.956787C39.649 0.956787 40.8496 2.15843 40.8496 3.64136Z" fill="#B5B7BA"/>
<path id="Vector_56" fill-rule="evenodd" clip-rule="evenodd" d="M40.8496 21.7119C40.8496 23.1949 39.649 24.3965 38.1673 24.3965C36.6857 24.3965 35.485 23.1949 35.485 21.7119C35.485 20.229 36.6857 19.0273 38.1673 19.0273C39.649 19.0273 40.8496 20.229 40.8496 21.7119Z" fill="#B5B7BA"/>
<path id="Vector_57" fill-rule="evenodd" clip-rule="evenodd" d="M40.8496 39.7822C40.8496 41.2652 39.649 42.4668 38.1673 42.4668C36.6857 42.4668 35.485 41.2652 35.485 39.7822C35.485 38.2993 36.6857 37.0977 38.1673 37.0977C39.649 37.0977 40.8496 38.2993 40.8496 39.7822Z" fill="#B5B7BA"/>
<path id="Vector_58" fill-rule="evenodd" clip-rule="evenodd" d="M40.8496 57.8525C40.8496 59.3355 39.649 60.5371 38.1673 60.5371C36.6857 60.5371 35.485 59.3355 35.485 57.8525C35.485 56.3696 36.6857 55.168 38.1673 55.168C39.649 55.168 40.8496 56.3696 40.8496 57.8525Z" fill="#B5B7BA"/>
<path id="Vector_59" fill-rule="evenodd" clip-rule="evenodd" d="M40.8496 75.9231C40.8496 77.406 39.649 78.6077 38.1673 78.6077C36.6857 78.6077 35.485 77.406 35.485 75.9231C35.485 74.4402 36.6857 73.2385 38.1673 73.2385C39.649 73.2385 40.8496 74.4402 40.8496 75.9231Z" fill="#B5B7BA"/>
<path id="Vector_60" fill-rule="evenodd" clip-rule="evenodd" d="M40.8496 93.9937C40.8496 95.4766 39.649 96.6782 38.1673 96.6782C36.6857 96.6782 35.485 95.4766 35.485 93.9937C35.485 92.5107 36.6857 91.3091 38.1673 91.3091C39.649 91.3091 40.8496 92.5107 40.8496 93.9937Z" fill="#B5B7BA"/>
<path id="Vector_61" fill-rule="evenodd" clip-rule="evenodd" d="M40.8496 112.064C40.8496 113.547 39.649 114.749 38.1673 114.749C36.6857 114.749 35.485 113.547 35.485 112.064C35.485 110.581 36.6857 109.379 38.1673 109.379C39.649 109.379 40.8496 110.581 40.8496 112.064Z" fill="#B5B7BA"/>
<path id="Vector_62" fill-rule="evenodd" clip-rule="evenodd" d="M40.8496 130.131C40.8496 131.614 39.649 132.816 38.1673 132.816C36.6857 132.816 35.485 131.614 35.485 130.131C35.485 128.648 36.6857 127.447 38.1673 127.447C39.649 127.447 40.8496 128.648 40.8496 130.131Z" fill="#B5B7BA"/>
<path id="Vector_63" fill-rule="evenodd" clip-rule="evenodd" d="M40.8496 148.202C40.8496 149.685 39.649 150.886 38.1673 150.886C36.6857 150.886 35.485 149.685 35.485 148.202C35.485 146.719 36.6857 145.517 38.1673 145.517C39.649 145.517 40.8496 146.719 40.8496 148.202Z" fill="#B5B7BA"/>
<path id="Vector_64" fill-rule="evenodd" clip-rule="evenodd" d="M23.1055 3.64136C23.1055 5.1243 21.9049 6.32594 20.4232 6.32594C18.9415 6.32594 17.7409 5.1243 17.7409 3.64136C17.7409 2.15842 18.9415 0.956787 20.4232 0.956787C21.9049 0.956787 23.1055 2.15843 23.1055 3.64136Z" fill="#B5B7BA"/>
<path id="Vector_65" fill-rule="evenodd" clip-rule="evenodd" d="M23.1055 21.7119C23.1055 23.1949 21.9049 24.3965 20.4232 24.3965C18.9415 24.3965 17.7409 23.1949 17.7409 21.7119C17.7409 20.229 18.9415 19.0273 20.4232 19.0273C21.9049 19.0273 23.1055 20.229 23.1055 21.7119Z" fill="#B5B7BA"/>
<path id="Vector_66" fill-rule="evenodd" clip-rule="evenodd" d="M23.1055 39.7822C23.1055 41.2652 21.9049 42.4668 20.4232 42.4668C18.9415 42.4668 17.7409 41.2652 17.7409 39.7822C17.7409 38.2993 18.9415 37.0977 20.4232 37.0977C21.9049 37.0977 23.1055 38.2993 23.1055 39.7822Z" fill="#B5B7BA"/>
<path id="Vector_67" fill-rule="evenodd" clip-rule="evenodd" d="M23.1055 57.8525C23.1055 59.3355 21.9049 60.5371 20.4232 60.5371C18.9415 60.5371 17.7409 59.3355 17.7409 57.8525C17.7409 56.3696 18.9415 55.168 20.4232 55.168C21.9049 55.168 23.1055 56.3696 23.1055 57.8525Z" fill="#B5B7BA"/>
<path id="Vector_68" fill-rule="evenodd" clip-rule="evenodd" d="M23.1055 75.9231C23.1055 77.406 21.9049 78.6077 20.4232 78.6077C18.9415 78.6077 17.7409 77.406 17.7409 75.9231C17.7409 74.4402 18.9415 73.2385 20.4232 73.2385C21.9049 73.2385 23.1055 74.4402 23.1055 75.9231Z" fill="#B5B7BA"/>
<path id="Vector_69" fill-rule="evenodd" clip-rule="evenodd" d="M23.1055 93.9937C23.1055 95.4766 21.9049 96.6782 20.4232 96.6782C18.9415 96.6782 17.7409 95.4766 17.7409 93.9937C17.7409 92.5107 18.9415 91.3091 20.4232 91.3091C21.9049 91.3091 23.1055 92.5107 23.1055 93.9937Z" fill="#B5B7BA"/>
<path id="Vector_70" fill-rule="evenodd" clip-rule="evenodd" d="M23.1055 112.064C23.1055 113.547 21.9049 114.749 20.4232 114.749C18.9415 114.749 17.7409 113.547 17.7409 112.064C17.7409 110.581 18.9415 109.379 20.4232 109.379C21.9049 109.379 23.1055 110.581 23.1055 112.064Z" fill="#B5B7BA"/>
<path id="Vector_71" fill-rule="evenodd" clip-rule="evenodd" d="M23.1055 130.131C23.1055 131.614 21.9049 132.816 20.4232 132.816C18.9415 132.816 17.7409 131.614 17.7409 130.131C17.7409 128.648 18.9415 127.447 20.4232 127.447C21.9049 127.447 23.1055 128.648 23.1055 130.131Z" fill="#B5B7BA"/>
<path id="Vector_72" fill-rule="evenodd" clip-rule="evenodd" d="M23.1055 148.202C23.1055 149.685 21.9049 150.886 20.4232 150.886C18.9415 150.886 17.7409 149.685 17.7409 148.202C17.7409 146.719 18.9415 145.517 20.4232 145.517C21.9049 145.517 23.1055 146.719 23.1055 148.202Z" fill="#B5B7BA"/>
<path id="Vector_73" fill-rule="evenodd" clip-rule="evenodd" d="M5.36523 3.64136C5.36523 5.1243 4.16463 6.32594 2.68295 6.32594C1.20128 6.32594 0.000654992 5.1243 0.000655057 3.64136C0.000655122 2.15842 1.20128 0.956787 2.68295 0.956787C4.16463 0.956787 5.36523 2.15843 5.36523 3.64136Z" fill="#B5B7BA"/>
<path id="Vector_74" fill-rule="evenodd" clip-rule="evenodd" d="M5.36523 21.7119C5.36523 23.1949 4.16463 24.3965 2.68295 24.3965C1.20128 24.3965 0.000654992 23.1949 0.000655057 21.7119C0.000655122 20.229 1.20128 19.0273 2.68295 19.0273C4.16463 19.0273 5.36523 20.229 5.36523 21.7119Z" fill="#B5B7BA"/>
<path id="Vector_75" fill-rule="evenodd" clip-rule="evenodd" d="M5.36523 39.7822C5.36523 41.2652 4.16463 42.4668 2.68295 42.4668C1.20128 42.4668 0.000654992 41.2652 0.000655057 39.7822C0.000655122 38.2993 1.20128 37.0977 2.68295 37.0977C4.16463 37.0977 5.36523 38.2993 5.36523 39.7822Z" fill="#B5B7BA"/>
<path id="Vector_76" fill-rule="evenodd" clip-rule="evenodd" d="M5.36523 57.8525C5.36523 59.3355 4.16463 60.5371 2.68295 60.5371C1.20128 60.5371 0.000654992 59.3355 0.000655057 57.8525C0.000655122 56.3696 1.20128 55.168 2.68295 55.168C4.16463 55.168 5.36523 56.3696 5.36523 57.8525Z" fill="#B5B7BA"/>
<path id="Vector_77" fill-rule="evenodd" clip-rule="evenodd" d="M5.36523 75.9231C5.36523 77.406 4.16463 78.6077 2.68295 78.6077C1.20128 78.6077 0.000654992 77.406 0.000655057 75.9231C0.000655122 74.4402 1.20128 73.2385 2.68295 73.2385C4.16463 73.2385 5.36523 74.4402 5.36523 75.9231Z" fill="#B5B7BA"/>
<path id="Vector_78" fill-rule="evenodd" clip-rule="evenodd" d="M5.36523 93.9937C5.36523 95.4766 4.16463 96.6782 2.68295 96.6782C1.20128 96.6782 0.000654992 95.4766 0.000655057 93.9937C0.000655122 92.5107 1.20128 91.3091 2.68295 91.3091C4.16463 91.3091 5.36523 92.5107 5.36523 93.9937Z" fill="#B5B7BA"/>
<path id="Vector_79" fill-rule="evenodd" clip-rule="evenodd" d="M5.36523 112.064C5.36523 113.547 4.16463 114.749 2.68295 114.749C1.20128 114.749 0.000654992 113.547 0.000655057 112.064C0.000655122 110.581 1.20128 109.379 2.68295 109.379C4.16463 109.379 5.36523 110.581 5.36523 112.064Z" fill="#B5B7BA"/>
<path id="Vector_80" fill-rule="evenodd" clip-rule="evenodd" d="M5.36523 130.131C5.36523 131.614 4.16463 132.816 2.68295 132.816C1.20128 132.816 0.000654992 131.614 0.000655057 130.131C0.000655122 128.648 1.20128 127.447 2.68295 127.447C4.16463 127.447 5.36523 128.648 5.36523 130.131Z" fill="#B5B7BA"/>
<path id="Vector_81" fill-rule="evenodd" clip-rule="evenodd" d="M5.36523 148.202C5.36523 149.685 4.16463 150.886 2.68295 150.886C1.20128 150.886 0.000654992 149.685 0.000655057 148.202C0.000655122 146.719 1.20128 145.517 2.68295 145.517C4.16463 145.517 5.36523 146.719 5.36523 148.202Z" fill="#B5B7BA"/>
</g>
</svg>
