<svg width="148" height="150" viewBox="0 0 148 150" fill="none" xmlns="http://www.w3.org/2000/svg">
<g id="Group 1077238148">
<path id="Vector" fill-rule="evenodd" clip-rule="evenodd" d="M147.311 2.68458C147.311 4.16751 146.11 5.36915 144.628 5.36915C143.147 5.36915 141.946 4.16751 141.946 2.68458C141.946 1.20164 143.147 -1.82012e-07 144.628 -1.17246e-07C146.11 -5.24801e-08 147.311 1.20164 147.311 2.68458Z" fill="#B5B7BA"/>
<path id="Vector_2" fill-rule="evenodd" clip-rule="evenodd" d="M147.311 20.7549C147.311 22.2378 146.11 23.4395 144.628 23.4395C143.147 23.4395 141.946 22.2378 141.946 20.7549C141.946 19.272 143.147 18.0703 144.628 18.0703C146.11 18.0703 147.311 19.272 147.311 20.7549Z" fill="#B5B7BA"/>
<path id="Vector_3" fill-rule="evenodd" clip-rule="evenodd" d="M147.311 38.8252C147.311 40.3081 146.11 41.5098 144.628 41.5098C143.147 41.5098 141.946 40.3081 141.946 38.8252C141.946 37.3423 143.147 36.1406 144.628 36.1406C146.11 36.1406 147.311 37.3423 147.311 38.8252Z" fill="#B5B7BA"/>
<path id="Vector_4" fill-rule="evenodd" clip-rule="evenodd" d="M147.311 56.896C147.311 58.3789 146.11 59.5806 144.628 59.5806C143.147 59.5806 141.946 58.3789 141.946 56.896C141.946 55.4131 143.147 54.2114 144.628 54.2114C146.11 54.2114 147.311 55.4131 147.311 56.896Z" fill="#B5B7BA"/>
<path id="Vector_5" fill-rule="evenodd" clip-rule="evenodd" d="M147.311 74.9663C147.311 76.4493 146.11 77.6509 144.628 77.6509C143.147 77.6509 141.946 76.4493 141.946 74.9663C141.946 73.4834 143.147 72.2817 144.628 72.2817C146.11 72.2817 147.311 73.4834 147.311 74.9663Z" fill="#B5B7BA"/>
<path id="Vector_6" fill-rule="evenodd" clip-rule="evenodd" d="M147.311 93.0366C147.311 94.5196 146.11 95.7212 144.628 95.7212C143.147 95.7212 141.946 94.5196 141.946 93.0366C141.946 91.5537 143.147 90.3521 144.628 90.3521C146.11 90.3521 147.311 91.5537 147.311 93.0366Z" fill="#B5B7BA"/>
<path id="Vector_7" fill-rule="evenodd" clip-rule="evenodd" d="M147.311 111.107C147.311 112.59 146.11 113.792 144.628 113.792C143.147 113.792 141.946 112.59 141.946 111.107C141.946 109.624 143.147 108.423 144.628 108.423C146.11 108.423 147.311 109.624 147.311 111.107Z" fill="#B5B7BA"/>
<path id="Vector_8" fill-rule="evenodd" clip-rule="evenodd" d="M147.311 129.175C147.311 130.658 146.11 131.859 144.628 131.859C143.147 131.859 141.946 130.658 141.946 129.175C141.946 127.692 143.147 126.49 144.628 126.49C146.11 126.49 147.311 127.692 147.311 129.175Z" fill="#B5B7BA"/>
<path id="Vector_9" fill-rule="evenodd" clip-rule="evenodd" d="M147.311 147.245C147.311 148.728 146.11 149.93 144.628 149.93C143.147 149.93 141.946 148.728 141.946 147.245C141.946 145.762 143.147 144.561 144.628 144.561C146.11 144.561 147.311 145.762 147.311 147.245Z" fill="#B5B7BA"/>
<path id="Vector_10" fill-rule="evenodd" clip-rule="evenodd" d="M129.566 2.68458C129.566 4.16751 128.366 5.36915 126.884 5.36915C125.402 5.36915 124.202 4.16751 124.202 2.68458C124.202 1.20164 125.402 -1.82013e-07 126.884 -1.17247e-07C128.366 -5.24809e-08 129.566 1.20164 129.566 2.68458Z" fill="#B5B7BA"/>
<path id="Vector_11" fill-rule="evenodd" clip-rule="evenodd" d="M129.566 20.7549C129.566 22.2378 128.366 23.4395 126.884 23.4395C125.402 23.4395 124.202 22.2378 124.202 20.7549C124.202 19.272 125.402 18.0703 126.884 18.0703C128.366 18.0703 129.566 19.272 129.566 20.7549Z" fill="#B5B7BA"/>
<path id="Vector_12" fill-rule="evenodd" clip-rule="evenodd" d="M129.566 38.8252C129.566 40.3081 128.366 41.5098 126.884 41.5098C125.402 41.5098 124.202 40.3081 124.202 38.8252C124.202 37.3423 125.402 36.1406 126.884 36.1406C128.366 36.1406 129.566 37.3423 129.566 38.8252Z" fill="#B5B7BA"/>
<path id="Vector_13" fill-rule="evenodd" clip-rule="evenodd" d="M129.566 56.896C129.566 58.3789 128.366 59.5806 126.884 59.5806C125.402 59.5806 124.202 58.3789 124.202 56.896C124.202 55.4131 125.402 54.2114 126.884 54.2114C128.366 54.2114 129.566 55.4131 129.566 56.896Z" fill="#B5B7BA"/>
<path id="Vector_14" fill-rule="evenodd" clip-rule="evenodd" d="M129.566 74.9663C129.566 76.4493 128.366 77.6509 126.884 77.6509C125.402 77.6509 124.202 76.4493 124.202 74.9663C124.202 73.4834 125.402 72.2817 126.884 72.2817C128.366 72.2817 129.566 73.4834 129.566 74.9663Z" fill="#B5B7BA"/>
<path id="Vector_15" fill-rule="evenodd" clip-rule="evenodd" d="M129.566 93.0366C129.566 94.5196 128.366 95.7212 126.884 95.7212C125.402 95.7212 124.202 94.5196 124.202 93.0366C124.202 91.5537 125.402 90.3521 126.884 90.3521C128.366 90.3521 129.566 91.5537 129.566 93.0366Z" fill="#B5B7BA"/>
<path id="Vector_16" fill-rule="evenodd" clip-rule="evenodd" d="M129.566 111.107C129.566 112.59 128.366 113.792 126.884 113.792C125.402 113.792 124.202 112.59 124.202 111.107C124.202 109.624 125.402 108.423 126.884 108.423C128.366 108.423 129.566 109.624 129.566 111.107Z" fill="#B5B7BA"/>
<path id="Vector_17" fill-rule="evenodd" clip-rule="evenodd" d="M129.566 129.175C129.566 130.658 128.366 131.859 126.884 131.859C125.402 131.859 124.202 130.658 124.202 129.175C124.202 127.692 125.402 126.49 126.884 126.49C128.366 126.49 129.566 127.692 129.566 129.175Z" fill="#B5B7BA"/>
<path id="Vector_18" fill-rule="evenodd" clip-rule="evenodd" d="M129.566 147.245C129.566 148.728 128.366 149.93 126.884 149.93C125.402 149.93 124.202 148.728 124.202 147.245C124.202 145.762 125.402 144.561 126.884 144.561C128.366 144.561 129.566 145.762 129.566 147.245Z" fill="#B5B7BA"/>
<path id="Vector_19" fill-rule="evenodd" clip-rule="evenodd" d="M111.824 2.68458C111.824 4.16751 110.624 5.36915 109.142 5.36915C107.66 5.36915 106.46 4.16751 106.46 2.68458C106.46 1.20164 107.66 -1.82013e-07 109.142 -1.17247e-07C110.624 -5.24809e-08 111.824 1.20164 111.824 2.68458Z" fill="#B5B7BA"/>
<path id="Vector_20" fill-rule="evenodd" clip-rule="evenodd" d="M111.824 20.7549C111.824 22.2378 110.624 23.4395 109.142 23.4395C107.66 23.4395 106.46 22.2378 106.46 20.7549C106.46 19.272 107.66 18.0703 109.142 18.0703C110.624 18.0703 111.824 19.272 111.824 20.7549Z" fill="#B5B7BA"/>
<path id="Vector_21" fill-rule="evenodd" clip-rule="evenodd" d="M111.824 38.8252C111.824 40.3081 110.624 41.5098 109.142 41.5098C107.66 41.5098 106.46 40.3081 106.46 38.8252C106.46 37.3423 107.66 36.1406 109.142 36.1406C110.624 36.1406 111.824 37.3423 111.824 38.8252Z" fill="#B5B7BA"/>
<path id="Vector_22" fill-rule="evenodd" clip-rule="evenodd" d="M111.824 56.896C111.824 58.3789 110.624 59.5806 109.142 59.5806C107.66 59.5806 106.46 58.3789 106.46 56.896C106.46 55.4131 107.66 54.2114 109.142 54.2114C110.624 54.2114 111.824 55.4131 111.824 56.896Z" fill="#B5B7BA"/>
<path id="Vector_23" fill-rule="evenodd" clip-rule="evenodd" d="M111.824 74.9663C111.824 76.4493 110.624 77.6509 109.142 77.6509C107.66 77.6509 106.46 76.4493 106.46 74.9663C106.46 73.4834 107.66 72.2817 109.142 72.2817C110.624 72.2817 111.824 73.4834 111.824 74.9663Z" fill="#B5B7BA"/>
<path id="Vector_24" fill-rule="evenodd" clip-rule="evenodd" d="M111.824 93.0366C111.824 94.5196 110.624 95.7212 109.142 95.7212C107.66 95.7212 106.46 94.5196 106.46 93.0366C106.46 91.5537 107.66 90.3521 109.142 90.3521C110.624 90.3521 111.824 91.5537 111.824 93.0366Z" fill="#B5B7BA"/>
<path id="Vector_25" fill-rule="evenodd" clip-rule="evenodd" d="M111.824 111.107C111.824 112.59 110.624 113.792 109.142 113.792C107.66 113.792 106.46 112.59 106.46 111.107C106.46 109.624 107.66 108.423 109.142 108.423C110.624 108.423 111.824 109.624 111.824 111.107Z" fill="#B5B7BA"/>
<path id="Vector_26" fill-rule="evenodd" clip-rule="evenodd" d="M111.824 129.175C111.824 130.658 110.624 131.859 109.142 131.859C107.66 131.859 106.46 130.658 106.46 129.175C106.46 127.692 107.66 126.49 109.142 126.49C110.624 126.49 111.824 127.692 111.824 129.175Z" fill="#B5B7BA"/>
<path id="Vector_27" fill-rule="evenodd" clip-rule="evenodd" d="M111.824 147.245C111.824 148.728 110.624 149.93 109.142 149.93C107.66 149.93 106.46 148.728 106.46 147.245C106.46 145.762 107.66 144.561 109.142 144.561C110.624 144.561 111.824 145.762 111.824 147.245Z" fill="#B5B7BA"/>
<path id="Vector_28" fill-rule="evenodd" clip-rule="evenodd" d="M94.0801 2.68458C94.0801 4.16751 92.8795 5.36915 91.3978 5.36915C89.9161 5.36915 88.7155 4.16751 88.7155 2.68458C88.7155 1.20164 89.9161 -1.82012e-07 91.3978 -1.17246e-07C92.8795 -5.24801e-08 94.0801 1.20164 94.0801 2.68458Z" fill="#B5B7BA"/>
<path id="Vector_29" fill-rule="evenodd" clip-rule="evenodd" d="M94.0801 20.7549C94.0801 22.2378 92.8795 23.4395 91.3978 23.4395C89.9161 23.4395 88.7155 22.2378 88.7155 20.7549C88.7155 19.272 89.9161 18.0703 91.3978 18.0703C92.8795 18.0703 94.0801 19.272 94.0801 20.7549Z" fill="#B5B7BA"/>
<path id="Vector_30" fill-rule="evenodd" clip-rule="evenodd" d="M94.0801 38.8252C94.0801 40.3081 92.8795 41.5098 91.3978 41.5098C89.9161 41.5098 88.7155 40.3081 88.7155 38.8252C88.7155 37.3423 89.9161 36.1406 91.3978 36.1406C92.8795 36.1406 94.0801 37.3423 94.0801 38.8252Z" fill="#B5B7BA"/>
<path id="Vector_31" fill-rule="evenodd" clip-rule="evenodd" d="M94.0801 56.896C94.0801 58.3789 92.8795 59.5806 91.3978 59.5806C89.9161 59.5806 88.7155 58.3789 88.7155 56.896C88.7155 55.4131 89.9161 54.2114 91.3978 54.2114C92.8795 54.2114 94.0801 55.4131 94.0801 56.896Z" fill="#B5B7BA"/>
<path id="Vector_32" fill-rule="evenodd" clip-rule="evenodd" d="M94.0801 74.9663C94.0801 76.4493 92.8795 77.6509 91.3978 77.6509C89.9161 77.6509 88.7155 76.4493 88.7155 74.9663C88.7155 73.4834 89.9161 72.2817 91.3978 72.2817C92.8795 72.2817 94.0801 73.4834 94.0801 74.9663Z" fill="#B5B7BA"/>
<path id="Vector_33" fill-rule="evenodd" clip-rule="evenodd" d="M94.0801 93.0366C94.0801 94.5196 92.8795 95.7212 91.3978 95.7212C89.9161 95.7212 88.7155 94.5196 88.7155 93.0366C88.7155 91.5537 89.9161 90.3521 91.3978 90.3521C92.8795 90.3521 94.0801 91.5537 94.0801 93.0366Z" fill="#B5B7BA"/>
<path id="Vector_34" fill-rule="evenodd" clip-rule="evenodd" d="M94.0801 111.107C94.0801 112.59 92.8795 113.792 91.3978 113.792C89.9161 113.792 88.7155 112.59 88.7155 111.107C88.7155 109.624 89.9161 108.423 91.3978 108.423C92.8795 108.423 94.0801 109.624 94.0801 111.107Z" fill="#B5B7BA"/>
<path id="Vector_35" fill-rule="evenodd" clip-rule="evenodd" d="M94.0801 129.175C94.0801 130.658 92.8795 131.859 91.3978 131.859C89.9161 131.859 88.7155 130.658 88.7155 129.175C88.7155 127.692 89.9161 126.49 91.3978 126.49C92.8795 126.49 94.0801 127.692 94.0801 129.175Z" fill="#B5B7BA"/>
<path id="Vector_36" fill-rule="evenodd" clip-rule="evenodd" d="M94.0801 147.245C94.0801 148.728 92.8795 149.93 91.3978 149.93C89.9161 149.93 88.7155 148.728 88.7155 147.245C88.7155 145.762 89.9161 144.561 91.3978 144.561C92.8795 144.561 94.0801 145.762 94.0801 147.245Z" fill="#B5B7BA"/>
<path id="Vector_37" fill-rule="evenodd" clip-rule="evenodd" d="M76.3359 2.68458C76.3359 4.16751 75.1353 5.36915 73.6537 5.36915C72.172 5.36915 70.9714 4.16751 70.9714 2.68458C70.9714 1.20164 72.172 -1.82012e-07 73.6537 -1.17246e-07C75.1353 -5.24801e-08 76.3359 1.20164 76.3359 2.68458Z" fill="#B5B7BA"/>
<path id="Vector_38" fill-rule="evenodd" clip-rule="evenodd" d="M76.3359 20.7549C76.3359 22.2378 75.1353 23.4395 73.6537 23.4395C72.172 23.4395 70.9714 22.2378 70.9714 20.7549C70.9714 19.272 72.172 18.0703 73.6537 18.0703C75.1353 18.0703 76.3359 19.272 76.3359 20.7549Z" fill="#B5B7BA"/>
<path id="Vector_39" fill-rule="evenodd" clip-rule="evenodd" d="M76.3359 38.8252C76.3359 40.3081 75.1353 41.5098 73.6537 41.5098C72.172 41.5098 70.9714 40.3081 70.9714 38.8252C70.9714 37.3423 72.172 36.1406 73.6537 36.1406C75.1353 36.1406 76.3359 37.3423 76.3359 38.8252Z" fill="#B5B7BA"/>
<path id="Vector_40" fill-rule="evenodd" clip-rule="evenodd" d="M76.3359 56.896C76.3359 58.3789 75.1353 59.5806 73.6537 59.5806C72.172 59.5806 70.9714 58.3789 70.9714 56.896C70.9714 55.4131 72.172 54.2114 73.6537 54.2114C75.1353 54.2114 76.3359 55.4131 76.3359 56.896Z" fill="#B5B7BA"/>
<path id="Vector_41" fill-rule="evenodd" clip-rule="evenodd" d="M76.3359 74.9663C76.3359 76.4493 75.1353 77.6509 73.6537 77.6509C72.172 77.6509 70.9714 76.4493 70.9714 74.9663C70.9714 73.4834 72.172 72.2817 73.6537 72.2817C75.1353 72.2817 76.3359 73.4834 76.3359 74.9663Z" fill="#B5B7BA"/>
<path id="Vector_42" fill-rule="evenodd" clip-rule="evenodd" d="M76.3359 93.0366C76.3359 94.5196 75.1353 95.7212 73.6537 95.7212C72.172 95.7212 70.9714 94.5196 70.9714 93.0366C70.9714 91.5537 72.172 90.3521 73.6537 90.3521C75.1353 90.3521 76.3359 91.5537 76.3359 93.0366Z" fill="#B5B7BA"/>
<path id="Vector_43" fill-rule="evenodd" clip-rule="evenodd" d="M76.3359 111.107C76.3359 112.59 75.1353 113.792 73.6537 113.792C72.172 113.792 70.9714 112.59 70.9714 111.107C70.9714 109.624 72.172 108.423 73.6537 108.423C75.1353 108.423 76.3359 109.624 76.3359 111.107Z" fill="#B5B7BA"/>
<path id="Vector_44" fill-rule="evenodd" clip-rule="evenodd" d="M76.3359 129.175C76.3359 130.658 75.1353 131.859 73.6537 131.859C72.172 131.859 70.9714 130.658 70.9714 129.175C70.9714 127.692 72.172 126.49 73.6537 126.49C75.1353 126.49 76.3359 127.692 76.3359 129.175Z" fill="#B5B7BA"/>
<path id="Vector_45" fill-rule="evenodd" clip-rule="evenodd" d="M76.3359 147.245C76.3359 148.728 75.1353 149.93 73.6537 149.93C72.172 149.93 70.9714 148.728 70.9714 147.245C70.9714 145.762 72.172 144.561 73.6537 144.561C75.1353 144.561 76.3359 145.762 76.3359 147.245Z" fill="#B5B7BA"/>
<path id="Vector_46" fill-rule="evenodd" clip-rule="evenodd" d="M58.5937 2.68458C58.5937 4.16751 57.3931 5.36915 55.9115 5.36915C54.4298 5.36915 53.2292 4.16751 53.2292 2.68458C53.2292 1.20164 54.4298 -1.82013e-07 55.9115 -1.17247e-07C57.3931 -5.24809e-08 58.5937 1.20164 58.5937 2.68458Z" fill="#B5B7BA"/>
<path id="Vector_47" fill-rule="evenodd" clip-rule="evenodd" d="M58.5937 20.7549C58.5937 22.2378 57.3931 23.4395 55.9115 23.4395C54.4298 23.4395 53.2292 22.2378 53.2292 20.7549C53.2292 19.272 54.4298 18.0703 55.9115 18.0703C57.3931 18.0703 58.5937 19.272 58.5937 20.7549Z" fill="#B5B7BA"/>
<path id="Vector_48" fill-rule="evenodd" clip-rule="evenodd" d="M58.5937 38.8252C58.5937 40.3081 57.3931 41.5098 55.9115 41.5098C54.4298 41.5098 53.2292 40.3081 53.2292 38.8252C53.2292 37.3423 54.4298 36.1406 55.9115 36.1406C57.3931 36.1406 58.5937 37.3423 58.5937 38.8252Z" fill="#B5B7BA"/>
<path id="Vector_49" fill-rule="evenodd" clip-rule="evenodd" d="M58.5937 56.896C58.5937 58.3789 57.3931 59.5806 55.9115 59.5806C54.4298 59.5806 53.2292 58.3789 53.2292 56.896C53.2292 55.4131 54.4298 54.2114 55.9115 54.2114C57.3931 54.2114 58.5937 55.4131 58.5937 56.896Z" fill="#B5B7BA"/>
<path id="Vector_50" fill-rule="evenodd" clip-rule="evenodd" d="M58.5937 74.9663C58.5937 76.4493 57.3931 77.6509 55.9115 77.6509C54.4298 77.6509 53.2292 76.4493 53.2292 74.9663C53.2292 73.4834 54.4298 72.2817 55.9115 72.2817C57.3931 72.2817 58.5937 73.4834 58.5937 74.9663Z" fill="#B5B7BA"/>
<path id="Vector_51" fill-rule="evenodd" clip-rule="evenodd" d="M58.5937 93.0366C58.5937 94.5196 57.3931 95.7212 55.9115 95.7212C54.4298 95.7212 53.2292 94.5196 53.2292 93.0366C53.2292 91.5537 54.4298 90.3521 55.9115 90.3521C57.3931 90.3521 58.5937 91.5537 58.5937 93.0366Z" fill="#B5B7BA"/>
<path id="Vector_52" fill-rule="evenodd" clip-rule="evenodd" d="M58.5937 111.107C58.5937 112.59 57.3931 113.792 55.9115 113.792C54.4298 113.792 53.2292 112.59 53.2292 111.107C53.2292 109.624 54.4298 108.423 55.9115 108.423C57.3931 108.423 58.5937 109.624 58.5937 111.107Z" fill="#B5B7BA"/>
<path id="Vector_53" fill-rule="evenodd" clip-rule="evenodd" d="M58.5937 129.175C58.5937 130.658 57.3931 131.859 55.9115 131.859C54.4298 131.859 53.2292 130.658 53.2292 129.175C53.2292 127.692 54.4298 126.49 55.9115 126.49C57.3931 126.49 58.5937 127.692 58.5937 129.175Z" fill="#B5B7BA"/>
<path id="Vector_54" fill-rule="evenodd" clip-rule="evenodd" d="M58.5937 147.245C58.5937 148.728 57.3931 149.93 55.9115 149.93C54.4298 149.93 53.2292 148.728 53.2292 147.245C53.2292 145.762 54.4298 144.561 55.9115 144.561C57.3931 144.561 58.5937 145.762 58.5937 147.245Z" fill="#B5B7BA"/>
<path id="Vector_55" fill-rule="evenodd" clip-rule="evenodd" d="M40.8496 2.68458C40.8496 4.16751 39.649 5.36915 38.1673 5.36915C36.6857 5.36915 35.485 4.16751 35.485 2.68458C35.485 1.20164 36.6857 -1.82012e-07 38.1673 -1.17246e-07C39.649 -5.24801e-08 40.8496 1.20164 40.8496 2.68458Z" fill="#B5B7BA"/>
<path id="Vector_56" fill-rule="evenodd" clip-rule="evenodd" d="M40.8496 20.7549C40.8496 22.2378 39.649 23.4395 38.1673 23.4395C36.6857 23.4395 35.485 22.2378 35.485 20.7549C35.485 19.272 36.6857 18.0703 38.1673 18.0703C39.649 18.0703 40.8496 19.272 40.8496 20.7549Z" fill="#B5B7BA"/>
<path id="Vector_57" fill-rule="evenodd" clip-rule="evenodd" d="M40.8496 38.8252C40.8496 40.3081 39.649 41.5098 38.1673 41.5098C36.6857 41.5098 35.485 40.3081 35.485 38.8252C35.485 37.3423 36.6857 36.1406 38.1673 36.1406C39.649 36.1406 40.8496 37.3423 40.8496 38.8252Z" fill="#B5B7BA"/>
<path id="Vector_58" fill-rule="evenodd" clip-rule="evenodd" d="M40.8496 56.896C40.8496 58.3789 39.649 59.5806 38.1673 59.5806C36.6857 59.5806 35.485 58.3789 35.485 56.896C35.485 55.4131 36.6857 54.2114 38.1673 54.2114C39.649 54.2114 40.8496 55.4131 40.8496 56.896Z" fill="#B5B7BA"/>
<path id="Vector_59" fill-rule="evenodd" clip-rule="evenodd" d="M40.8496 74.9663C40.8496 76.4493 39.649 77.6509 38.1673 77.6509C36.6857 77.6509 35.485 76.4493 35.485 74.9663C35.485 73.4834 36.6857 72.2817 38.1673 72.2817C39.649 72.2817 40.8496 73.4834 40.8496 74.9663Z" fill="#B5B7BA"/>
<path id="Vector_60" fill-rule="evenodd" clip-rule="evenodd" d="M40.8496 93.0366C40.8496 94.5196 39.649 95.7212 38.1673 95.7212C36.6857 95.7212 35.485 94.5196 35.485 93.0366C35.485 91.5537 36.6857 90.3521 38.1673 90.3521C39.649 90.3521 40.8496 91.5537 40.8496 93.0366Z" fill="#B5B7BA"/>
<path id="Vector_61" fill-rule="evenodd" clip-rule="evenodd" d="M40.8496 111.107C40.8496 112.59 39.649 113.792 38.1673 113.792C36.6857 113.792 35.485 112.59 35.485 111.107C35.485 109.624 36.6857 108.423 38.1673 108.423C39.649 108.423 40.8496 109.624 40.8496 111.107Z" fill="#B5B7BA"/>
<path id="Vector_62" fill-rule="evenodd" clip-rule="evenodd" d="M40.8496 129.175C40.8496 130.658 39.649 131.859 38.1673 131.859C36.6857 131.859 35.485 130.658 35.485 129.175C35.485 127.692 36.6857 126.49 38.1673 126.49C39.649 126.49 40.8496 127.692 40.8496 129.175Z" fill="#B5B7BA"/>
<path id="Vector_63" fill-rule="evenodd" clip-rule="evenodd" d="M40.8496 147.245C40.8496 148.728 39.649 149.93 38.1673 149.93C36.6857 149.93 35.485 148.728 35.485 147.245C35.485 145.762 36.6857 144.561 38.1673 144.561C39.649 144.561 40.8496 145.762 40.8496 147.245Z" fill="#B5B7BA"/>
<path id="Vector_64" fill-rule="evenodd" clip-rule="evenodd" d="M23.1055 2.68458C23.1055 4.16751 21.9049 5.36915 20.4232 5.36915C18.9415 5.36915 17.7409 4.16751 17.7409 2.68458C17.7409 1.20164 18.9415 -1.82012e-07 20.4232 -1.17246e-07C21.9049 -5.24801e-08 23.1055 1.20164 23.1055 2.68458Z" fill="#B5B7BA"/>
<path id="Vector_65" fill-rule="evenodd" clip-rule="evenodd" d="M23.1055 20.7549C23.1055 22.2378 21.9049 23.4395 20.4232 23.4395C18.9415 23.4395 17.7409 22.2378 17.7409 20.7549C17.7409 19.272 18.9415 18.0703 20.4232 18.0703C21.9049 18.0703 23.1055 19.272 23.1055 20.7549Z" fill="#B5B7BA"/>
<path id="Vector_66" fill-rule="evenodd" clip-rule="evenodd" d="M23.1055 38.8252C23.1055 40.3081 21.9049 41.5098 20.4232 41.5098C18.9415 41.5098 17.7409 40.3081 17.7409 38.8252C17.7409 37.3423 18.9415 36.1406 20.4232 36.1406C21.9049 36.1406 23.1055 37.3423 23.1055 38.8252Z" fill="#B5B7BA"/>
<path id="Vector_67" fill-rule="evenodd" clip-rule="evenodd" d="M23.1055 56.896C23.1055 58.3789 21.9049 59.5806 20.4232 59.5806C18.9415 59.5806 17.7409 58.3789 17.7409 56.896C17.7409 55.4131 18.9415 54.2114 20.4232 54.2114C21.9049 54.2114 23.1055 55.4131 23.1055 56.896Z" fill="#B5B7BA"/>
<path id="Vector_68" fill-rule="evenodd" clip-rule="evenodd" d="M23.1055 74.9663C23.1055 76.4493 21.9049 77.6509 20.4232 77.6509C18.9415 77.6509 17.7409 76.4493 17.7409 74.9663C17.7409 73.4834 18.9415 72.2817 20.4232 72.2817C21.9049 72.2817 23.1055 73.4834 23.1055 74.9663Z" fill="#B5B7BA"/>
<path id="Vector_69" fill-rule="evenodd" clip-rule="evenodd" d="M23.1055 93.0366C23.1055 94.5196 21.9049 95.7212 20.4232 95.7212C18.9415 95.7212 17.7409 94.5196 17.7409 93.0366C17.7409 91.5537 18.9415 90.3521 20.4232 90.3521C21.9049 90.3521 23.1055 91.5537 23.1055 93.0366Z" fill="#B5B7BA"/>
<path id="Vector_70" fill-rule="evenodd" clip-rule="evenodd" d="M23.1055 111.107C23.1055 112.59 21.9049 113.792 20.4232 113.792C18.9415 113.792 17.7409 112.59 17.7409 111.107C17.7409 109.624 18.9415 108.423 20.4232 108.423C21.9049 108.423 23.1055 109.624 23.1055 111.107Z" fill="#B5B7BA"/>
<path id="Vector_71" fill-rule="evenodd" clip-rule="evenodd" d="M23.1055 129.175C23.1055 130.658 21.9049 131.859 20.4232 131.859C18.9415 131.859 17.7409 130.658 17.7409 129.175C17.7409 127.692 18.9415 126.49 20.4232 126.49C21.9049 126.49 23.1055 127.692 23.1055 129.175Z" fill="#B5B7BA"/>
<path id="Vector_72" fill-rule="evenodd" clip-rule="evenodd" d="M23.1055 147.245C23.1055 148.728 21.9049 149.93 20.4232 149.93C18.9415 149.93 17.7409 148.728 17.7409 147.245C17.7409 145.762 18.9415 144.561 20.4232 144.561C21.9049 144.561 23.1055 145.762 23.1055 147.245Z" fill="#B5B7BA"/>
<path id="Vector_73" fill-rule="evenodd" clip-rule="evenodd" d="M5.36523 2.68458C5.36523 4.16751 4.16463 5.36915 2.68295 5.36915C1.20128 5.36915 0.000654992 4.16751 0.000655057 2.68458C0.000655122 1.20164 1.20128 -1.82012e-07 2.68295 -1.17246e-07C4.16463 -5.24801e-08 5.36523 1.20164 5.36523 2.68458Z" fill="#B5B7BA"/>
<path id="Vector_74" fill-rule="evenodd" clip-rule="evenodd" d="M5.36523 20.7549C5.36523 22.2378 4.16463 23.4395 2.68295 23.4395C1.20128 23.4395 0.000654992 22.2378 0.000655057 20.7549C0.000655122 19.272 1.20128 18.0703 2.68295 18.0703C4.16463 18.0703 5.36523 19.272 5.36523 20.7549Z" fill="#B5B7BA"/>
<path id="Vector_75" fill-rule="evenodd" clip-rule="evenodd" d="M5.36523 38.8252C5.36523 40.3081 4.16463 41.5098 2.68295 41.5098C1.20128 41.5098 0.000654992 40.3081 0.000655057 38.8252C0.000655122 37.3423 1.20128 36.1406 2.68295 36.1406C4.16463 36.1406 5.36523 37.3423 5.36523 38.8252Z" fill="#B5B7BA"/>
<path id="Vector_76" fill-rule="evenodd" clip-rule="evenodd" d="M5.36523 56.896C5.36523 58.3789 4.16463 59.5806 2.68295 59.5806C1.20128 59.5806 0.000654992 58.3789 0.000655057 56.896C0.000655122 55.4131 1.20128 54.2114 2.68295 54.2114C4.16463 54.2114 5.36523 55.4131 5.36523 56.896Z" fill="#B5B7BA"/>
<path id="Vector_77" fill-rule="evenodd" clip-rule="evenodd" d="M5.36523 74.9663C5.36523 76.4493 4.16463 77.6509 2.68295 77.6509C1.20128 77.6509 0.000654992 76.4493 0.000655057 74.9663C0.000655122 73.4834 1.20128 72.2817 2.68295 72.2817C4.16463 72.2817 5.36523 73.4834 5.36523 74.9663Z" fill="#B5B7BA"/>
<path id="Vector_78" fill-rule="evenodd" clip-rule="evenodd" d="M5.36523 93.0366C5.36523 94.5196 4.16463 95.7212 2.68295 95.7212C1.20128 95.7212 0.000654992 94.5196 0.000655057 93.0366C0.000655122 91.5537 1.20128 90.3521 2.68295 90.3521C4.16463 90.3521 5.36523 91.5537 5.36523 93.0366Z" fill="#B5B7BA"/>
<path id="Vector_79" fill-rule="evenodd" clip-rule="evenodd" d="M5.36523 111.107C5.36523 112.59 4.16463 113.792 2.68295 113.792C1.20128 113.792 0.000654992 112.59 0.000655057 111.107C0.000655122 109.624 1.20128 108.423 2.68295 108.423C4.16463 108.423 5.36523 109.624 5.36523 111.107Z" fill="#B5B7BA"/>
<path id="Vector_80" fill-rule="evenodd" clip-rule="evenodd" d="M5.36523 129.175C5.36523 130.658 4.16463 131.859 2.68295 131.859C1.20128 131.859 0.000654992 130.658 0.000655057 129.175C0.000655122 127.692 1.20128 126.49 2.68295 126.49C4.16463 126.49 5.36523 127.692 5.36523 129.175Z" fill="#B5B7BA"/>
<path id="Vector_81" fill-rule="evenodd" clip-rule="evenodd" d="M5.36523 147.245C5.36523 148.728 4.16463 149.93 2.68295 149.93C1.20128 149.93 0.000654992 148.728 0.000655057 147.245C0.000655122 145.762 1.20128 144.561 2.68295 144.561C4.16463 144.561 5.36523 145.762 5.36523 147.245Z" fill="#B5B7BA"/>
</g>
</svg>
