<svg width="291" height="296" viewBox="0 0 291 296" fill="none" xmlns="http://www.w3.org/2000/svg">
<g opacity="0.3" clip-path="url(#clip0_805_9062)">
<path d="M510.546 70.6572L495.299 82.5654L479.991 94.4005L449.375 118.071L387.899 165.07C346.914 196.399 305.686 227.423 264.47 258.448L202.506 304.802C181.795 320.168 161.156 335.656 140.359 350.913L78.0657 396.828L46.7909 419.622L31.1535 431.019L15.4551 442.342L30.7022 430.434L46.0102 418.599L76.6264 394.929L138.103 347.93C158.57 332.222 179.184 316.722 199.725 301.125L261.531 254.564C302.82 223.637 344.121 192.722 385.642 162.099L447.936 116.183L479.21 93.3899L494.848 81.9931L510.534 70.6694L510.546 70.6572Z" fill="#B5B7BA"/>
<path d="M352.745 433.406L346.804 422.52L340.949 411.586L329.24 389.718C321.506 375.107 313.797 360.483 306.174 345.811C298.489 331.176 290.976 316.455 283.376 301.771L260.823 257.608L238.501 213.324C231.146 198.518 223.705 183.761 216.423 168.918C209.093 154.1 201.847 139.245 194.614 124.378L183.892 102.023L178.537 90.8454L173.256 79.6191L179.196 90.5045L185.051 101.439L196.761 123.307C204.494 137.918 212.203 152.541 219.827 167.213C227.511 181.849 235.025 196.57 242.624 211.254L265.177 255.429L287.487 299.713C294.842 314.519 302.283 329.276 309.565 344.119C316.896 358.937 324.141 373.792 331.374 388.659L342.108 411.014L347.475 422.191L352.757 433.418L352.745 433.406Z" fill="#B5B7BA"/>
<path d="M501.507 250.181L486.614 250.936L471.721 251.605L441.922 252.945C422.052 253.76 402.182 254.54 382.312 255.234C362.442 255.989 342.572 256.561 322.702 257.218L263.08 258.935L203.457 260.384C183.575 260.774 163.705 261.261 143.823 261.553C123.941 261.918 104.059 262.186 84.1764 262.43L54.3531 262.673L39.4353 262.795L24.5176 262.819L39.4109 262.052L54.3043 261.383L84.1032 260.043C103.973 259.227 123.843 258.448 143.713 257.754C163.583 256.999 183.453 256.427 203.323 255.769L262.945 254.065L322.58 252.616C342.462 252.226 362.332 251.739 382.214 251.447C402.096 251.082 421.979 250.814 441.861 250.57L471.684 250.327L486.602 250.205L501.52 250.181H501.507Z" fill="#B5B7BA"/>
<path d="M151.422 513L158.057 496.818L164.778 480.673L178.22 448.394L205.494 383.995C223.681 341.062 242.221 298.288 260.762 255.514L288.78 191.443C298.209 170.123 307.515 148.754 317.078 127.495L345.597 63.644L360.051 31.8037L367.284 15.8775L374.59 -0.012207L367.955 16.1697L361.234 32.3151L347.792 64.5938L320.518 128.993C311.467 150.483 302.185 171.852 293.025 193.294L265.251 257.474C246.6 300.2 227.938 342.925 208.934 385.493L180.416 449.344L165.961 481.184L158.728 497.11L151.422 513Z" fill="#B5B7BA"/>
<path d="M526 153.332L509.692 160.115L493.359 166.824L460.682 180.229L395.18 206.651C351.513 224.258 307.699 241.511 263.885 258.765L198.091 284.432C176.123 292.894 154.203 301.478 132.187 309.819L66.185 334.974L33.1049 347.357L16.5649 353.543L-0.0117188 359.643L16.2966 352.849L32.6292 346.14L65.3068 332.734L130.808 306.312C152.63 297.46 174.537 288.852 196.395 280.121L262.104 254.211C305.955 237.079 349.817 219.935 393.814 203.157L459.816 178.001L492.896 165.618L509.436 159.433L526.013 153.32L526 153.332Z" fill="#B5B7BA"/>
<path d="M250.248 491.424L250.675 476.727L251.199 462.031L252.248 432.638C253.029 413.047 253.834 393.456 254.737 373.864C255.578 354.273 256.591 334.694 257.518 315.115L260.567 256.378L263.885 197.653C265.08 178.086 266.19 158.507 267.483 138.94C268.715 119.373 270.033 99.8066 271.374 80.2519L273.521 50.9199L274.595 36.2478L275.766 21.5879L275.339 36.2965L274.814 50.993L273.765 80.3859C272.984 99.9771 272.179 119.568 271.277 139.16C270.435 158.751 269.423 178.33 268.496 197.909L265.434 256.646L262.116 315.371C260.921 334.938 259.811 354.517 258.518 374.084C257.286 393.65 255.969 413.217 254.627 432.772L252.492 462.104L251.419 476.776L250.26 491.436L250.248 491.424Z" fill="#B5B7BA"/>
<path d="M439.958 349.671L428.724 344.167L417.539 338.591L395.168 327.425C380.287 319.913 365.418 312.376 350.598 304.754C335.741 297.192 320.982 289.473 306.174 281.826L261.872 258.655L217.692 235.253C203.006 227.363 188.283 219.57 173.646 211.607C158.972 203.693 144.347 195.705 129.735 187.693L107.876 175.566L96.9472 169.502L86.0547 163.354L97.2887 168.857L108.474 174.434L130.845 185.599C145.726 193.112 160.595 200.649 175.415 208.271C190.272 215.832 205.031 223.564 219.839 231.21L264.141 254.394L308.321 277.808C323.007 285.686 337.729 293.503 352.366 301.454C367.04 309.368 381.665 317.356 396.278 325.368L418.136 337.495L429.065 343.559L439.958 349.707V349.671Z" fill="#B5B7BA"/>
<path d="M68.0137 495.564L79.9186 480.393L91.8967 465.282L115.853 435.061L164.07 374.863C196.223 334.743 228.669 294.854 261.127 254.978L309.979 195.291C326.336 175.456 342.595 155.549 359.062 135.799L408.341 76.4654L433.139 46.9264L445.544 32.1569L458.022 17.4482L446.117 32.6196L434.151 47.73L410.207 77.963L361.99 138.161C345.95 158.252 329.715 178.184 313.577 198.201L264.933 258.046C232.389 297.85 199.834 337.653 166.998 377.213L117.719 436.547L92.9213 466.086L80.5163 480.855L68.0503 495.564H68.0137Z" fill="#B5B7BA"/>
</g>
<defs>
<clipPath id="clip0_805_9062">
<rect width="526" height="513" fill="white"/>
</clipPath>
</defs>
</svg>
