<svg width="323" height="314" viewBox="0 0 323 314" fill="none" xmlns="http://www.w3.org/2000/svg">
<g opacity="0.3" clip-path="url(#clip0_805_9071)">
<path d="M202.725 201.644C142.257 186.798 115.651 157.631 101.275 90.9731C86.8802 157.64 60.2743 186.798 -0.184701 201.644L-1 202.124L-0.184701 202.604C60.2833 217.45 86.8893 246.617 101.266 313.275C115.651 246.617 142.257 217.45 202.716 202.604L203.531 202.124L202.716 201.644H202.725Z" fill="#B5B7BA"/>
<path d="M291.584 56.1906C279.418 53.3464 269.924 43.8445 267.079 31.6886L259.724 0.275391L252.368 31.6886C249.523 43.8535 240.02 53.3464 227.863 56.1906L196.447 63.5457L227.863 70.9008C240.03 73.745 249.523 83.2469 252.368 95.4028L259.724 126.816L267.079 95.4028C269.924 83.2378 279.427 73.745 291.584 70.9008L323 63.5457L291.584 56.1906Z" fill="#B5B7BA"/>
</g>
<defs>
<clipPath id="clip0_805_9071">
<rect width="324" height="313" fill="white" transform="translate(-1 0.275391)"/>
</clipPath>
</defs>
</svg>
