<svg width="386" height="385" viewBox="0 0 386 385" fill="none" xmlns="http://www.w3.org/2000/svg">
<path d="M193.006 94.4494L250.784 6L247.954 113.177L344.281 77.2393L281.929 162.206L380 192.507L281.929 222.794L344.281 307.761L247.954 271.823L250.784 379L193.006 290.551L135.216 379L138.046 271.823L41.7187 307.761L104.071 222.794L6 192.507L104.071 162.206L41.7187 77.2393L138.046 113.177L135.216 6L193.006 94.4494Z" stroke="#DEE0E3" stroke-width="3" stroke-miterlimit="10"/>
<path d="M24.7938 127.605C22.3905 127.066 20.515 125.263 19.9531 122.958L18.5 117L17.0469 122.958C16.485 125.265 14.6077 127.066 12.2062 127.605L6 129L12.2062 130.395C14.6095 130.934 16.485 132.737 17.0469 135.042L18.5 141L19.9531 135.042C20.515 132.735 22.3923 130.934 24.7938 130.395L31 129L24.7938 127.605Z" fill="#0E0F0F"/>
<g filter="url(#filter0_d_810_18047)">
<rect x="131" y="228" width="88.8" height="84" rx="24" fill="white" shape-rendering="crispEdges"/>
<g filter="url(#filter1_d_810_18047)">
<!-- <rect x="131" y="228" width="88.8" height="84" rx="25.9136" fill="white"/> -->
</g>
<path d="M167.799 252.425H162.099C159.738 252.425 157.824 254.339 157.824 256.7V283.3C157.824 285.661 159.738 287.575 162.099 287.575H167.799C170.16 287.575 172.074 285.661 172.074 283.3V256.7C172.074 254.339 170.16 252.425 167.799 252.425Z" fill="#0E0F0F" stroke="#0E0F0F" stroke-width="2.85"/>
<path d="M188.697 252.425H182.997C180.636 252.425 178.722 254.339 178.722 256.7V262.4C178.722 264.761 180.636 266.675 182.997 266.675H188.697C191.058 266.675 192.972 264.761 192.972 262.4V256.7C192.972 254.339 191.058 252.425 188.697 252.425Z" fill="#0E0F0F" stroke="#0E0F0F" stroke-width="2.85"/>
<path d="M188.697 273.325H182.997C180.636 273.325 178.722 275.239 178.722 277.6V283.3C178.722 285.661 180.636 287.575 182.997 287.575H188.697C191.058 287.575 192.972 285.661 192.972 283.3V277.6C192.972 275.239 191.058 273.325 188.697 273.325Z" fill="#0E0F0F" stroke="#0E0F0F" stroke-width="2.85"/>
</g>
<rect x="69" y="35" width="42.996" height="43" rx="5.37475" fill="white"/>
<path d="M107.219 35C108.486 35 109.701 35.5034 110.597 36.3994C111.493 37.2954 111.996 38.5106 111.996 39.7778V73.2222C111.996 74.4894 111.493 75.7046 110.597 76.6006C109.701 77.4966 108.486 78 107.219 78H73.7773C72.5103 78 71.2952 77.4966 70.3992 76.6006C69.5033 75.7046 69 74.4894 69 73.2222V39.7778C69 38.5106 69.5033 37.2954 70.3992 36.3994C71.2952 35.5034 72.5103 35 73.7773 35H107.219ZM106.024 72.0278V59.3667C106.024 57.3012 105.204 55.3204 103.744 53.8599C102.283 52.3994 100.303 51.5789 98.2373 51.5789C96.2069 51.5789 93.8421 52.8211 92.6956 54.6844V52.0328H86.0312V72.0278H92.6956V60.2506C92.6956 58.4111 94.1766 56.9061 96.0158 56.9061C96.9028 56.9061 97.7533 57.2585 98.3805 57.8857C99.0076 58.5129 99.36 59.3636 99.36 60.2506V72.0278H106.024ZM78.268 48.2822C79.3323 48.2822 80.353 47.8594 81.1056 47.1067C81.8582 46.3541 82.281 45.3333 82.281 44.2689C82.281 42.0472 80.4895 40.2317 78.268 40.2317C77.1974 40.2317 76.1706 40.657 75.4135 41.4141C74.6565 42.1713 74.2312 43.1982 74.2312 44.2689C74.2312 46.4906 76.0466 48.2822 78.268 48.2822ZM81.5883 72.0278V52.0328H74.9717V72.0278H81.5883Z" fill="#D1B697"/>
<defs>
<filter id="filter0_d_810_18047" x="81.8" y="189.6" width="187.2" height="182.4" filterUnits="userSpaceOnUse" color-interpolation-filters="sRGB">
<feFlood flood-opacity="0" result="BackgroundImageFix"/>
<feColorMatrix in="SourceAlpha" type="matrix" values="0 0 0 0 0 0 0 0 0 0 0 0 0 0 0 0 0 0 127 0" result="hardAlpha"/>
<feOffset dy="10.8"/>
<feGaussianBlur stdDeviation="24.6"/>
<feComposite in2="hardAlpha" operator="out"/>
<feColorMatrix type="matrix" values="0 0 0 0 0.145098 0 0 0 0 0.141176 0 0 0 0 0.141176 0 0 0 0.05 0"/>
<feBlend mode="normal" in2="BackgroundImageFix" result="effect1_dropShadow_810_18047"/>
<feBlend mode="normal" in="SourceGraphic" in2="effect1_dropShadow_810_18047" result="shape"/>
</filter>
<filter id="filter1_d_810_18047" x="81.8" y="189.6" width="187.2" height="182.4" filterUnits="userSpaceOnUse" color-interpolation-filters="sRGB">
<feFlood flood-opacity="0" result="BackgroundImageFix"/>
<feColorMatrix in="SourceAlpha" type="matrix" values="0 0 0 0 0 0 0 0 0 0 0 0 0 0 0 0 0 0 127 0" result="hardAlpha"/>
<feOffset dy="10.8"/>
<feGaussianBlur stdDeviation="24.6"/>
<feComposite in2="hardAlpha" operator="out"/>
<feColorMatrix type="matrix" values="0 0 0 0 0.145098 0 0 0 0 0.141176 0 0 0 0 0.141176 0 0 0 0.05 0"/>
<feBlend mode="normal" in2="BackgroundImageFix" result="effect1_dropShadow_810_18047"/>
<feBlend mode="normal" in="SourceGraphic" in2="effect1_dropShadow_810_18047" result="shape"/>
</filter>
</defs>
</svg>
