<svg width="142" height="34" viewBox="0 0 142 34" fill="none" xmlns="http://www.w3.org/2000/svg">
<path d="M10.2469 10.5612C14.3784 5.15848 19.577 2.29731 22.245 4.13881C25.0958 6.10206 23.9677 12.6767 19.7295 18.8404C15.476 25.0041 9.72855 28.3979 6.87768 26.4347C4.20975 24.6084 5.01775 18.7338 8.6004 12.9506C3.32552 21.2602 2.33457 29.9959 6.51179 32.8571C10.8872 35.8705 19.2874 31.2895 25.2483 22.6299C31.2092 13.9703 32.5203 4.50407 28.1297 1.50592C23.739 -1.49223 16.1316 2.67778 10.2469 10.5612Z" fill="#0E0F0F"/>
<path d="M9.7875 2.31234C9.74176 2.78413 9.71127 3.25592 9.66553 3.72771C9.54357 5.14308 9.37587 6.54323 8.97949 7.91294C8.4764 9.64791 7.36349 10.7741 5.62552 11.2763C4.42114 11.6264 3.18627 11.7938 1.93616 11.9155C1.34159 11.9764 0.731775 12.0221 0.137208 12.0829C0.106717 12.0829 0.0762266 12.0982 0 12.1438C0.106717 12.1743 0.152453 12.1895 0.198189 12.1895C1.49404 12.3417 2.77465 12.4634 4.0705 12.6308C4.92424 12.7374 5.76273 12.9809 6.54024 13.3461C7.48545 13.7875 8.17149 14.4876 8.61361 15.4159C9.17768 16.6334 9.37587 17.927 9.52833 19.2511C9.63504 20.1338 9.68078 21.0165 9.77225 21.8992C9.77225 21.9296 9.7875 21.9601 9.84848 21.9905C9.87897 21.7014 9.89421 21.397 9.9247 21.1078C10.0619 19.6316 10.1839 18.1401 10.5803 16.6943C10.7784 15.979 11.0376 15.2942 11.4797 14.6854C11.9981 13.9549 12.7146 13.4983 13.5378 13.1787C15.0166 12.6156 16.5564 12.4786 18.1114 12.3265C18.5536 12.2808 18.9957 12.2504 19.4378 12.2199C19.514 12.2199 19.5902 12.1895 19.6665 12.1286C19.2396 12.0982 18.828 12.0677 18.4011 12.0221C17.2425 11.8699 16.0838 11.7329 14.9252 11.5503C14.1629 11.4285 13.4311 11.1698 12.7451 10.7741C12.0743 10.3936 11.5407 9.86097 11.1748 9.17612C10.5498 8.01947 10.3211 6.75629 10.1686 5.47789C10.0467 4.443 9.93995 3.40811 9.83323 2.358H9.7875V2.31234Z" fill="#0E0F0F"/>
<path d="M55.9907 4.8312H61.2794V29.4836H56.697L44.5345 13.8223V29.4836H39.2285V4.8312H43.8282L55.9907 20.5097V4.8312Z" fill="#0E0F0F"/>
<path d="M107.008 19.1L104.01 11.0029L100.995 19.1H107.008ZM108.765 23.6729H99.2382L97.1192 29.4836H91.4687L101.185 4.8312H106.818L116.534 29.4836H110.884L108.765 23.6729Z" fill="#0E0F0F"/>
<path d="M141.238 4.8312V29.4836H135.95V19.4438H125.372V29.4836H120.066V4.8312H125.372V14.699H135.95V4.8312H141.238Z" fill="#0E0F0F"/>
<path d="M72.6639 11.5146C71.1519 13.0441 70.3959 14.9278 70.3959 17.1657C70.3959 19.3924 71.1519 21.2705 72.6639 22.7999C74.1759 24.3294 76.0151 25.0941 78.1815 25.0941C80.3592 25.0941 82.204 24.3294 83.716 22.7999C85.228 21.2705 85.984 19.3924 85.984 17.1657C85.984 14.9278 85.228 13.0441 83.716 11.5146C82.204 9.97391 80.3592 9.20356 78.1815 9.20356C76.0151 9.20356 74.1759 9.97391 72.6639 11.5146ZM68.8218 26.0725C66.2831 23.5984 65.0137 20.6238 65.0137 17.1488C65.0137 13.6738 66.2831 10.7049 68.8218 8.24203C71.3719 5.77916 74.4918 4.54773 78.1815 4.54773C81.8825 4.54773 85.0023 5.77916 87.5411 8.24203C90.0912 10.7049 91.3662 13.6738 91.3662 17.1488C91.3662 20.6238 90.0912 23.5984 87.5411 26.0725C85.0023 28.5354 81.8825 29.7668 78.1815 29.7668C74.4918 29.7668 71.3719 28.5354 68.8218 26.0725Z" fill="#0E0F0F"/>
</svg>
