<svg width="509" height="493" viewBox="0 0 509 493" fill="none" xmlns="http://www.w3.org/2000/svg">
<path d="M0 246.903C0 111.693 110.426 0.90625 246.121 0.90625C381.816 0.90625 493 112.7 493 246.903C493 381.105 382.574 493.906 246.121 493.906C109.668 493.906 0 381.357 0 246.903ZM383.585 246.903C383.585 170.359 323.95 108.168 246.121 108.168C168.292 108.168 109.415 171.366 109.415 246.903C109.415 322.439 169.05 386.645 246.121 386.645C323.192 386.645 383.585 322.691 383.585 246.903Z" fill="#F2F3F7"/>
<g filter="url(#filter0_d_810_17953)">
<rect x="442" y="328" width="66.6" height="63" rx="18" fill="white" shape-rendering="crispEdges"/>
<rect x="442" y="328" width="66.6" height="63" rx="19.4352" fill="white"/>
<path fill-rule="evenodd" clip-rule="evenodd" d="M471.716 360.554C475.71 360.554 478.911 357.353 478.911 353.359C478.911 349.365 475.71 346.164 471.716 346.164C467.724 346.164 464.522 349.365 464.522 353.359C464.522 357.353 467.724 360.554 471.716 360.554ZM472.37 363.17C466.726 363.17 461.905 363.952 461.905 367.08C461.905 370.209 466.696 371.019 472.37 371.019C478.015 371.019 482.836 370.236 482.836 367.109C482.836 363.979 478.045 363.17 472.37 363.17ZM480.602 358.862C480.365 358.626 480.219 358.298 480.219 357.937C480.219 357.214 480.804 356.629 481.527 356.629H482.836V355.321C482.836 354.598 483.42 354.013 484.144 354.013C484.867 354.013 485.451 354.598 485.451 355.321V356.629H486.76C487.484 356.629 488.068 357.214 488.068 357.937C488.068 358.661 487.484 359.245 486.76 359.245H485.451V360.554C485.451 361.277 484.867 361.862 484.144 361.862C483.783 361.862 483.455 361.716 483.219 361.479C482.982 361.242 482.836 360.915 482.836 360.554L482.836 359.245H481.527C481.166 359.245 480.839 359.099 480.602 358.862Z" fill="#B5B7BA"/>
</g>
<path d="M488 61C478 63.7612 475.762 66.0003 473.001 76C470.238 66.0003 468 63.7622 458 61C468 58.2388 470.238 56.0007 472.999 46C475.761 56.0007 478 58.2388 487.999 61H488Z" fill="#0E0F0F"/>
<path fill-rule="evenodd" clip-rule="evenodd" d="M278.53 52.5632C278.53 54.5315 276.937 56.1264 274.97 56.1264C273.004 56.1264 271.41 54.5315 271.41 52.5632C271.41 50.5949 273.004 49 274.97 49C276.937 49 278.53 50.5949 278.53 52.5632Z" fill="#DEE0E3"/>
<path fill-rule="evenodd" clip-rule="evenodd" d="M278.53 76.5477C278.53 78.516 276.937 80.1109 274.97 80.1109C273.004 80.1109 271.41 78.516 271.41 76.5477C271.41 74.5794 273.004 72.9845 274.97 72.9845C276.937 72.9845 278.53 74.5794 278.53 76.5477Z" fill="#DEE0E3"/>
<path fill-rule="evenodd" clip-rule="evenodd" d="M278.53 100.533C278.53 102.501 276.937 104.096 274.97 104.096C273.004 104.096 271.41 102.501 271.41 100.533C271.41 98.5643 273.004 96.9694 274.97 96.9694C276.937 96.9694 278.53 98.5643 278.53 100.533Z" fill="#DEE0E3"/>
<path fill-rule="evenodd" clip-rule="evenodd" d="M278.53 124.517C278.53 126.486 276.937 128.081 274.97 128.081C273.004 128.081 271.41 126.486 271.41 124.517C271.41 122.549 273.004 120.954 274.97 120.954C276.937 120.954 278.53 122.549 278.53 124.517Z" fill="#DEE0E3"/>
<path fill-rule="evenodd" clip-rule="evenodd" d="M278.53 148.502C278.53 150.47 276.937 152.065 274.97 152.065C273.004 152.065 271.41 150.47 271.41 148.502C271.41 146.534 273.004 144.939 274.97 144.939C276.937 144.939 278.53 146.534 278.53 148.502Z" fill="#DEE0E3"/>
<path fill-rule="evenodd" clip-rule="evenodd" d="M278.53 172.486C278.53 174.455 276.937 176.05 274.97 176.05C273.004 176.05 271.41 174.455 271.41 172.486C271.41 170.518 273.004 168.923 274.97 168.923C276.937 168.923 278.53 170.518 278.53 172.486Z" fill="#DEE0E3"/>
<path fill-rule="evenodd" clip-rule="evenodd" d="M278.53 196.471C278.53 198.44 276.937 200.035 274.97 200.035C273.004 200.035 271.41 198.44 271.41 196.471C271.41 194.503 273.004 192.908 274.97 192.908C276.937 192.908 278.53 194.503 278.53 196.471Z" fill="#DEE0E3"/>
<path fill-rule="evenodd" clip-rule="evenodd" d="M278.53 220.452C278.53 222.42 276.937 224.015 274.97 224.015C273.004 224.015 271.41 222.42 271.41 220.452C271.41 218.484 273.004 216.889 274.97 216.889C276.937 216.889 278.53 218.484 278.53 220.452Z" fill="#DEE0E3"/>
<path fill-rule="evenodd" clip-rule="evenodd" d="M278.53 244.437C278.53 246.405 276.937 248 274.97 248C273.004 248 271.41 246.405 271.41 244.437C271.41 242.468 273.004 240.874 274.97 240.874C276.937 240.874 278.53 242.468 278.53 244.437Z" fill="#DEE0E3"/>
<path fill-rule="evenodd" clip-rule="evenodd" d="M254.975 52.5632C254.975 54.5315 253.381 56.1264 251.414 56.1264C249.448 56.1264 247.854 54.5315 247.854 52.5632C247.854 50.5949 249.448 49 251.414 49C253.381 49 254.975 50.5949 254.975 52.5632Z" fill="#DEE0E3"/>
<path fill-rule="evenodd" clip-rule="evenodd" d="M254.975 76.5477C254.975 78.516 253.381 80.1109 251.414 80.1109C249.448 80.1109 247.854 78.516 247.854 76.5477C247.854 74.5794 249.448 72.9845 251.414 72.9845C253.381 72.9845 254.975 74.5794 254.975 76.5477Z" fill="#DEE0E3"/>
<path fill-rule="evenodd" clip-rule="evenodd" d="M254.975 100.533C254.975 102.501 253.381 104.096 251.414 104.096C249.448 104.096 247.854 102.501 247.854 100.533C247.854 98.5643 249.448 96.9694 251.414 96.9694C253.381 96.9694 254.975 98.5643 254.975 100.533Z" fill="#DEE0E3"/>
<path fill-rule="evenodd" clip-rule="evenodd" d="M254.975 124.517C254.975 126.486 253.381 128.081 251.414 128.081C249.448 128.081 247.854 126.486 247.854 124.517C247.854 122.549 249.448 120.954 251.414 120.954C253.381 120.954 254.975 122.549 254.975 124.517Z" fill="#DEE0E3"/>
<path fill-rule="evenodd" clip-rule="evenodd" d="M254.975 148.502C254.975 150.47 253.381 152.065 251.414 152.065C249.448 152.065 247.854 150.47 247.854 148.502C247.854 146.534 249.448 144.939 251.414 144.939C253.381 144.939 254.975 146.534 254.975 148.502Z" fill="#DEE0E3"/>
<path fill-rule="evenodd" clip-rule="evenodd" d="M254.975 172.486C254.975 174.455 253.381 176.05 251.414 176.05C249.448 176.05 247.854 174.455 247.854 172.486C247.854 170.518 249.448 168.923 251.414 168.923C253.381 168.923 254.975 170.518 254.975 172.486Z" fill="#DEE0E3"/>
<path fill-rule="evenodd" clip-rule="evenodd" d="M254.975 196.471C254.975 198.44 253.381 200.035 251.414 200.035C249.448 200.035 247.854 198.44 247.854 196.471C247.854 194.503 249.448 192.908 251.414 192.908C253.381 192.908 254.975 194.503 254.975 196.471Z" fill="#DEE0E3"/>
<path fill-rule="evenodd" clip-rule="evenodd" d="M254.975 220.452C254.975 222.42 253.381 224.015 251.414 224.015C249.448 224.015 247.854 222.42 247.854 220.452C247.854 218.484 249.448 216.889 251.414 216.889C253.381 216.889 254.975 218.484 254.975 220.452Z" fill="#DEE0E3"/>
<path fill-rule="evenodd" clip-rule="evenodd" d="M254.975 244.437C254.975 246.405 253.381 248 251.414 248C249.448 248 247.854 246.405 247.854 244.437C247.854 242.468 249.448 240.874 251.414 240.874C253.381 240.874 254.975 242.468 254.975 244.437Z" fill="#DEE0E3"/>
<path fill-rule="evenodd" clip-rule="evenodd" d="M231.426 52.5632C231.426 54.5315 229.832 56.1264 227.866 56.1264C225.899 56.1264 224.305 54.5315 224.305 52.5632C224.305 50.5949 225.899 49 227.866 49C229.832 49 231.426 50.5949 231.426 52.5632Z" fill="#DEE0E3"/>
<path fill-rule="evenodd" clip-rule="evenodd" d="M231.426 76.5477C231.426 78.516 229.832 80.1109 227.866 80.1109C225.899 80.1109 224.305 78.516 224.305 76.5477C224.305 74.5794 225.899 72.9845 227.866 72.9845C229.832 72.9845 231.426 74.5794 231.426 76.5477Z" fill="#DEE0E3"/>
<path fill-rule="evenodd" clip-rule="evenodd" d="M231.426 100.533C231.426 102.501 229.832 104.096 227.866 104.096C225.899 104.096 224.305 102.501 224.305 100.533C224.305 98.5643 225.899 96.9694 227.866 96.9694C229.832 96.9694 231.426 98.5643 231.426 100.533Z" fill="#DEE0E3"/>
<path fill-rule="evenodd" clip-rule="evenodd" d="M231.426 124.517C231.426 126.486 229.832 128.081 227.866 128.081C225.899 128.081 224.305 126.486 224.305 124.517C224.305 122.549 225.899 120.954 227.866 120.954C229.832 120.954 231.426 122.549 231.426 124.517Z" fill="#DEE0E3"/>
<path fill-rule="evenodd" clip-rule="evenodd" d="M231.426 148.502C231.426 150.47 229.832 152.065 227.866 152.065C225.899 152.065 224.305 150.47 224.305 148.502C224.305 146.534 225.899 144.939 227.866 144.939C229.832 144.939 231.426 146.534 231.426 148.502Z" fill="#DEE0E3"/>
<path fill-rule="evenodd" clip-rule="evenodd" d="M231.426 172.486C231.426 174.455 229.832 176.05 227.866 176.05C225.899 176.05 224.305 174.455 224.305 172.486C224.305 170.518 225.899 168.923 227.866 168.923C229.832 168.923 231.426 170.518 231.426 172.486Z" fill="#DEE0E3"/>
<path fill-rule="evenodd" clip-rule="evenodd" d="M231.426 196.471C231.426 198.44 229.832 200.035 227.866 200.035C225.899 200.035 224.305 198.44 224.305 196.471C224.305 194.503 225.899 192.908 227.866 192.908C229.832 192.908 231.426 194.503 231.426 196.471Z" fill="#DEE0E3"/>
<path fill-rule="evenodd" clip-rule="evenodd" d="M231.426 220.452C231.426 222.42 229.832 224.015 227.866 224.015C225.899 224.015 224.305 222.42 224.305 220.452C224.305 218.484 225.899 216.889 227.866 216.889C229.832 216.889 231.426 218.484 231.426 220.452Z" fill="#DEE0E3"/>
<path fill-rule="evenodd" clip-rule="evenodd" d="M231.426 244.437C231.426 246.405 229.832 248 227.866 248C225.899 248 224.305 246.405 224.305 244.437C224.305 242.468 225.899 240.874 227.866 240.874C229.832 240.874 231.426 242.468 231.426 244.437Z" fill="#DEE0E3"/>
<path fill-rule="evenodd" clip-rule="evenodd" d="M207.877 52.5632C207.877 54.5315 206.283 56.1264 204.317 56.1264C202.35 56.1264 200.757 54.5315 200.757 52.5632C200.757 50.5949 202.35 49 204.317 49C206.283 49 207.877 50.5949 207.877 52.5632Z" fill="#DEE0E3"/>
<path fill-rule="evenodd" clip-rule="evenodd" d="M207.877 76.5477C207.877 78.516 206.283 80.1109 204.317 80.1109C202.35 80.1109 200.757 78.516 200.757 76.5477C200.757 74.5794 202.35 72.9845 204.317 72.9845C206.283 72.9845 207.877 74.5794 207.877 76.5477Z" fill="#DEE0E3"/>
<path fill-rule="evenodd" clip-rule="evenodd" d="M207.877 100.533C207.877 102.501 206.283 104.096 204.317 104.096C202.35 104.096 200.757 102.501 200.757 100.533C200.757 98.5643 202.35 96.9694 204.317 96.9694C206.283 96.9694 207.877 98.5643 207.877 100.533Z" fill="#DEE0E3"/>
<path fill-rule="evenodd" clip-rule="evenodd" d="M207.877 124.517C207.877 126.486 206.283 128.081 204.317 128.081C202.35 128.081 200.757 126.486 200.757 124.517C200.757 122.549 202.35 120.954 204.317 120.954C206.283 120.954 207.877 122.549 207.877 124.517Z" fill="#DEE0E3"/>
<path fill-rule="evenodd" clip-rule="evenodd" d="M207.877 148.502C207.877 150.47 206.283 152.065 204.317 152.065C202.35 152.065 200.757 150.47 200.757 148.502C200.757 146.534 202.35 144.939 204.317 144.939C206.283 144.939 207.877 146.534 207.877 148.502Z" fill="#DEE0E3"/>
<path fill-rule="evenodd" clip-rule="evenodd" d="M207.877 172.486C207.877 174.455 206.283 176.05 204.317 176.05C202.35 176.05 200.757 174.455 200.757 172.486C200.757 170.518 202.35 168.923 204.317 168.923C206.283 168.923 207.877 170.518 207.877 172.486Z" fill="#DEE0E3"/>
<path fill-rule="evenodd" clip-rule="evenodd" d="M207.877 196.471C207.877 198.44 206.283 200.035 204.317 200.035C202.35 200.035 200.757 198.44 200.757 196.471C200.757 194.503 202.35 192.908 204.317 192.908C206.283 192.908 207.877 194.503 207.877 196.471Z" fill="#DEE0E3"/>
<path fill-rule="evenodd" clip-rule="evenodd" d="M207.877 220.452C207.877 222.42 206.283 224.015 204.317 224.015C202.35 224.015 200.757 222.42 200.757 220.452C200.757 218.484 202.35 216.889 204.317 216.889C206.283 216.889 207.877 218.484 207.877 220.452Z" fill="#DEE0E3"/>
<path fill-rule="evenodd" clip-rule="evenodd" d="M207.877 244.437C207.877 246.405 206.283 248 204.317 248C202.35 248 200.757 246.405 200.757 244.437C200.757 242.468 202.35 240.874 204.317 240.874C206.283 240.874 207.877 242.468 207.877 244.437Z" fill="#DEE0E3"/>
<path fill-rule="evenodd" clip-rule="evenodd" d="M184.329 52.5632C184.329 54.5315 182.736 56.1264 180.769 56.1264C178.802 56.1264 177.209 54.5315 177.209 52.5632C177.209 50.5949 178.802 49 180.769 49C182.736 49 184.329 50.5949 184.329 52.5632Z" fill="#DEE0E3"/>
<path fill-rule="evenodd" clip-rule="evenodd" d="M184.329 76.5477C184.329 78.516 182.736 80.1109 180.769 80.1109C178.802 80.1109 177.209 78.516 177.209 76.5477C177.209 74.5794 178.802 72.9845 180.769 72.9845C182.736 72.9845 184.329 74.5794 184.329 76.5477Z" fill="#DEE0E3"/>
<path fill-rule="evenodd" clip-rule="evenodd" d="M184.329 100.533C184.329 102.501 182.736 104.096 180.769 104.096C178.802 104.096 177.209 102.501 177.209 100.533C177.209 98.5643 178.802 96.9694 180.769 96.9694C182.736 96.9694 184.329 98.5643 184.329 100.533Z" fill="#DEE0E3"/>
<path fill-rule="evenodd" clip-rule="evenodd" d="M184.329 124.517C184.329 126.486 182.736 128.081 180.769 128.081C178.802 128.081 177.209 126.486 177.209 124.517C177.209 122.549 178.802 120.954 180.769 120.954C182.736 120.954 184.329 122.549 184.329 124.517Z" fill="#DEE0E3"/>
<path fill-rule="evenodd" clip-rule="evenodd" d="M184.329 148.502C184.329 150.47 182.736 152.065 180.769 152.065C178.802 152.065 177.209 150.47 177.209 148.502C177.209 146.534 178.802 144.939 180.769 144.939C182.736 144.939 184.329 146.534 184.329 148.502Z" fill="#DEE0E3"/>
<path fill-rule="evenodd" clip-rule="evenodd" d="M184.329 172.486C184.329 174.455 182.736 176.05 180.769 176.05C178.802 176.05 177.209 174.455 177.209 172.486C177.209 170.518 178.802 168.923 180.769 168.923C182.736 168.923 184.329 170.518 184.329 172.486Z" fill="#DEE0E3"/>
<path fill-rule="evenodd" clip-rule="evenodd" d="M184.329 196.471C184.329 198.44 182.736 200.035 180.769 200.035C178.802 200.035 177.209 198.44 177.209 196.471C177.209 194.503 178.802 192.908 180.769 192.908C182.736 192.908 184.329 194.503 184.329 196.471Z" fill="#DEE0E3"/>
<path fill-rule="evenodd" clip-rule="evenodd" d="M184.329 220.452C184.329 222.42 182.736 224.015 180.769 224.015C178.802 224.015 177.209 222.42 177.209 220.452C177.209 218.484 178.802 216.889 180.769 216.889C182.736 216.889 184.329 218.484 184.329 220.452Z" fill="#DEE0E3"/>
<path fill-rule="evenodd" clip-rule="evenodd" d="M184.329 244.437C184.329 246.405 182.736 248 180.769 248C178.802 248 177.209 246.405 177.209 244.437C177.209 242.468 178.802 240.874 180.769 240.874C182.736 240.874 184.329 242.468 184.329 244.437Z" fill="#DEE0E3"/>
<path fill-rule="evenodd" clip-rule="evenodd" d="M160.78 52.5632C160.78 54.5315 159.187 56.1264 157.22 56.1264C155.253 56.1264 153.66 54.5315 153.66 52.5632C153.66 50.5949 155.253 49 157.22 49C159.187 49 160.78 50.5949 160.78 52.5632Z" fill="#DEE0E3"/>
<path fill-rule="evenodd" clip-rule="evenodd" d="M160.78 76.5477C160.78 78.516 159.187 80.1109 157.22 80.1109C155.253 80.1109 153.66 78.516 153.66 76.5477C153.66 74.5794 155.253 72.9845 157.22 72.9845C159.187 72.9845 160.78 74.5794 160.78 76.5477Z" fill="#DEE0E3"/>
<path fill-rule="evenodd" clip-rule="evenodd" d="M160.78 100.533C160.78 102.501 159.187 104.096 157.22 104.096C155.253 104.096 153.66 102.501 153.66 100.533C153.66 98.5643 155.253 96.9694 157.22 96.9694C159.187 96.9694 160.78 98.5643 160.78 100.533Z" fill="#DEE0E3"/>
<path fill-rule="evenodd" clip-rule="evenodd" d="M160.78 124.517C160.78 126.486 159.187 128.081 157.22 128.081C155.253 128.081 153.66 126.486 153.66 124.517C153.66 122.549 155.253 120.954 157.22 120.954C159.187 120.954 160.78 122.549 160.78 124.517Z" fill="#DEE0E3"/>
<path fill-rule="evenodd" clip-rule="evenodd" d="M160.78 148.502C160.78 150.47 159.187 152.065 157.22 152.065C155.253 152.065 153.66 150.47 153.66 148.502C153.66 146.534 155.253 144.939 157.22 144.939C159.187 144.939 160.78 146.534 160.78 148.502Z" fill="#DEE0E3"/>
<path fill-rule="evenodd" clip-rule="evenodd" d="M160.78 172.486C160.78 174.455 159.187 176.05 157.22 176.05C155.253 176.05 153.66 174.455 153.66 172.486C153.66 170.518 155.253 168.923 157.22 168.923C159.187 168.923 160.78 170.518 160.78 172.486Z" fill="#DEE0E3"/>
<path fill-rule="evenodd" clip-rule="evenodd" d="M160.78 196.471C160.78 198.44 159.187 200.035 157.22 200.035C155.253 200.035 153.66 198.44 153.66 196.471C153.66 194.503 155.253 192.908 157.22 192.908C159.187 192.908 160.78 194.503 160.78 196.471Z" fill="#DEE0E3"/>
<path fill-rule="evenodd" clip-rule="evenodd" d="M160.78 220.452C160.78 222.42 159.187 224.015 157.22 224.015C155.253 224.015 153.66 222.42 153.66 220.452C153.66 218.484 155.253 216.889 157.22 216.889C159.187 216.889 160.78 218.484 160.78 220.452Z" fill="#DEE0E3"/>
<path fill-rule="evenodd" clip-rule="evenodd" d="M160.78 244.437C160.78 246.405 159.187 248 157.22 248C155.253 248 153.66 246.405 153.66 244.437C153.66 242.468 155.253 240.874 157.22 240.874C159.187 240.874 160.78 242.468 160.78 244.437Z" fill="#DEE0E3"/>
<path fill-rule="evenodd" clip-rule="evenodd" d="M137.225 52.5632C137.225 54.5315 135.631 56.1264 133.664 56.1264C131.698 56.1264 130.104 54.5315 130.104 52.5632C130.104 50.5949 131.698 49 133.664 49C135.631 49 137.225 50.5949 137.225 52.5632Z" fill="#DEE0E3"/>
<path fill-rule="evenodd" clip-rule="evenodd" d="M137.225 76.5477C137.225 78.516 135.631 80.1109 133.664 80.1109C131.698 80.1109 130.104 78.516 130.104 76.5477C130.104 74.5794 131.698 72.9845 133.664 72.9845C135.631 72.9845 137.225 74.5794 137.225 76.5477Z" fill="#DEE0E3"/>
<path fill-rule="evenodd" clip-rule="evenodd" d="M137.225 100.533C137.225 102.501 135.631 104.096 133.664 104.096C131.698 104.096 130.104 102.501 130.104 100.533C130.104 98.5643 131.698 96.9694 133.664 96.9694C135.631 96.9694 137.225 98.5643 137.225 100.533Z" fill="#DEE0E3"/>
<path fill-rule="evenodd" clip-rule="evenodd" d="M137.225 124.517C137.225 126.486 135.631 128.081 133.664 128.081C131.698 128.081 130.104 126.486 130.104 124.517C130.104 122.549 131.698 120.954 133.664 120.954C135.631 120.954 137.225 122.549 137.225 124.517Z" fill="#DEE0E3"/>
<path fill-rule="evenodd" clip-rule="evenodd" d="M137.225 148.502C137.225 150.47 135.631 152.065 133.664 152.065C131.698 152.065 130.104 150.47 130.104 148.502C130.104 146.534 131.698 144.939 133.664 144.939C135.631 144.939 137.225 146.534 137.225 148.502Z" fill="#DEE0E3"/>
<path fill-rule="evenodd" clip-rule="evenodd" d="M137.225 172.486C137.225 174.455 135.631 176.05 133.664 176.05C131.698 176.05 130.104 174.455 130.104 172.486C130.104 170.518 131.698 168.923 133.664 168.923C135.631 168.923 137.225 170.518 137.225 172.486Z" fill="#DEE0E3"/>
<path fill-rule="evenodd" clip-rule="evenodd" d="M137.225 196.471C137.225 198.44 135.631 200.035 133.664 200.035C131.698 200.035 130.104 198.44 130.104 196.471C130.104 194.503 131.698 192.908 133.664 192.908C135.631 192.908 137.225 194.503 137.225 196.471Z" fill="#DEE0E3"/>
<path fill-rule="evenodd" clip-rule="evenodd" d="M137.225 220.452C137.225 222.42 135.631 224.015 133.664 224.015C131.698 224.015 130.104 222.42 130.104 220.452C130.104 218.484 131.698 216.889 133.664 216.889C135.631 216.889 137.225 218.484 137.225 220.452Z" fill="#DEE0E3"/>
<path fill-rule="evenodd" clip-rule="evenodd" d="M137.225 244.437C137.225 246.405 135.631 248 133.664 248C131.698 248 130.104 246.405 130.104 244.437C130.104 242.468 131.698 240.874 133.664 240.874C135.631 240.874 137.225 242.468 137.225 244.437Z" fill="#DEE0E3"/>
<path fill-rule="evenodd" clip-rule="evenodd" d="M113.669 52.5632C113.669 54.5315 112.075 56.1264 110.109 56.1264C108.142 56.1264 106.549 54.5315 106.549 52.5632C106.549 50.5949 108.142 49 110.109 49C112.075 49 113.669 50.5949 113.669 52.5632Z" fill="#DEE0E3"/>
<path fill-rule="evenodd" clip-rule="evenodd" d="M113.669 76.5477C113.669 78.516 112.075 80.1109 110.109 80.1109C108.142 80.1109 106.549 78.516 106.549 76.5477C106.549 74.5794 108.142 72.9845 110.109 72.9845C112.075 72.9845 113.669 74.5794 113.669 76.5477Z" fill="#DEE0E3"/>
<path fill-rule="evenodd" clip-rule="evenodd" d="M113.669 100.533C113.669 102.501 112.075 104.096 110.109 104.096C108.142 104.096 106.549 102.501 106.549 100.533C106.549 98.5643 108.142 96.9694 110.109 96.9694C112.075 96.9694 113.669 98.5643 113.669 100.533Z" fill="#DEE0E3"/>
<path fill-rule="evenodd" clip-rule="evenodd" d="M113.669 124.517C113.669 126.486 112.075 128.081 110.109 128.081C108.142 128.081 106.549 126.486 106.549 124.517C106.549 122.549 108.142 120.954 110.109 120.954C112.075 120.954 113.669 122.549 113.669 124.517Z" fill="#DEE0E3"/>
<path fill-rule="evenodd" clip-rule="evenodd" d="M113.669 148.502C113.669 150.47 112.075 152.065 110.109 152.065C108.142 152.065 106.549 150.47 106.549 148.502C106.549 146.534 108.142 144.939 110.109 144.939C112.075 144.939 113.669 146.534 113.669 148.502Z" fill="#DEE0E3"/>
<path fill-rule="evenodd" clip-rule="evenodd" d="M113.669 172.486C113.669 174.455 112.075 176.05 110.109 176.05C108.142 176.05 106.549 174.455 106.549 172.486C106.549 170.518 108.142 168.923 110.109 168.923C112.075 168.923 113.669 170.518 113.669 172.486Z" fill="#DEE0E3"/>
<path fill-rule="evenodd" clip-rule="evenodd" d="M113.669 196.471C113.669 198.44 112.075 200.035 110.109 200.035C108.142 200.035 106.549 198.44 106.549 196.471C106.549 194.503 108.142 192.908 110.109 192.908C112.075 192.908 113.669 194.503 113.669 196.471Z" fill="#DEE0E3"/>
<path fill-rule="evenodd" clip-rule="evenodd" d="M113.669 220.452C113.669 222.42 112.075 224.015 110.109 224.015C108.142 224.015 106.549 222.42 106.549 220.452C106.549 218.484 108.142 216.889 110.109 216.889C112.075 216.889 113.669 218.484 113.669 220.452Z" fill="#DEE0E3"/>
<path fill-rule="evenodd" clip-rule="evenodd" d="M113.669 244.437C113.669 246.405 112.075 248 110.109 248C108.142 248 106.549 246.405 106.549 244.437C106.549 242.468 108.142 240.874 110.109 240.874C112.075 240.874 113.669 242.468 113.669 244.437Z" fill="#DEE0E3"/>
<path fill-rule="evenodd" clip-rule="evenodd" d="M90.1201 52.5632C90.1201 54.5315 88.5266 56.1264 86.56 56.1264C84.5933 56.1264 82.9998 54.5315 82.9998 52.5632C82.9998 50.5949 84.5933 49 86.56 49C88.5266 49 90.1201 50.5949 90.1201 52.5632Z" fill="#DEE0E3"/>
<path fill-rule="evenodd" clip-rule="evenodd" d="M90.1201 76.5477C90.1201 78.516 88.5266 80.1109 86.56 80.1109C84.5933 80.1109 82.9998 78.516 82.9998 76.5477C82.9998 74.5794 84.5933 72.9845 86.56 72.9845C88.5266 72.9845 90.1201 74.5794 90.1201 76.5477Z" fill="#DEE0E3"/>
<path fill-rule="evenodd" clip-rule="evenodd" d="M90.1201 100.533C90.1201 102.501 88.5266 104.096 86.56 104.096C84.5933 104.096 82.9998 102.501 82.9998 100.533C82.9998 98.5643 84.5933 96.9694 86.56 96.9694C88.5266 96.9694 90.1201 98.5643 90.1201 100.533Z" fill="#DEE0E3"/>
<path fill-rule="evenodd" clip-rule="evenodd" d="M90.1201 124.517C90.1201 126.486 88.5266 128.081 86.56 128.081C84.5933 128.081 82.9998 126.486 82.9998 124.517C82.9998 122.549 84.5933 120.954 86.56 120.954C88.5266 120.954 90.1201 122.549 90.1201 124.517Z" fill="#DEE0E3"/>
<path fill-rule="evenodd" clip-rule="evenodd" d="M90.1201 148.502C90.1201 150.47 88.5266 152.065 86.56 152.065C84.5933 152.065 82.9998 150.47 82.9998 148.502C82.9998 146.534 84.5933 144.939 86.56 144.939C88.5266 144.939 90.1201 146.534 90.1201 148.502Z" fill="#DEE0E3"/>
<path fill-rule="evenodd" clip-rule="evenodd" d="M90.1201 172.486C90.1201 174.455 88.5266 176.05 86.56 176.05C84.5933 176.05 82.9998 174.455 82.9998 172.486C82.9998 170.518 84.5933 168.923 86.56 168.923C88.5266 168.923 90.1201 170.518 90.1201 172.486Z" fill="#DEE0E3"/>
<path fill-rule="evenodd" clip-rule="evenodd" d="M90.1201 196.471C90.1201 198.44 88.5266 200.035 86.56 200.035C84.5933 200.035 82.9998 198.44 82.9998 196.471C82.9998 194.503 84.5933 192.908 86.56 192.908C88.5266 192.908 90.1201 194.503 90.1201 196.471Z" fill="#DEE0E3"/>
<path fill-rule="evenodd" clip-rule="evenodd" d="M90.1201 220.452C90.1201 222.42 88.5266 224.015 86.56 224.015C84.5933 224.015 82.9998 222.42 82.9998 220.452C82.9998 218.484 84.5933 216.889 86.56 216.889C88.5266 216.889 90.1201 218.484 90.1201 220.452Z" fill="#DEE0E3"/>
<path fill-rule="evenodd" clip-rule="evenodd" d="M90.1201 244.437C90.1201 246.405 88.5266 248 86.56 248C84.5933 248 82.9998 246.405 82.9998 244.437C82.9998 242.468 84.5933 240.874 86.56 240.874C88.5266 240.874 90.1201 242.468 90.1201 244.437Z" fill="#DEE0E3"/>
<path d="M251.871 269.503C245.238 268.002 240.061 262.989 238.511 256.575L234.5 240L230.489 256.575C228.939 262.994 223.757 268.002 217.129 269.503L200 273.384L217.129 277.265C223.762 278.766 228.939 283.779 230.489 290.193L234.5 306.768L238.511 290.193C240.061 283.774 245.243 278.766 251.871 277.265L269 273.384L251.871 269.503Z" fill="#E2C89F"/>
<rect x="310" y="158" width="67.9958" height="68.0021" rx="6.87468" fill="white"/>
<path d="M370.441 158C372.444 158 374.366 158.796 375.783 160.213C377.2 161.63 377.996 163.552 377.996 165.556V218.446C377.996 220.45 377.2 222.372 375.783 223.789C374.366 225.206 372.444 226.002 370.441 226.002H317.555C315.551 226.002 313.63 225.206 312.213 223.789C310.796 222.372 310 220.45 310 218.446V165.556C310 163.552 310.796 161.63 312.213 160.213C313.63 158.796 315.551 158 317.555 158H370.441ZM368.552 216.557V196.535C368.552 193.268 367.255 190.136 364.945 187.826C362.636 185.516 359.503 184.219 356.237 184.219C353.026 184.219 349.286 186.183 347.473 189.13V184.936H336.934V216.557H347.473V197.932C347.473 195.023 349.815 192.643 352.724 192.643C354.127 192.643 355.472 193.201 356.464 194.192C357.455 195.184 358.013 196.53 358.013 197.932V216.557H368.552ZM324.657 179.005C326.34 179.005 327.954 178.336 329.144 177.146C330.335 175.956 331.003 174.342 331.003 172.658C331.003 169.145 328.17 166.274 324.657 166.274C322.964 166.274 321.34 166.946 320.143 168.144C318.945 169.341 318.273 170.965 318.273 172.658C318.273 176.172 321.144 179.005 324.657 179.005ZM329.908 216.557V184.936H319.444V216.557H329.908Z" fill="#0E0F0F"/>
<defs>
<filter id="filter0_d_810_17953" x="405.1" y="299.2" width="140.4" height="136.8" filterUnits="userSpaceOnUse" color-interpolation-filters="sRGB">
<feFlood flood-opacity="0" result="BackgroundImageFix"/>
<feColorMatrix in="SourceAlpha" type="matrix" values="0 0 0 0 0 0 0 0 0 0 0 0 0 0 0 0 0 0 127 0" result="hardAlpha"/>
<feOffset dy="8.1"/>
<feGaussianBlur stdDeviation="18.45"/>
<feComposite in2="hardAlpha" operator="out"/>
<feColorMatrix type="matrix" values="0 0 0 0 0.145098 0 0 0 0 0.141176 0 0 0 0 0.141176 0 0 0 0.05 0"/>
<feBlend mode="normal" in2="BackgroundImageFix" result="effect1_dropShadow_810_17953"/>
<feBlend mode="normal" in="SourceGraphic" in2="effect1_dropShadow_810_17953" result="shape"/>
</filter>
</defs>
</svg>
