<svg width="370" height="395" viewBox="0 0 370 395" fill="none" xmlns="http://www.w3.org/2000/svg">
<path d="M0.125 184.497C0.125 83.0899 82.9444 0 184.716 0C286.487 0 369.875 83.8453 369.875 184.497C369.875 285.149 287.056 369.75 184.716 369.75C82.3759 369.75 0.125 285.338 0.125 184.497ZM287.814 184.497C287.814 127.09 243.087 80.4461 184.716 80.4461C126.344 80.4461 82.1864 127.845 82.1864 184.497C82.1864 241.15 126.913 289.304 184.716 289.304C242.519 289.304 287.814 241.338 287.814 184.497Z" fill="#F2F3F7"/>
<path d="M366.125 45.0703C358.625 47.1412 356.946 48.8206 354.875 56.3203C352.804 48.8206 351.125 47.142 343.625 45.0703C351.125 42.9994 352.804 41.3208 354.875 33.8203C356.945 41.3208 358.625 42.9994 366.124 45.0703H366.125Z" fill="#0E0F0F"/>
<path fill-rule="evenodd" clip-rule="evenodd" d="M209.023 38.7427C209.023 40.2189 207.828 41.4151 206.353 41.4151C204.878 41.4151 203.683 40.2189 203.683 38.7427C203.683 37.2665 204.878 36.0703 206.353 36.0703C207.828 36.0703 209.023 37.2665 209.023 38.7427Z" fill="#DEE0E3"/>
<path fill-rule="evenodd" clip-rule="evenodd" d="M209.023 56.7311C209.023 58.2073 207.828 59.4035 206.353 59.4035C204.878 59.4035 203.683 58.2073 203.683 56.7311C203.683 55.2549 204.878 54.0587 206.353 54.0587C207.828 54.0587 209.023 55.2549 209.023 56.7311Z" fill="#DEE0E3"/>
<path fill-rule="evenodd" clip-rule="evenodd" d="M209.023 74.7198C209.023 76.196 207.828 77.3922 206.353 77.3922C204.878 77.3922 203.683 76.196 203.683 74.7198C203.683 73.2436 204.878 72.0474 206.353 72.0474C207.828 72.0474 209.023 73.2436 209.023 74.7198Z" fill="#DEE0E3"/>
<path fill-rule="evenodd" clip-rule="evenodd" d="M209.023 92.7084C209.023 94.1846 207.828 95.3808 206.353 95.3808C204.878 95.3808 203.683 94.1846 203.683 92.7084C203.683 91.2322 204.878 90.036 206.353 90.036C207.828 90.036 209.023 91.2322 209.023 92.7084Z" fill="#DEE0E3"/>
<path fill-rule="evenodd" clip-rule="evenodd" d="M209.023 110.697C209.023 112.173 207.828 113.369 206.353 113.369C204.878 113.369 203.683 112.173 203.683 110.697C203.683 109.22 204.878 108.024 206.353 108.024C207.828 108.024 209.023 109.22 209.023 110.697Z" fill="#DEE0E3"/>
<path fill-rule="evenodd" clip-rule="evenodd" d="M209.023 128.685C209.023 130.161 207.828 131.358 206.353 131.358C204.878 131.358 203.683 130.161 203.683 128.685C203.683 127.209 204.878 126.013 206.353 126.013C207.828 126.013 209.023 127.209 209.023 128.685Z" fill="#DEE0E3"/>
<path fill-rule="evenodd" clip-rule="evenodd" d="M209.023 146.674C209.023 148.15 207.828 149.346 206.353 149.346C204.878 149.346 203.683 148.15 203.683 146.674C203.683 145.198 204.878 144.001 206.353 144.001C207.828 144.001 209.023 145.198 209.023 146.674Z" fill="#DEE0E3"/>
<path fill-rule="evenodd" clip-rule="evenodd" d="M209.023 164.659C209.023 166.135 207.828 167.332 206.353 167.332C204.878 167.332 203.683 166.135 203.683 164.659C203.683 163.183 204.878 161.987 206.353 161.987C207.828 161.987 209.023 163.183 209.023 164.659Z" fill="#DEE0E3"/>
<path fill-rule="evenodd" clip-rule="evenodd" d="M209.023 182.648C209.023 184.124 207.828 185.32 206.353 185.32C204.878 185.32 203.683 184.124 203.683 182.648C203.683 181.172 204.878 179.976 206.353 179.976C207.828 179.976 209.023 181.172 209.023 182.648Z" fill="#DEE0E3"/>
<path fill-rule="evenodd" clip-rule="evenodd" d="M191.355 38.7427C191.355 40.2189 190.16 41.4151 188.685 41.4151C187.21 41.4151 186.015 40.2189 186.015 38.7427C186.015 37.2665 187.21 36.0703 188.685 36.0703C190.16 36.0703 191.355 37.2665 191.355 38.7427Z" fill="#DEE0E3"/>
<path fill-rule="evenodd" clip-rule="evenodd" d="M191.355 56.7311C191.355 58.2073 190.16 59.4035 188.685 59.4035C187.21 59.4035 186.015 58.2073 186.015 56.7311C186.015 55.2549 187.21 54.0587 188.685 54.0587C190.16 54.0587 191.355 55.2549 191.355 56.7311Z" fill="#DEE0E3"/>
<path fill-rule="evenodd" clip-rule="evenodd" d="M191.355 74.7198C191.355 76.196 190.16 77.3922 188.685 77.3922C187.21 77.3922 186.015 76.196 186.015 74.7198C186.015 73.2436 187.21 72.0474 188.685 72.0474C190.16 72.0474 191.355 73.2436 191.355 74.7198Z" fill="#DEE0E3"/>
<path fill-rule="evenodd" clip-rule="evenodd" d="M191.355 92.7084C191.355 94.1846 190.16 95.3808 188.685 95.3808C187.21 95.3808 186.015 94.1846 186.015 92.7084C186.015 91.2322 187.21 90.036 188.685 90.036C190.16 90.036 191.355 91.2322 191.355 92.7084Z" fill="#DEE0E3"/>
<path fill-rule="evenodd" clip-rule="evenodd" d="M191.355 110.697C191.355 112.173 190.16 113.369 188.685 113.369C187.21 113.369 186.015 112.173 186.015 110.697C186.015 109.22 187.21 108.024 188.685 108.024C190.16 108.024 191.355 109.22 191.355 110.697Z" fill="#DEE0E3"/>
<path fill-rule="evenodd" clip-rule="evenodd" d="M191.355 128.685C191.355 130.161 190.16 131.358 188.685 131.358C187.21 131.358 186.015 130.161 186.015 128.685C186.015 127.209 187.21 126.013 188.685 126.013C190.16 126.013 191.355 127.209 191.355 128.685Z" fill="#DEE0E3"/>
<path fill-rule="evenodd" clip-rule="evenodd" d="M191.355 146.674C191.355 148.15 190.16 149.346 188.685 149.346C187.21 149.346 186.015 148.15 186.015 146.674C186.015 145.198 187.21 144.001 188.685 144.001C190.16 144.001 191.355 145.198 191.355 146.674Z" fill="#DEE0E3"/>
<path fill-rule="evenodd" clip-rule="evenodd" d="M191.355 164.659C191.355 166.135 190.16 167.332 188.685 167.332C187.21 167.332 186.015 166.135 186.015 164.659C186.015 163.183 187.21 161.987 188.685 161.987C190.16 161.987 191.355 163.183 191.355 164.659Z" fill="#DEE0E3"/>
<path fill-rule="evenodd" clip-rule="evenodd" d="M191.355 182.648C191.355 184.124 190.16 185.32 188.685 185.32C187.21 185.32 186.015 184.124 186.015 182.648C186.015 181.172 187.21 179.976 188.685 179.976C190.16 179.976 191.355 181.172 191.355 182.648Z" fill="#DEE0E3"/>
<path fill-rule="evenodd" clip-rule="evenodd" d="M173.693 38.7427C173.693 40.2189 172.498 41.4151 171.023 41.4151C169.548 41.4151 168.353 40.2189 168.353 38.7427C168.353 37.2665 169.548 36.0703 171.023 36.0703C172.498 36.0703 173.693 37.2665 173.693 38.7427Z" fill="#DEE0E3"/>
<path fill-rule="evenodd" clip-rule="evenodd" d="M173.693 56.7311C173.693 58.2073 172.498 59.4035 171.023 59.4035C169.548 59.4035 168.353 58.2073 168.353 56.7311C168.353 55.2549 169.548 54.0587 171.023 54.0587C172.498 54.0587 173.693 55.2549 173.693 56.7311Z" fill="#DEE0E3"/>
<path fill-rule="evenodd" clip-rule="evenodd" d="M173.693 74.7198C173.693 76.196 172.498 77.3922 171.023 77.3922C169.548 77.3922 168.353 76.196 168.353 74.7198C168.353 73.2436 169.548 72.0474 171.023 72.0474C172.498 72.0474 173.693 73.2436 173.693 74.7198Z" fill="#DEE0E3"/>
<path fill-rule="evenodd" clip-rule="evenodd" d="M173.693 92.7084C173.693 94.1846 172.498 95.3808 171.023 95.3808C169.548 95.3808 168.353 94.1846 168.353 92.7084C168.353 91.2322 169.548 90.036 171.023 90.036C172.498 90.036 173.693 91.2322 173.693 92.7084Z" fill="#DEE0E3"/>
<path fill-rule="evenodd" clip-rule="evenodd" d="M173.693 110.697C173.693 112.173 172.498 113.369 171.023 113.369C169.548 113.369 168.353 112.173 168.353 110.697C168.353 109.22 169.548 108.024 171.023 108.024C172.498 108.024 173.693 109.22 173.693 110.697Z" fill="#DEE0E3"/>
<path fill-rule="evenodd" clip-rule="evenodd" d="M173.693 128.685C173.693 130.161 172.498 131.358 171.023 131.358C169.548 131.358 168.353 130.161 168.353 128.685C168.353 127.209 169.548 126.013 171.023 126.013C172.498 126.013 173.693 127.209 173.693 128.685Z" fill="#DEE0E3"/>
<path fill-rule="evenodd" clip-rule="evenodd" d="M173.693 146.674C173.693 148.15 172.498 149.346 171.023 149.346C169.548 149.346 168.353 148.15 168.353 146.674C168.353 145.198 169.548 144.001 171.023 144.001C172.498 144.001 173.693 145.198 173.693 146.674Z" fill="#DEE0E3"/>
<path fill-rule="evenodd" clip-rule="evenodd" d="M173.693 164.659C173.693 166.135 172.498 167.332 171.023 167.332C169.548 167.332 168.353 166.135 168.353 164.659C168.353 163.183 169.548 161.987 171.023 161.987C172.498 161.987 173.693 163.183 173.693 164.659Z" fill="#DEE0E3"/>
<path fill-rule="evenodd" clip-rule="evenodd" d="M173.693 182.648C173.693 184.124 172.498 185.32 171.023 185.32C169.548 185.32 168.353 184.124 168.353 182.648C168.353 181.172 169.548 179.976 171.023 179.976C172.498 179.976 173.693 181.172 173.693 182.648Z" fill="#DEE0E3"/>
<path fill-rule="evenodd" clip-rule="evenodd" d="M156.033 38.7427C156.033 40.2189 154.838 41.4151 153.363 41.4151C151.888 41.4151 150.693 40.2189 150.693 38.7427C150.693 37.2665 151.888 36.0703 153.363 36.0703C154.838 36.0703 156.033 37.2665 156.033 38.7427Z" fill="#DEE0E3"/>
<path fill-rule="evenodd" clip-rule="evenodd" d="M156.033 56.7311C156.033 58.2073 154.838 59.4035 153.363 59.4035C151.888 59.4035 150.693 58.2073 150.693 56.7311C150.693 55.2549 151.888 54.0587 153.363 54.0587C154.838 54.0587 156.033 55.2549 156.033 56.7311Z" fill="#DEE0E3"/>
<path fill-rule="evenodd" clip-rule="evenodd" d="M156.033 74.7198C156.033 76.196 154.838 77.3922 153.363 77.3922C151.888 77.3922 150.693 76.196 150.693 74.7198C150.693 73.2436 151.888 72.0474 153.363 72.0474C154.838 72.0474 156.033 73.2436 156.033 74.7198Z" fill="#DEE0E3"/>
<path fill-rule="evenodd" clip-rule="evenodd" d="M156.033 92.7084C156.033 94.1846 154.838 95.3808 153.363 95.3808C151.888 95.3808 150.693 94.1846 150.693 92.7084C150.693 91.2322 151.888 90.036 153.363 90.036C154.838 90.036 156.033 91.2322 156.033 92.7084Z" fill="#DEE0E3"/>
<path fill-rule="evenodd" clip-rule="evenodd" d="M156.033 110.697C156.033 112.173 154.838 113.369 153.363 113.369C151.888 113.369 150.693 112.173 150.693 110.697C150.693 109.22 151.888 108.024 153.363 108.024C154.838 108.024 156.033 109.22 156.033 110.697Z" fill="#DEE0E3"/>
<path fill-rule="evenodd" clip-rule="evenodd" d="M156.033 128.685C156.033 130.161 154.838 131.358 153.363 131.358C151.888 131.358 150.693 130.161 150.693 128.685C150.693 127.209 151.888 126.013 153.363 126.013C154.838 126.013 156.033 127.209 156.033 128.685Z" fill="#DEE0E3"/>
<path fill-rule="evenodd" clip-rule="evenodd" d="M156.033 146.674C156.033 148.15 154.838 149.346 153.363 149.346C151.888 149.346 150.693 148.15 150.693 146.674C150.693 145.198 151.888 144.001 153.363 144.001C154.838 144.001 156.033 145.198 156.033 146.674Z" fill="#DEE0E3"/>
<path fill-rule="evenodd" clip-rule="evenodd" d="M156.033 164.659C156.033 166.135 154.838 167.332 153.363 167.332C151.888 167.332 150.693 166.135 150.693 164.659C150.693 163.183 151.888 161.987 153.363 161.987C154.838 161.987 156.033 163.183 156.033 164.659Z" fill="#DEE0E3"/>
<path fill-rule="evenodd" clip-rule="evenodd" d="M156.033 182.648C156.033 184.124 154.838 185.32 153.363 185.32C151.888 185.32 150.693 184.124 150.693 182.648C150.693 181.172 151.888 179.976 153.363 179.976C154.838 179.976 156.033 181.172 156.033 182.648Z" fill="#DEE0E3"/>
<path fill-rule="evenodd" clip-rule="evenodd" d="M138.371 38.7427C138.371 40.2189 137.176 41.4151 135.701 41.4151C134.226 41.4151 133.031 40.2189 133.031 38.7427C133.031 37.2665 134.226 36.0703 135.701 36.0703C137.176 36.0703 138.371 37.2665 138.371 38.7427Z" fill="#DEE0E3"/>
<path fill-rule="evenodd" clip-rule="evenodd" d="M138.371 56.7311C138.371 58.2073 137.176 59.4035 135.701 59.4035C134.226 59.4035 133.031 58.2073 133.031 56.7311C133.031 55.2549 134.226 54.0587 135.701 54.0587C137.176 54.0587 138.371 55.2549 138.371 56.7311Z" fill="#DEE0E3"/>
<path fill-rule="evenodd" clip-rule="evenodd" d="M138.371 74.7198C138.371 76.196 137.176 77.3922 135.701 77.3922C134.226 77.3922 133.031 76.196 133.031 74.7198C133.031 73.2436 134.226 72.0474 135.701 72.0474C137.176 72.0474 138.371 73.2436 138.371 74.7198Z" fill="#DEE0E3"/>
<path fill-rule="evenodd" clip-rule="evenodd" d="M138.371 92.7084C138.371 94.1846 137.176 95.3808 135.701 95.3808C134.226 95.3808 133.031 94.1846 133.031 92.7084C133.031 91.2322 134.226 90.036 135.701 90.036C137.176 90.036 138.371 91.2322 138.371 92.7084Z" fill="#DEE0E3"/>
<path fill-rule="evenodd" clip-rule="evenodd" d="M138.371 110.697C138.371 112.173 137.176 113.369 135.701 113.369C134.226 113.369 133.031 112.173 133.031 110.697C133.031 109.22 134.226 108.024 135.701 108.024C137.176 108.024 138.371 109.22 138.371 110.697Z" fill="#DEE0E3"/>
<path fill-rule="evenodd" clip-rule="evenodd" d="M138.371 128.685C138.371 130.161 137.176 131.358 135.701 131.358C134.226 131.358 133.031 130.161 133.031 128.685C133.031 127.209 134.226 126.013 135.701 126.013C137.176 126.013 138.371 127.209 138.371 128.685Z" fill="#DEE0E3"/>
<path fill-rule="evenodd" clip-rule="evenodd" d="M138.371 146.674C138.371 148.15 137.176 149.346 135.701 149.346C134.226 149.346 133.031 148.15 133.031 146.674C133.031 145.198 134.226 144.001 135.701 144.001C137.176 144.001 138.371 145.198 138.371 146.674Z" fill="#DEE0E3"/>
<path fill-rule="evenodd" clip-rule="evenodd" d="M138.371 164.659C138.371 166.135 137.176 167.332 135.701 167.332C134.226 167.332 133.031 166.135 133.031 164.659C133.031 163.183 134.226 161.987 135.701 161.987C137.176 161.987 138.371 163.183 138.371 164.659Z" fill="#DEE0E3"/>
<path fill-rule="evenodd" clip-rule="evenodd" d="M138.371 182.648C138.371 184.124 137.176 185.32 135.701 185.32C134.226 185.32 133.031 184.124 133.031 182.648C133.031 181.172 134.226 179.976 135.701 179.976C137.176 179.976 138.371 181.172 138.371 182.648Z" fill="#DEE0E3"/>
<path fill-rule="evenodd" clip-rule="evenodd" d="M120.711 38.7427C120.711 40.2189 119.516 41.4151 118.041 41.4151C116.566 41.4151 115.371 40.2189 115.371 38.7427C115.371 37.2665 116.566 36.0703 118.041 36.0703C119.516 36.0703 120.711 37.2665 120.711 38.7427Z" fill="#DEE0E3"/>
<path fill-rule="evenodd" clip-rule="evenodd" d="M120.711 56.7311C120.711 58.2073 119.516 59.4035 118.041 59.4035C116.566 59.4035 115.371 58.2073 115.371 56.7311C115.371 55.2549 116.566 54.0587 118.041 54.0587C119.516 54.0587 120.711 55.2549 120.711 56.7311Z" fill="#DEE0E3"/>
<path fill-rule="evenodd" clip-rule="evenodd" d="M120.711 74.7198C120.711 76.196 119.516 77.3922 118.041 77.3922C116.566 77.3922 115.371 76.196 115.371 74.7198C115.371 73.2436 116.566 72.0474 118.041 72.0474C119.516 72.0474 120.711 73.2436 120.711 74.7198Z" fill="#DEE0E3"/>
<path fill-rule="evenodd" clip-rule="evenodd" d="M120.711 92.7084C120.711 94.1846 119.516 95.3808 118.041 95.3808C116.566 95.3808 115.371 94.1846 115.371 92.7084C115.371 91.2322 116.566 90.036 118.041 90.036C119.516 90.036 120.711 91.2322 120.711 92.7084Z" fill="#DEE0E3"/>
<path fill-rule="evenodd" clip-rule="evenodd" d="M120.711 110.697C120.711 112.173 119.516 113.369 118.041 113.369C116.566 113.369 115.371 112.173 115.371 110.697C115.371 109.22 116.566 108.024 118.041 108.024C119.516 108.024 120.711 109.22 120.711 110.697Z" fill="#DEE0E3"/>
<path fill-rule="evenodd" clip-rule="evenodd" d="M120.711 128.685C120.711 130.161 119.516 131.358 118.041 131.358C116.566 131.358 115.371 130.161 115.371 128.685C115.371 127.209 116.566 126.013 118.041 126.013C119.516 126.013 120.711 127.209 120.711 128.685Z" fill="#DEE0E3"/>
<path fill-rule="evenodd" clip-rule="evenodd" d="M120.711 146.674C120.711 148.15 119.516 149.346 118.041 149.346C116.566 149.346 115.371 148.15 115.371 146.674C115.371 145.198 116.566 144.001 118.041 144.001C119.516 144.001 120.711 145.198 120.711 146.674Z" fill="#DEE0E3"/>
<path fill-rule="evenodd" clip-rule="evenodd" d="M120.711 164.659C120.711 166.135 119.516 167.332 118.041 167.332C116.566 167.332 115.371 166.135 115.371 164.659C115.371 163.183 116.566 161.987 118.041 161.987C119.516 161.987 120.711 163.183 120.711 164.659Z" fill="#DEE0E3"/>
<path fill-rule="evenodd" clip-rule="evenodd" d="M120.711 182.648C120.711 184.124 119.516 185.32 118.041 185.32C116.566 185.32 115.371 184.124 115.371 182.648C115.371 181.172 116.566 179.976 118.041 179.976C119.516 179.976 120.711 181.172 120.711 182.648Z" fill="#DEE0E3"/>
<path fill-rule="evenodd" clip-rule="evenodd" d="M103.043 38.7427C103.043 40.2189 101.848 41.4151 100.373 41.4151C98.8979 41.4151 97.7027 40.2189 97.7027 38.7427C97.7027 37.2665 98.8979 36.0703 100.373 36.0703C101.848 36.0703 103.043 37.2665 103.043 38.7427Z" fill="#DEE0E3"/>
<path fill-rule="evenodd" clip-rule="evenodd" d="M103.043 56.7311C103.043 58.2073 101.848 59.4035 100.373 59.4035C98.8979 59.4035 97.7027 58.2073 97.7027 56.7311C97.7027 55.2549 98.8979 54.0587 100.373 54.0587C101.848 54.0587 103.043 55.2549 103.043 56.7311Z" fill="#DEE0E3"/>
<path fill-rule="evenodd" clip-rule="evenodd" d="M103.043 74.7198C103.043 76.196 101.848 77.3922 100.373 77.3922C98.8979 77.3922 97.7027 76.196 97.7027 74.7198C97.7027 73.2436 98.8979 72.0474 100.373 72.0474C101.848 72.0474 103.043 73.2436 103.043 74.7198Z" fill="#DEE0E3"/>
<path fill-rule="evenodd" clip-rule="evenodd" d="M103.043 92.7084C103.043 94.1846 101.848 95.3808 100.373 95.3808C98.8979 95.3808 97.7027 94.1846 97.7027 92.7084C97.7027 91.2322 98.8979 90.036 100.373 90.036C101.848 90.036 103.043 91.2322 103.043 92.7084Z" fill="#DEE0E3"/>
<path fill-rule="evenodd" clip-rule="evenodd" d="M103.043 110.697C103.043 112.173 101.848 113.369 100.373 113.369C98.8979 113.369 97.7027 112.173 97.7027 110.697C97.7027 109.22 98.8979 108.024 100.373 108.024C101.848 108.024 103.043 109.22 103.043 110.697Z" fill="#DEE0E3"/>
<path fill-rule="evenodd" clip-rule="evenodd" d="M103.043 128.685C103.043 130.161 101.848 131.358 100.373 131.358C98.8979 131.358 97.7027 130.161 97.7027 128.685C97.7027 127.209 98.8979 126.013 100.373 126.013C101.848 126.013 103.043 127.209 103.043 128.685Z" fill="#DEE0E3"/>
<path fill-rule="evenodd" clip-rule="evenodd" d="M103.043 146.674C103.043 148.15 101.848 149.346 100.373 149.346C98.8979 149.346 97.7027 148.15 97.7027 146.674C97.7027 145.198 98.8979 144.001 100.373 144.001C101.848 144.001 103.043 145.198 103.043 146.674Z" fill="#DEE0E3"/>
<path fill-rule="evenodd" clip-rule="evenodd" d="M103.043 164.659C103.043 166.135 101.848 167.332 100.373 167.332C98.8979 167.332 97.7027 166.135 97.7027 164.659C97.7027 163.183 98.8979 161.987 100.373 161.987C101.848 161.987 103.043 163.183 103.043 164.659Z" fill="#DEE0E3"/>
<path fill-rule="evenodd" clip-rule="evenodd" d="M103.043 182.648C103.043 184.124 101.848 185.32 100.373 185.32C98.8979 185.32 97.7027 184.124 97.7027 182.648C97.7027 181.172 98.8979 179.976 100.373 179.976C101.848 179.976 103.043 181.172 103.043 182.648Z" fill="#DEE0E3"/>
<path fill-rule="evenodd" clip-rule="evenodd" d="M85.377 38.7427C85.377 40.2189 84.1818 41.4151 82.7068 41.4151C81.2319 41.4151 80.0367 40.2189 80.0367 38.7427C80.0367 37.2665 81.2319 36.0703 82.7068 36.0703C84.1818 36.0703 85.377 37.2665 85.377 38.7427Z" fill="#DEE0E3"/>
<path fill-rule="evenodd" clip-rule="evenodd" d="M85.377 56.7311C85.377 58.2073 84.1818 59.4035 82.7068 59.4035C81.2319 59.4035 80.0367 58.2073 80.0367 56.7311C80.0367 55.2549 81.2319 54.0587 82.7068 54.0587C84.1818 54.0587 85.377 55.2549 85.377 56.7311Z" fill="#DEE0E3"/>
<path fill-rule="evenodd" clip-rule="evenodd" d="M85.377 74.7198C85.377 76.196 84.1818 77.3922 82.7068 77.3922C81.2319 77.3922 80.0367 76.196 80.0367 74.7198C80.0367 73.2436 81.2319 72.0474 82.7068 72.0474C84.1818 72.0474 85.377 73.2436 85.377 74.7198Z" fill="#DEE0E3"/>
<path fill-rule="evenodd" clip-rule="evenodd" d="M85.377 92.7084C85.377 94.1846 84.1818 95.3808 82.7068 95.3808C81.2319 95.3808 80.0367 94.1846 80.0367 92.7084C80.0367 91.2322 81.2319 90.036 82.7068 90.036C84.1818 90.036 85.377 91.2322 85.377 92.7084Z" fill="#DEE0E3"/>
<path fill-rule="evenodd" clip-rule="evenodd" d="M85.377 110.697C85.377 112.173 84.1818 113.369 82.7068 113.369C81.2319 113.369 80.0367 112.173 80.0367 110.697C80.0367 109.22 81.2319 108.024 82.7068 108.024C84.1818 108.024 85.377 109.22 85.377 110.697Z" fill="#DEE0E3"/>
<path fill-rule="evenodd" clip-rule="evenodd" d="M85.377 128.685C85.377 130.161 84.1818 131.358 82.7068 131.358C81.2319 131.358 80.0367 130.161 80.0367 128.685C80.0367 127.209 81.2319 126.013 82.7068 126.013C84.1818 126.013 85.377 127.209 85.377 128.685Z" fill="#DEE0E3"/>
<path fill-rule="evenodd" clip-rule="evenodd" d="M85.377 146.674C85.377 148.15 84.1818 149.346 82.7068 149.346C81.2319 149.346 80.0367 148.15 80.0367 146.674C80.0367 145.198 81.2319 144.001 82.7068 144.001C84.1818 144.001 85.377 145.198 85.377 146.674Z" fill="#DEE0E3"/>
<path fill-rule="evenodd" clip-rule="evenodd" d="M85.377 164.659C85.377 166.135 84.1818 167.332 82.7068 167.332C81.2319 167.332 80.0367 166.135 80.0367 164.659C80.0367 163.183 81.2319 161.987 82.7068 161.987C84.1818 161.987 85.377 163.183 85.377 164.659Z" fill="#DEE0E3"/>
<path fill-rule="evenodd" clip-rule="evenodd" d="M85.377 182.648C85.377 184.124 84.1818 185.32 82.7068 185.32C81.2319 185.32 80.0367 184.124 80.0367 182.648C80.0367 181.172 81.2319 179.976 82.7068 179.976C84.1818 179.976 85.377 181.172 85.377 182.648Z" fill="#DEE0E3"/>
<path fill-rule="evenodd" clip-rule="evenodd" d="M67.7148 38.7427C67.7148 40.2189 66.5197 41.4151 65.0447 41.4151C63.5698 41.4151 62.3746 40.2189 62.3746 38.7427C62.3746 37.2665 63.5698 36.0703 65.0447 36.0703C66.5197 36.0703 67.7148 37.2665 67.7148 38.7427Z" fill="#DEE0E3"/>
<path fill-rule="evenodd" clip-rule="evenodd" d="M67.7148 56.7311C67.7148 58.2073 66.5197 59.4035 65.0447 59.4035C63.5698 59.4035 62.3746 58.2073 62.3746 56.7311C62.3746 55.2549 63.5698 54.0587 65.0447 54.0587C66.5197 54.0587 67.7148 55.2549 67.7148 56.7311Z" fill="#DEE0E3"/>
<path fill-rule="evenodd" clip-rule="evenodd" d="M67.7148 74.7198C67.7148 76.196 66.5197 77.3922 65.0447 77.3922C63.5698 77.3922 62.3746 76.196 62.3746 74.7198C62.3746 73.2436 63.5698 72.0474 65.0447 72.0474C66.5197 72.0474 67.7148 73.2436 67.7148 74.7198Z" fill="#DEE0E3"/>
<path fill-rule="evenodd" clip-rule="evenodd" d="M67.7148 92.7084C67.7148 94.1846 66.5197 95.3808 65.0447 95.3808C63.5698 95.3808 62.3746 94.1846 62.3746 92.7084C62.3746 91.2322 63.5698 90.036 65.0447 90.036C66.5197 90.036 67.7148 91.2322 67.7148 92.7084Z" fill="#DEE0E3"/>
<path fill-rule="evenodd" clip-rule="evenodd" d="M67.7148 110.697C67.7148 112.173 66.5197 113.369 65.0447 113.369C63.5698 113.369 62.3746 112.173 62.3746 110.697C62.3746 109.22 63.5698 108.024 65.0447 108.024C66.5197 108.024 67.7148 109.22 67.7148 110.697Z" fill="#DEE0E3"/>
<path fill-rule="evenodd" clip-rule="evenodd" d="M67.7148 128.685C67.7148 130.161 66.5197 131.358 65.0447 131.358C63.5698 131.358 62.3746 130.161 62.3746 128.685C62.3746 127.209 63.5698 126.013 65.0447 126.013C66.5197 126.013 67.7148 127.209 67.7148 128.685Z" fill="#DEE0E3"/>
<path fill-rule="evenodd" clip-rule="evenodd" d="M67.7148 146.674C67.7148 148.15 66.5197 149.346 65.0447 149.346C63.5698 149.346 62.3746 148.15 62.3746 146.674C62.3746 145.198 63.5698 144.001 65.0447 144.001C66.5197 144.001 67.7148 145.198 67.7148 146.674Z" fill="#DEE0E3"/>
<path fill-rule="evenodd" clip-rule="evenodd" d="M67.7148 164.659C67.7148 166.135 66.5197 167.332 65.0447 167.332C63.5698 167.332 62.3746 166.135 62.3746 164.659C62.3746 163.183 63.5698 161.987 65.0447 161.987C66.5197 161.987 67.7148 163.183 67.7148 164.659Z" fill="#DEE0E3"/>
<path fill-rule="evenodd" clip-rule="evenodd" d="M67.7148 182.648C67.7148 184.124 66.5197 185.32 65.0447 185.32C63.5698 185.32 62.3746 184.124 62.3746 182.648C62.3746 181.172 63.5698 179.976 65.0447 179.976C66.5197 179.976 67.7148 181.172 67.7148 182.648Z" fill="#DEE0E3"/>
<path d="M189.028 201.448C184.053 200.322 180.171 196.562 179.008 191.751L176 179.32L172.992 191.751C171.829 196.566 167.943 200.322 162.972 201.448L150.125 204.358L162.972 207.269C167.947 208.395 171.829 212.155 172.992 216.965L176 229.396L179.008 216.965C180.171 212.151 184.057 208.395 189.028 207.269L201.875 204.358L189.028 201.448Z" fill="#E2C89F"/>
<rect x="190.625" y="343.5" width="50.9969" height="51.0016" rx="5.15601" fill="white"/>
<path d="M235.956 343.5C237.458 343.5 238.9 344.097 239.962 345.16C241.025 346.223 241.622 347.664 241.622 349.167V388.835C241.622 390.338 241.025 391.779 239.962 392.842C238.9 393.905 237.458 394.502 235.956 394.502H196.291C194.789 394.502 193.347 393.905 192.285 392.842C191.222 391.779 190.625 390.338 190.625 388.835V349.167C190.625 347.664 191.222 346.223 192.285 345.16C193.347 344.097 194.789 343.5 196.291 343.5H235.956ZM234.539 387.418V372.401C234.539 369.951 233.566 367.602 231.834 365.869C230.102 364.137 227.752 363.164 225.303 363.164C222.895 363.164 220.09 364.637 218.73 366.847V363.702H210.825V387.418H218.73V373.449C218.73 371.268 220.487 369.482 222.668 369.482C223.72 369.482 224.729 369.9 225.473 370.644C226.217 371.388 226.634 372.397 226.634 373.449V387.418H234.539ZM201.618 359.254C202.88 359.254 204.091 358.752 204.983 357.86C205.876 356.967 206.377 355.756 206.377 354.494C206.377 351.859 204.252 349.705 201.618 349.705C200.348 349.705 199.13 350.21 198.232 351.108C197.334 352.006 196.83 353.224 196.83 354.494C196.83 357.129 198.983 359.254 201.618 359.254ZM205.556 387.418V363.702H197.708V387.418H205.556Z" fill="#0E0F0F"/>
</svg>
