<svg width="289" height="358" viewBox="0 0 289 358" fill="none" xmlns="http://www.w3.org/2000/svg">
<path d="M144.255 70.3371L187.588 4L185.466 84.383L257.711 57.4295L210.946 121.155L284.5 143.88L210.946 166.595L257.711 230.321L185.466 203.367L187.588 283.75L144.255 217.413L100.912 283.75L103.034 203.367L30.7891 230.321L77.5536 166.595L4 143.88L77.5536 121.155L30.7891 57.4295L103.034 84.383L100.912 4L144.255 70.3371Z" stroke="#DEE0E3" stroke-width="2.25" stroke-miterlimit="10"/>
<path d="M72.0954 347.954C70.2929 347.549 68.8863 346.198 68.4648 344.468L67.375 340L66.2852 344.468C65.8637 346.199 64.4558 347.549 62.6546 347.954L58 349L62.6546 350.046C64.4571 350.451 65.8637 351.802 66.2852 353.532L67.375 358L68.4648 353.532C68.8863 351.801 70.2942 350.451 72.0954 350.046L76.75 349L72.0954 347.954Z" fill="#0E0F0F"/>
<rect x="51.25" y="25.75" width="32.247" height="32.25" rx="4.03106" fill="white"/>
<path d="M79.914 25.75C80.8643 25.75 81.7756 26.1275 82.4476 26.7995C83.1195 27.4715 83.497 28.383 83.497 29.3333V54.4167C83.497 55.367 83.1195 56.2785 82.4476 56.9505C81.7756 57.6225 80.8643 58 79.914 58H54.833C53.8827 58 52.9714 57.6225 52.2994 56.9505C51.6275 56.2785 51.25 55.367 51.25 54.4167V29.3333C51.25 28.383 51.6275 27.4715 52.2994 26.7995C52.9714 26.1275 53.8827 25.75 54.833 25.75H79.914ZM79.0183 53.5208V44.025C79.0183 42.4759 78.4029 40.9903 77.3077 39.8949C76.2124 38.7995 74.7269 38.1842 73.178 38.1842C71.6552 38.1842 69.8816 39.1158 69.0217 40.5133V38.5246H64.0234V53.5208H69.0217V44.6879C69.0217 43.3083 70.1324 42.1796 71.5119 42.1796C72.1771 42.1796 72.815 42.4439 73.2854 42.9143C73.7557 43.3847 74.02 44.0227 74.02 44.6879V53.5208H79.0183ZM58.201 35.7117C58.9993 35.7117 59.7648 35.3945 60.3292 34.8301C60.8937 34.2656 61.2107 33.5 61.2107 32.7017C61.2107 31.0354 59.8671 29.6737 58.201 29.6737C57.398 29.6737 56.628 29.9928 56.0602 30.5606C55.4924 31.1285 55.1734 31.8986 55.1734 32.7017C55.1734 34.3679 56.5349 35.7117 58.201 35.7117ZM60.6912 53.5208V38.5246H55.7288V53.5208H60.6912Z" fill="#D1B697"/>
</svg>
