<svg width="46" height="46" viewBox="0 0 46 46" fill="none" xmlns="http://www.w3.org/2000/svg">
<ellipse cx="16.5" cy="16.6813" rx="16.5" ry="16.6813" fill="#E2C89F"/>
<path d="M20.667 12.3542H15.917C13.9495 12.3542 12.3545 13.9492 12.3545 15.9167V38.0834C12.3545 40.0509 13.9495 41.6459 15.917 41.6459H20.667C22.6345 41.6459 24.2295 40.0509 24.2295 38.0834V15.9167C24.2295 13.9492 22.6345 12.3542 20.667 12.3542Z" stroke="#1B1B1B" stroke-width="2.375"/>
<path d="M38.083 12.3542H33.333C31.3655 12.3542 29.7705 13.9492 29.7705 15.9167V20.6667C29.7705 22.6342 31.3655 24.2292 33.333 24.2292H38.083C40.0505 24.2292 41.6455 22.6342 41.6455 20.6667V15.9167C41.6455 13.9492 40.0505 12.3542 38.083 12.3542Z" stroke="#1B1B1B" stroke-width="2.375"/>
<path d="M38.083 29.7708H33.333C31.3655 29.7708 29.7705 31.3658 29.7705 33.3333V38.0833C29.7705 40.0508 31.3655 41.6458 33.333 41.6458H38.083C40.0505 41.6458 41.6455 40.0508 41.6455 38.0833V33.3333C41.6455 31.3658 40.0505 29.7708 38.083 29.7708Z" stroke="#1B1B1B" stroke-width="2.375"/>
</svg>
