<svg width="46" height="49" viewBox="0 0 46 49" fill="none" xmlns="http://www.w3.org/2000/svg">
<ellipse cx="16.5" cy="16.6813" rx="16.5" ry="16.6813" fill="#C8CCD1"/>
<path fill-rule="evenodd" clip-rule="evenodd" d="M18.2731 15.4574C12.4597 17.329 9.86676 23.6755 11.8158 29.7299C12.8048 32.5809 14.4133 35.1433 16.5265 37.2456C19.4256 40.0611 22.6105 42.5389 26.0342 44.6443L26.423 44.8771C26.7953 45.0999 27.2612 45.096 27.6297 44.8669L27.9927 44.6414C31.4117 42.5389 34.5966 40.0611 37.4857 37.2553C39.6089 35.1433 41.2174 32.5809 42.1981 29.7547C44.1542 23.6792 41.5506 17.3297 35.7354 15.4575L35.3148 15.3322C32.6486 14.5989 29.8154 14.9603 27.427 16.3125L27.0024 16.5642L26.5854 16.3139C24.0662 14.8845 21.0554 14.5624 18.2731 15.4574ZM26.0201 18.6858L26.3316 18.9092C26.7422 19.2033 27.2962 19.1975 27.7006 18.8948C29.8064 17.3183 32.5317 16.8595 35.0284 17.6605C39.5339 19.111 41.5843 24.1114 40.0037 29.0214C39.1464 31.491 37.7273 33.7517 35.8637 35.6057L35.0277 36.3999C32.7752 38.4931 30.3393 40.3881 27.753 42.0579L27.0122 42.5238L27.2383 42.6663C23.971 40.657 20.9203 38.2837 18.1528 35.5959C16.2991 33.7517 14.88 31.491 14.0144 28.9966C12.4405 24.1067 14.4821 19.1099 18.9852 17.6601C21.363 16.8952 23.9553 17.2745 26.0201 18.6858ZM33.1301 21.2658C32.5209 21.0713 31.8693 21.4071 31.6747 22.0159C31.4801 22.6246 31.8162 23.2757 32.4254 23.4701C33.6228 23.8523 34.4765 24.9301 34.5834 26.2014C34.637 26.8381 35.1971 27.3109 35.8344 27.2574C36.4717 27.2039 36.9449 26.6443 36.8913 26.0075C36.7061 23.8068 35.2224 21.9336 33.1301 21.2658Z" fill="#200E32"/>
</svg>
