<svg width="49" height="46" viewBox="0 0 49 46" fill="none" xmlns="http://www.w3.org/2000/svg">
<ellipse cx="16.5" cy="16.6813" rx="16.5" ry="16.6813" fill="#E899B0"/>
<path fill-rule="evenodd" clip-rule="evenodd" d="M26.1891 11.9578C21.6799 11.9578 18.0602 15.578 18.0602 20.0866C18.0602 24.5965 21.6796 28.217 26.1891 28.217C30.6987 28.217 34.3195 24.5963 34.3195 20.0866C34.3195 15.5782 30.6984 11.9578 26.1891 11.9578ZM26.1891 14.3328C29.3868 14.3328 31.9445 16.89 31.9445 20.0866C31.9445 23.2846 29.387 25.842 26.1891 25.842C22.9914 25.842 20.4352 23.285 20.4352 20.0866C20.4352 16.8896 22.9916 14.3328 26.1891 14.3328ZM42.7837 20.0591C42.7837 16.5211 39.9146 13.6513 36.376 13.6513C35.7201 13.6513 35.1885 14.183 35.1885 14.8388C35.1885 15.4947 35.7201 16.0263 36.376 16.0263C38.6028 16.0263 40.4087 17.8326 40.4087 20.0591C40.4087 22.2865 38.6034 24.0918 36.376 24.0918C35.7201 24.0918 35.1885 24.6235 35.1885 25.2793C35.1885 25.9352 35.7201 26.4668 36.376 26.4668C39.9151 26.4668 42.7837 23.5982 42.7837 20.0591ZM41.5677 30.1567C40.6895 29.962 39.7756 29.8302 38.8563 29.7677C38.202 29.7232 37.6355 30.2176 37.591 30.8719C37.5465 31.5262 38.0409 32.0927 38.6952 32.1372C39.4957 32.1917 40.2918 32.3065 41.0793 32.4808C42.309 32.7257 43.1234 33.1325 43.3436 33.5945C43.5096 33.9438 43.5096 34.3531 43.3431 34.7034C43.1243 35.1639 42.3141 35.5698 41.0968 35.8202C40.4544 35.9524 40.0407 36.5802 40.1729 37.2226C40.305 37.865 40.9329 38.2787 41.5753 38.1465C43.467 37.7574 44.851 37.064 45.4882 35.7228C45.9613 34.7275 45.9613 33.5693 45.4881 32.5739C44.8473 31.2294 43.4488 30.5309 41.5677 30.1567ZM14.1748 36.5288C14.1748 32.3733 18.541 30.889 26.1939 30.889L26.7002 30.8912C34.0539 30.9552 38.2146 32.4404 38.2146 36.4972C38.2146 40.468 34.2269 41.9998 27.1948 42.1281L26.1939 42.137C18.5237 42.137 14.1748 40.679 14.1748 36.5288ZM35.8396 36.4972C35.8396 34.3632 32.5612 33.264 26.1939 33.264C19.8331 33.264 16.5498 34.3802 16.5498 36.5288C16.5498 38.6639 19.8252 39.762 26.1939 39.762C32.5551 39.762 35.8396 38.6457 35.8396 36.4972Z" fill="#200E32"/>
</svg>
