<svg width="36" height="36" viewBox="0 0 36 36" fill="none" xmlns="http://www.w3.org/2000/svg">
<g id="Icon/Fill/AddUser">
<path id="Add User" fill-rule="evenodd" clip-rule="evenodd" d="M14.0086 19.171C18.4464 19.171 22.0028 15.6146 22.0028 11.1768C22.0028 6.73898 18.4464 3.18262 14.0086 3.18262C9.57237 3.18262 6.0144 6.73898 6.0144 11.1768C6.0144 15.6146 9.57237 19.171 14.0086 19.171ZM14.7353 22.078C8.46391 22.078 3.10742 22.9473 3.10742 26.4221C3.10742 29.8996 8.42985 30.7989 14.7353 30.7989C21.0068 30.7989 26.3632 29.9295 26.3632 26.4548C26.3632 22.9773 21.0408 22.078 14.7353 22.078ZM23.8818 17.2918C23.6186 17.0287 23.4563 16.6649 23.4563 16.2641C23.4563 15.4603 24.1058 14.8108 24.9095 14.8108H26.3632V13.3568C26.3632 12.5531 27.0128 11.9035 27.8165 11.9035C28.6202 11.9035 29.2698 12.5531 29.2698 13.3568V14.8108H30.7239C31.5276 14.8108 32.1772 15.4603 32.1772 16.2641C32.1772 17.0678 31.5276 17.7173 30.7239 17.7173H29.2698V19.1712C29.2698 19.9749 28.6202 20.6245 27.8165 20.6245C27.4157 20.6245 27.0518 20.4621 26.7887 20.199C26.5256 19.9359 26.3632 19.572 26.3632 19.1712V17.7173H24.9095C24.5087 17.7173 24.1449 17.5549 23.8818 17.2918Z" fill="#19B6B1"/>
</g>
</svg>
