<svg width="198" height="58" viewBox="0 0 198 58" fill="none" xmlns="http://www.w3.org/2000/svg">
<g opacity="0.7">
<path d="M29.3354 31.8729L1.17169 53.6883L1.17169 53.6883L1.16934 53.6902C0.425856 54.2732 0.276641 55.3494 0.86107 56.1094C1.19732 56.55 1.70672 56.7833 2.22294 56.7833C2.59458 56.7833 2.96571 56.6618 3.27506 56.4206C3.27524 56.4204 3.27542 56.4203 3.2756 56.4202L32.9911 33.4072L32.9911 33.4073L32.9979 33.4018C33.3803 33.0949 33.6197 32.642 33.654 32.1522C33.6886 31.6576 33.5066 31.1734 33.1551 30.8208L33.1551 30.8207L3.44041 1.0138C3.44 1.01338 3.43959 1.01296 3.43918 1.01255C2.76758 0.331443 1.67971 0.331104 1.0077 1.01153C0.330426 1.68486 0.330767 2.77347 1.00872 3.44639C1.00914 3.4468 1.00955 3.44721 1.00996 3.44762L29.3354 31.8729Z" fill="#DEE0E3" stroke="#DEE0E3"/>
<path d="M34.994 56.7834H35.494V56.7023C35.6898 56.6423 35.8772 56.5462 36.0462 56.4145C36.0463 56.4143 36.0465 56.4142 36.0467 56.4141L65.7561 33.4011L65.7561 33.4012L65.7629 33.3958C66.1453 33.0888 66.3847 32.6359 66.4189 32.1461C66.4535 31.6515 66.2715 31.1673 65.9201 30.8147L36.2092 1.00548C35.5375 0.331508 34.4444 0.331508 33.7727 1.00548C33.1018 1.67853 33.1018 2.77238 33.7727 3.44543L62.1064 31.873L33.9427 53.6884L33.9427 53.6884L33.9404 53.6902C33.1969 54.2733 33.0477 55.3495 33.6321 56.1095C33.9684 56.55 34.4778 56.7834 34.994 56.7834Z" fill="#DEE0E3" stroke="#DEE0E3"/>
<path d="M67.7574 56.7834H67.965L67.9856 56.7627C68.2809 56.7239 68.5681 56.6075 68.8157 56.4145C68.8158 56.4143 68.816 56.4142 68.8162 56.4141L98.5256 33.4011L98.5256 33.4012L98.5324 33.3958C98.9148 33.0888 99.1542 32.6359 99.1884 32.1461C99.223 31.6515 99.041 31.1673 98.6896 30.8147L68.9787 1.00548C68.307 0.331508 67.2139 0.331508 66.5422 1.00548C65.8713 1.67852 65.8713 2.77234 66.5421 3.4454C66.5421 3.44541 66.5421 3.44542 66.5422 3.44543L94.8698 31.873L66.7061 53.6884L66.7061 53.6884L66.7038 53.6902C65.9603 54.2733 65.8111 55.3495 66.3955 56.1095C66.7318 56.55 67.2412 56.7834 67.7574 56.7834Z" fill="#DEE0E3" stroke="#DEE0E3"/>
<path d="M100.529 56.7834H101.029V56.7023C101.225 56.6423 101.412 56.5462 101.581 56.4145C101.582 56.4143 101.582 56.4142 101.582 56.4141L131.291 33.4011L131.291 33.4012L131.298 33.3958C131.68 33.0888 131.92 32.6359 131.954 32.1461C131.989 31.6515 131.807 31.1673 131.455 30.8147L101.744 1.00548C101.073 0.331508 99.9796 0.331508 99.3078 1.00548C98.637 1.67853 98.637 2.77238 99.3078 3.44543L127.642 31.873L99.4779 53.6884L99.4779 53.6884L99.4755 53.6902C98.7321 54.2733 98.5829 55.3495 99.1673 56.1095C99.5035 56.55 100.013 56.7834 100.529 56.7834Z" fill="#DEE0E3" stroke="#DEE0E3"/>
<path d="M133.299 56.7834H133.799V56.7023C133.995 56.6423 134.182 56.5462 134.351 56.4145C134.351 56.4143 134.351 56.4142 134.351 56.4141L164.061 33.4011L164.061 33.4012L164.068 33.3958C164.45 33.0888 164.689 32.6359 164.724 32.1461C164.758 31.6515 164.576 31.1673 164.225 30.8147L134.514 1.00548C133.842 0.331508 132.749 0.331508 132.077 1.00548C131.407 1.67853 131.407 2.77238 132.077 3.44543L160.411 31.873L132.247 53.6884L132.247 53.6884L132.245 53.6902C131.502 54.2733 131.352 55.3495 131.937 56.1095C132.273 56.55 132.782 56.7834 133.299 56.7834Z" fill="#DEE0E3" stroke="#DEE0E3"/>
<path d="M166.064 56.7834H166.272L166.292 56.7627C166.587 56.724 166.875 56.6076 167.122 56.4145C167.122 56.4144 167.123 56.4142 167.123 56.4141L196.832 33.4011L196.832 33.4012L196.839 33.3958C197.221 33.0888 197.461 32.6359 197.495 32.1461C197.53 31.6515 197.348 31.1673 196.996 30.8147L167.285 1.00548L166.931 1.35845L167.285 1.00548C166.614 0.331508 165.521 0.331508 164.849 1.00548C164.178 1.67852 164.178 2.77234 164.849 3.4454C164.849 3.44541 164.849 3.44542 164.849 3.44543L193.176 31.873L165.013 53.6884L165.013 53.6884L165.01 53.6902C164.267 54.2733 164.118 55.3495 164.702 56.1095C165.038 56.55 165.548 56.7834 166.064 56.7834Z" fill="#DEE0E3" stroke="#DEE0E3"/>
</g>
</svg>
