<svg width="86" height="84" viewBox="0 0 86 84" fill="none" xmlns="http://www.w3.org/2000/svg">
<path d="M73.3394 21.8067C68.4366 20.6974 64.6107 16.9917 63.4643 12.251L60.5 0L57.5356 12.251C56.3893 16.9953 52.5598 20.6974 47.6606 21.8067L35 24.6751L47.6606 27.5436C52.5634 28.6528 56.3893 32.3585 57.5356 37.0992L60.5 49.3503L63.4643 37.0992C64.6107 32.355 68.4402 28.6528 73.3394 27.5436L86 24.6751L73.3394 21.8067Z" fill="#19B6B1"/>
<path d="M18.7938 69.7164C16.3905 69.1727 14.515 67.3561 13.9531 65.0323L12.5 59.0269L11.0469 65.0323C10.485 67.3579 8.60773 69.1727 6.20616 69.7164L0 71.1225L6.20616 72.5286C8.60952 73.0724 10.485 74.8889 11.0469 77.2128L12.5 83.2182L13.9531 77.2128C14.515 74.8871 16.3923 73.0724 18.7938 72.5286L25 71.1225L18.7938 69.7164Z" fill="#19B6B1"/>
</svg>
