<svg width="526" height="471" viewBox="0 0 526 471" fill="none" xmlns="http://www.w3.org/2000/svg">
<g opacity="0.3" clip-path="url(#clip0_810_18185)">
<path d="M121.809 140.795C131.91 132.847 146.494 127.014 168.078 124.536C146.494 122.058 131.91 116.225 121.809 108.276C113.85 98.1885 108.009 83.6239 105.528 62.0692C103.046 83.6239 97.2057 98.1885 89.2464 108.276C79.1452 116.225 64.5611 122.058 42.9775 124.536C64.5611 127.014 79.1452 132.847 89.2464 140.795C97.2057 150.883 103.046 165.447 105.528 187.002C108.009 165.447 113.85 150.883 121.809 140.795Z" fill="#C8CCD1"/>
<path d="M362.169 319.521C372.271 311.573 386.855 305.74 408.438 303.262C386.855 300.784 372.271 294.951 362.169 287.002C354.21 276.914 348.37 262.35 345.888 240.795C343.407 262.35 337.566 276.914 329.607 287.002C319.506 294.951 304.921 300.784 283.338 303.262C304.921 305.74 319.506 311.573 329.607 319.521C337.566 329.609 343.407 344.173 345.888 365.728C348.37 344.173 354.21 329.609 362.169 319.521Z" fill="#C8CCD1"/>
<path d="M329.012 328.574C403.743 253.943 403.743 132.942 329.012 58.311C254.281 -16.32 133.118 -16.32 58.3869 58.311C-16.3442 132.942 -16.3442 253.943 58.3869 328.574C133.118 403.205 254.281 403.205 329.012 328.574Z" stroke="#C8CCD1" stroke-width="5.85695" stroke-miterlimit="10"/>
<path d="M393.937 372.213C468.668 297.582 468.668 176.581 393.937 101.95C319.206 27.3188 198.043 27.3188 123.312 101.95C48.5806 176.581 48.5806 297.582 123.312 372.213C198.043 446.844 319.206 446.844 393.937 372.213Z" stroke="#C8CCD1" stroke-width="5.85695" stroke-miterlimit="10"/>
<path d="M332.298 468.674C437.983 468.674 523.659 383.113 523.659 277.569C523.659 172.025 437.983 86.4642 332.298 86.4642C226.612 86.4642 140.937 172.025 140.937 277.569C140.937 383.113 226.612 468.674 332.298 468.674Z" stroke="#C8CCD1" stroke-width="5.85695" stroke-miterlimit="10"/>
</g>
<defs>
<clipPath id="clip0_810_18185">
<rect width="526" height="471" fill="white"/>
</clipPath>
</defs>
</svg>
