<svg width="46" height="46" viewBox="0 0 46 46" fill="none" xmlns="http://www.w3.org/2000/svg">
<ellipse cx="16.5" cy="16.6813" rx="16.5" ry="16.6813" fill="#E899B0"/>
<path fill-rule="evenodd" clip-rule="evenodd" d="M34.6339 15.2539C34.6339 12.9966 36.4695 11.1667 38.7338 11.1667C40.9981 11.1667 42.8337 12.9966 42.8337 15.2539C42.8337 17.5112 40.9981 19.3411 38.7338 19.3411C36.4695 19.3411 34.6339 17.5112 34.6339 15.2539ZM40.5322 15.2539C40.5322 14.2637 39.727 13.461 38.7337 13.461C37.7405 13.461 36.9353 14.2637 36.9353 15.2539C36.9353 16.2441 37.7405 17.0468 38.7337 17.0468C39.727 17.0468 40.5322 16.2441 40.5322 15.2539ZM32.5859 23.1054C32.9751 22.6046 33.6979 22.5131 34.2003 22.9012C34.657 23.2539 34.7743 23.8815 34.4994 24.369L34.4051 24.5106L29.9111 30.2927C29.5556 30.7501 28.9223 30.8657 28.4328 30.5875L28.2907 30.4921L23.9658 27.1058L20.083 32.1376C19.7307 32.5941 19.1016 32.7131 18.6117 32.4408L18.4693 32.3472C18.0114 31.996 17.892 31.3689 18.1652 30.8805L18.259 30.7385L22.8513 24.7885C23.2061 24.3287 23.841 24.2117 24.3316 24.4904L24.4741 24.5859L28.8003 27.9745L32.5859 23.1054ZM32.1043 13.6019C32.1043 12.9683 31.5891 12.4547 30.9536 12.4547H19.8029L19.4436 12.4607C14.4527 12.6279 11.167 16.2819 11.167 21.47V33.8321L11.1725 34.2013C11.3263 39.3307 14.6929 42.8334 19.8029 42.8334H33.004L33.3635 42.8274C38.3561 42.6608 41.6399 39.0178 41.6399 33.8321V23.066L41.6294 22.9103C41.5532 22.3504 41.0718 21.9189 40.4892 21.9189C39.8537 21.9189 39.3385 22.4324 39.3385 23.066V33.8321L39.3322 34.1882C39.1931 38.0625 36.7734 40.5391 33.004 40.5391H19.8029L19.4611 40.5324C15.7444 40.3845 13.4684 37.8127 13.4684 33.8321V21.47L13.4747 21.1136C13.614 17.2353 16.0368 14.749 19.8029 14.749H30.9536L31.1097 14.7385C31.6714 14.6626 32.1043 14.1826 32.1043 13.6019Z" fill="#0E0F0F"/>
</svg>
