<svg width="44" height="44" viewBox="0 0 44 44" fill="none" xmlns="http://www.w3.org/2000/svg">
<g id="Arrow - Down Circle">
<circle id="Ellipse 312" cx="22" cy="22" r="22" fill="white"/>
<path id="Arrow - Down Circle_2"  transform="translate(4, 4)" d="M18.0008 35.1109C8.55543 35.1109 0.889648 27.428 0.889648 17.9998C0.889648 8.55445 8.55543 0.888672 18.0008 0.888672C27.429 0.888672 35.1119 8.55445 35.1119 17.9998C35.1119 27.428 27.429 35.1109 18.0008 35.1109ZM24.8452 14.6118C24.3319 14.1155 23.5277 14.1155 23.0314 14.6289L18.0008 19.6767L12.9701 14.6289C12.4739 14.1155 11.6525 14.1155 11.1563 14.6118C10.643 15.1251 10.643 15.9293 11.1563 16.4255L17.0939 22.3973C17.3334 22.6369 17.6585 22.7738 18.0008 22.7738C18.343 22.7738 18.6681 22.6369 18.9076 22.3973L24.8452 16.4255C25.1019 16.186 25.2216 15.8609 25.2216 15.5358C25.2216 15.1935 25.1019 14.8684 24.8452 14.6118Z" fill="#0E0F0F"/>
</g>
</svg>
