<svg width="46" height="46" viewBox="0 0 46 46" fill="none" xmlns="http://www.w3.org/2000/svg">
<ellipse cx="16.5" cy="16.6813" rx="16.5" ry="16.6813" fill="#19B6B1"/>
<path fill-rule="evenodd" clip-rule="evenodd" d="M16.5885 40.7749C17.0065 41.5555 17.8219 42.0432 18.7085 42.0416C19.0822 42.0432 19.4527 41.9561 19.7852 41.7883L26.9925 38.0199C27.0115 38.0088 27.0337 38.0025 27.0559 38.0041L34.2141 41.7408C34.5609 41.9276 34.9488 42.0242 35.3415 42.0226C35.4665 42.0226 35.5932 42.0115 35.7167 41.9941C37.0055 41.7835 37.8859 40.577 37.6959 39.2866L36.3025 31.3541C36.2945 31.3425 36.2923 31.3419 36.2917 31.3406C36.2915 31.3401 36.2915 31.3395 36.2915 31.3383C36.2915 31.3335 36.3025 31.3224 36.3025 31.3224L42.1134 25.7016C42.9715 24.8735 43.0808 23.5388 42.3667 22.5824C41.9788 22.0821 41.4104 21.7528 40.7834 21.6641L32.7685 20.5083C32.7543 20.5083 32.7385 20.4924 32.7226 20.4766L29.1427 13.2883C28.739 12.476 27.9125 11.963 27.0052 11.9583C26.7424 11.9583 26.4795 11.9994 26.2294 12.0849C25.6293 12.2892 25.1337 12.7198 24.8519 13.2883L21.2767 20.456C21.2767 20.4893 21.2435 20.5035 21.2118 20.5035L13.216 21.6593C12.7267 21.7417 12.2707 21.9602 11.9018 22.2927C11.4347 22.7503 11.1719 23.3788 11.1719 24.0343C11.1735 24.6566 11.4236 25.2519 11.8685 25.6858L17.7269 31.3224C17.7395 31.3351 17.7443 31.3525 17.7443 31.3699L16.3335 39.2708C16.2496 39.7869 16.3399 40.3158 16.5885 40.7749ZM26.9596 14.2809L26.9754 14.2699H27.0055L27.0197 14.2841C27.034 14.2841 27.0467 14.2873 27.0577 14.2968C27.0672 14.3063 27.072 14.3189 27.0704 14.3332L30.6487 21.4883C30.9923 22.1929 31.6605 22.6837 32.4363 22.8024L40.4512 23.9678C40.4654 23.9678 40.4797 23.9709 40.4923 23.9773C40.5002 23.9789 40.5066 23.9789 40.5145 23.9773L40.5303 23.9915L40.5145 24.0264L34.7037 29.6614C34.1257 30.2029 33.8677 31.0041 34.0212 31.7815L35.4162 39.6681L35.3845 39.6982H35.3512C35.3449 39.7014 35.3386 39.7014 35.3322 39.6982C35.3164 39.6966 35.3006 39.6903 35.2863 39.6824H35.2721L28.1471 35.9615C27.8051 35.7842 27.4251 35.6892 27.0387 35.6908C26.6413 35.6908 26.2487 35.7905 25.8972 35.9774L18.7262 39.7378C18.7183 39.7394 18.7088 39.7394 18.7009 39.7378C18.6677 39.7378 18.6392 39.7156 18.6312 39.6839V39.6523L20.0246 31.7673C20.1544 30.9962 19.9011 30.2093 19.3437 29.6614L13.4854 24.0406C13.4838 24.0169 13.487 23.9963 13.4997 23.9757L13.5962 23.944L21.5604 22.8024C22.3362 22.6821 23.0028 22.1929 23.348 21.4883L26.9279 14.3158C26.9358 14.3015 26.9453 14.2889 26.9596 14.2809Z" fill="#200E32"/>
</svg>
