<svg width="33" height="33" viewBox="0 0 33 33" fill="none" xmlns="http://www.w3.org/2000/svg">
<g id="Frame 1077237739">
<g id="Group 4">
<path id="Vector" d="M24.2797 6.27539C24.8691 6.27539 25.4343 6.50952 25.8511 6.92626C26.2678 7.34301 26.502 7.90824 26.502 8.49761V24.0532C26.502 24.6425 26.2678 25.2078 25.8511 25.6245C25.4343 26.0413 24.8691 26.2754 24.2797 26.2754H8.72418C8.13481 26.2754 7.56957 26.0413 7.15283 25.6245C6.73608 25.2078 6.50195 24.6425 6.50195 24.0532V8.49761C6.50195 7.90824 6.73608 7.34301 7.15283 6.92626C7.56957 6.50952 8.13481 6.27539 8.72418 6.27539H24.2797ZM23.7242 23.4976V17.6087C23.7242 16.6481 23.3426 15.7267 22.6633 15.0474C21.984 14.3681 21.0626 13.9865 20.102 13.9865C19.1575 13.9865 18.0575 14.5643 17.5242 15.4309V14.1976H14.4242V23.4976H17.5242V18.0198C17.5242 17.1643 18.2131 16.4643 19.0686 16.4643C19.4812 16.4643 19.8768 16.6282 20.1686 16.9199C20.4603 17.2116 20.6242 17.6073 20.6242 18.0198V23.4976H23.7242ZM10.8131 12.4532C11.3081 12.4532 11.7829 12.2565 12.133 11.9064C12.4831 11.5564 12.6797 11.0816 12.6797 10.5865C12.6797 9.55317 11.8464 8.70872 10.8131 8.70872C10.315 8.70872 9.83743 8.90656 9.48527 9.25871C9.13312 9.61086 8.93529 10.0885 8.93529 10.5865C8.93529 11.6198 9.77973 12.4532 10.8131 12.4532ZM12.3575 23.4976V14.1976H9.27973V23.4976H12.3575Z" fill="#0E0F0F"/>
</g>
</g>
</svg>
