<svg width="34" height="34" viewBox="0 0 34 34" fill="none" xmlns="http://www.w3.org/2000/svg">
<path d="M25.9239 8.089C25.7928 7.95767 25.6371 7.85347 25.4657 7.78238C25.2944 7.71129 25.1106 7.6747 24.9251 7.6747C24.7396 7.6747 24.5558 7.71129 24.3845 7.78238C24.2131 7.85347 24.0574 7.95767 23.9264 8.089L16.9989 15.0023L10.0714 8.07483C9.94019 7.94367 9.78449 7.83963 9.61312 7.76865C9.44176 7.69767 9.25809 7.66113 9.0726 7.66113C8.88712 7.66113 8.70345 7.69767 8.53208 7.76865C8.36072 7.83963 8.20501 7.94367 8.07385 8.07483C7.94269 8.20599 7.83865 8.36169 7.76767 8.53306C7.69669 8.70442 7.66016 8.88809 7.66016 9.07358C7.66016 9.25906 7.69669 9.44273 7.76767 9.6141C7.83865 9.78546 7.94269 9.94117 8.07385 10.0723L15.0014 16.9998L8.07385 23.9273C7.94269 24.0585 7.83865 24.2142 7.76767 24.3856C7.69669 24.5569 7.66016 24.7406 7.66016 24.9261C7.66016 25.1116 7.69669 25.2952 7.76767 25.4666C7.83865 25.638 7.94269 25.7937 8.07385 25.9248C8.20501 26.056 8.36072 26.16 8.53208 26.231C8.70345 26.302 8.88712 26.3385 9.0726 26.3385C9.25809 26.3385 9.44176 26.302 9.61312 26.231C9.78449 26.16 9.94019 26.056 10.0714 25.9248L16.9989 18.9973L23.9264 25.9248C24.0575 26.056 24.2132 26.16 24.3846 26.231C24.5559 26.302 24.7396 26.3385 24.9251 26.3385C25.1106 26.3385 25.2943 26.302 25.4656 26.231C25.637 26.16 25.7927 26.056 25.9239 25.9248C26.055 25.7937 26.159 25.638 26.23 25.4666C26.301 25.2952 26.3375 25.1116 26.3375 24.9261C26.3375 24.7406 26.301 24.5569 26.23 24.3856C26.159 24.2142 26.055 24.0585 25.9239 23.9273L18.9964 16.9998L25.9239 10.0723C26.4622 9.534 26.4622 8.62733 25.9239 8.089Z" fill="#B5B7BA"/>
</svg>