<svg width="386" height="385" viewBox="0 0 386 385" fill="none" xmlns="http://www.w3.org/2000/svg">
<path d="M193.006 94.4494L250.784 6L247.954 113.177L344.281 77.2393L281.929 162.206L380 192.507L281.929 222.794L344.281 307.761L247.954 271.823L250.784 379L193.006 290.551L135.216 379L138.046 271.823L41.7187 307.761L104.071 222.794L6 192.507L104.071 162.206L41.7187 77.2393L138.046 113.177L135.216 6L193.006 94.4494Z" stroke="#DEE0E3" stroke-width="3" stroke-miterlimit="10"/>
<g filter="url(#filter0_d_498_73268)">
<rect x="123" y="231" width="88.8" height="84" rx="24" fill="white" shape-rendering="crispEdges"/>
<g filter="url(#filter1_d_498_73268)">
<rect x="123" y="231" width="88.8" height="84" rx="25.9136" fill="white"/>
</g>
<g clip-path="url(#clip0_498_73268)">
<path fill-rule="evenodd" clip-rule="evenodd" d="M171.515 253.849C171.088 253.787 170.658 253.914 170.317 254.186C169.965 254.461 169.746 254.86 169.698 255.306C169.597 256.208 170.248 257.024 171.149 257.126C177.362 257.819 182.191 262.659 182.89 268.892C182.983 269.727 183.684 270.357 184.52 270.357C184.583 270.357 184.644 270.353 184.707 270.345C185.144 270.298 185.534 270.081 185.808 269.736C186.081 269.392 186.206 268.963 186.156 268.524C185.285 260.748 179.267 254.712 171.515 253.849ZM171.635 260.522C170.722 260.354 169.884 260.936 169.711 261.827C169.537 262.717 170.121 263.587 171.009 263.761C173.681 264.282 175.744 266.351 176.267 269.032V269.034C176.416 269.806 177.096 270.367 177.878 270.367C177.983 270.367 178.088 270.358 178.195 270.339C179.083 270.16 179.667 269.293 179.493 268.4C178.712 264.395 175.63 261.302 171.635 260.522ZM174.667 278.924C175.532 278.425 176.509 277.861 177.742 278.123C178.859 278.359 182.665 281.448 183.707 282.519C184.391 283.22 184.77 283.944 184.83 284.668C184.933 287.509 181.073 290.751 180.371 291.155C179.437 291.828 178.351 292.167 177.131 292.167C175.885 292.167 174.495 291.812 172.98 291.106C164.757 287.673 152.195 275.359 148.873 267.2C147.495 264.162 147.486 261.657 148.85 259.774C149.394 258.891 152.496 255.2 155.274 255.317C156.012 255.38 156.73 255.76 157.434 256.449C158.499 257.493 161.512 261.31 161.744 262.431C162.002 263.676 161.437 264.666 160.935 265.536C160.828 265.723 160.684 265.944 160.526 266.187C159.926 267.11 159.127 268.337 159.41 269.121C161.435 274.093 166.114 278.432 171.088 280.47C171.857 280.749 173.084 279.945 174.004 279.343C174.243 279.186 174.462 279.042 174.646 278.935L174.667 278.924Z" fill="#0E0F0F"/>
</g>
</g>
<path d="M24.7938 127.605C22.3905 127.066 20.515 125.263 19.9531 122.958L18.5 117L17.0469 122.958C16.485 125.265 14.6077 127.066 12.2062 127.605L6 129L12.2062 130.395C14.6095 130.934 16.485 132.737 17.0469 135.042L18.5 141L19.9531 135.042C20.515 132.735 22.3923 130.934 24.7938 130.395L31 129L24.7938 127.605Z" fill="#0E0F0F"/>
<defs>
<filter id="filter1_d_498_73268" x="73.8" y="192.6" width="187.2" height="182.4" filterUnits="userSpaceOnUse" color-interpolation-filters="sRGB">
<feFlood flood-opacity="0" result="BackgroundImageFix"/>
<feColorMatrix in="SourceAlpha" type="matrix" values="0 0 0 0 0 0 0 0 0 0 0 0 0 0 0 0 0 0 127 0" result="hardAlpha"/>
<feOffset dy="10.8"/>
<feGaussianBlur stdDeviation="24.6"/>
<feComposite in2="hardAlpha" operator="out"/>
<feColorMatrix type="matrix" values="0 0 0 0 0.145098 0 0 0 0 0.141176 0 0 0 0 0.141176 0 0 0 0.05 0"/>
<feBlend mode="normal" in2="BackgroundImageFix" result="effect1_dropShadow_498_73268"/>
<feBlend mode="normal" in="SourceGraphic" in2="effect1_dropShadow_498_73268" result="shape"/>
</filter>
<clipPath id="clip0_498_73268">
<rect width="45.6" height="45.6" fill="white" transform="translate(144.6 250.2)"/>
</clipPath>
</defs>
</svg>
