<svg width="450" height="403" viewBox="0 0 450 403" fill="none" xmlns="http://www.w3.org/2000/svg">
<g clip-path="url(#clip0_498_73929)">
<path d="M104.07 120.45C112.7 113.65 125.16 108.66 143.6 106.54C125.16 104.42 112.7 99.43 104.07 92.63C97.2702 84 92.2802 71.54 90.1602 53.1C88.0402 71.54 83.0502 84 76.2502 92.63C67.6202 99.43 55.1602 104.42 36.7202 106.54C55.1602 108.66 67.6202 113.65 76.2502 120.45C83.0502 129.08 88.0402 141.54 90.1602 159.98C92.2802 141.54 97.2702 129.08 104.07 120.45Z" fill="#191B1B"/>
<path d="M309.42 273.35C318.05 266.55 330.51 261.56 348.95 259.44C330.51 257.32 318.05 252.33 309.42 245.53C302.62 236.9 297.63 224.44 295.51 206C293.39 224.44 288.4 236.9 281.6 245.53C272.97 252.33 260.51 257.32 242.07 259.44C260.51 261.56 272.97 266.55 281.6 273.35C288.4 281.98 293.39 294.44 295.51 312.88C297.63 294.44 302.62 281.98 309.42 273.35Z" fill="#191B1B"/>
<path d="M281.093 281.095C344.94 217.248 344.94 113.732 281.093 49.8851C217.246 -13.9617 113.73 -13.9617 49.8832 49.8851C-13.9636 113.732 -13.9636 217.248 49.8832 281.095C113.73 344.942 217.246 344.942 281.093 281.095Z" stroke="#191B1B" stroke-width="4" stroke-miterlimit="10"/>
<path d="M336.563 318.428C400.41 254.581 400.41 151.065 336.563 87.2182C272.716 23.3714 169.2 23.3714 105.353 87.2182C41.5061 151.065 41.5061 254.581 105.353 318.428C169.2 382.275 272.716 382.275 336.563 318.428Z" stroke="#191B1B" stroke-width="4" stroke-miterlimit="10"/>
<path d="M283.9 400.95C374.193 400.95 447.39 327.753 447.39 237.46C447.39 147.167 374.193 73.97 283.9 73.97C193.607 73.97 120.41 147.167 120.41 237.46C120.41 327.753 193.607 400.95 283.9 400.95Z" stroke="#191B1B" stroke-width="4" stroke-miterlimit="10"/>
</g>
<defs>
<clipPath id="clip0_498_73929">
<rect width="449.39" height="402.94" fill="white"/>
</clipPath>
</defs>
</svg>
