<svg width="370" height="395" viewBox="0 0 370 395" fill="none" xmlns="http://www.w3.org/2000/svg">
<path d="M0 184.497C0 83.0899 82.8194 0 184.591 0C286.362 0 369.75 83.8453 369.75 184.497C369.75 285.149 286.931 369.75 184.591 369.75C82.2509 369.75 0 285.338 0 184.497ZM287.689 184.497C287.689 127.09 242.962 80.4461 184.591 80.4461C126.219 80.4461 82.0614 127.845 82.0614 184.497C82.0614 241.15 126.788 289.304 184.591 289.304C242.394 289.304 287.689 241.338 287.689 184.497Z" fill="#F2F3F7"/>
<path d="M366 45.0703C358.5 47.1412 356.821 48.8206 354.75 56.3203C352.679 48.8206 351 47.142 343.5 45.0703C351 42.9994 352.679 41.3208 354.75 33.8203C356.82 41.3208 358.5 42.9994 365.999 45.0703H366Z" fill="#0E0F0F"/>
<path fill-rule="evenodd" clip-rule="evenodd" d="M208.897 38.7427C208.897 40.2189 207.702 41.4151 206.227 41.4151C204.752 41.4151 203.557 40.2189 203.557 38.7427C203.557 37.2665 204.752 36.0703 206.227 36.0703C207.702 36.0703 208.897 37.2665 208.897 38.7427Z" fill="#DEE0E3"/>
<path fill-rule="evenodd" clip-rule="evenodd" d="M208.897 56.7311C208.897 58.2073 207.702 59.4035 206.227 59.4035C204.752 59.4035 203.557 58.2073 203.557 56.7311C203.557 55.2549 204.752 54.0587 206.227 54.0587C207.702 54.0587 208.897 55.2549 208.897 56.7311Z" fill="#DEE0E3"/>
<path fill-rule="evenodd" clip-rule="evenodd" d="M208.897 74.7198C208.897 76.196 207.702 77.3922 206.227 77.3922C204.752 77.3922 203.557 76.196 203.557 74.7198C203.557 73.2436 204.752 72.0474 206.227 72.0474C207.702 72.0474 208.897 73.2436 208.897 74.7198Z" fill="#DEE0E3"/>
<path fill-rule="evenodd" clip-rule="evenodd" d="M208.897 92.7084C208.897 94.1846 207.702 95.3808 206.227 95.3808C204.752 95.3808 203.557 94.1846 203.557 92.7084C203.557 91.2322 204.752 90.036 206.227 90.036C207.702 90.036 208.897 91.2322 208.897 92.7084Z" fill="#DEE0E3"/>
<path fill-rule="evenodd" clip-rule="evenodd" d="M208.897 110.697C208.897 112.173 207.702 113.369 206.227 113.369C204.752 113.369 203.557 112.173 203.557 110.697C203.557 109.221 204.752 108.024 206.227 108.024C207.702 108.024 208.897 109.221 208.897 110.697Z" fill="#DEE0E3"/>
<path fill-rule="evenodd" clip-rule="evenodd" d="M208.897 128.685C208.897 130.161 207.702 131.358 206.227 131.358C204.752 131.358 203.557 130.161 203.557 128.685C203.557 127.209 204.752 126.013 206.227 126.013C207.702 126.013 208.897 127.209 208.897 128.685Z" fill="#DEE0E3"/>
<path fill-rule="evenodd" clip-rule="evenodd" d="M208.897 146.674C208.897 148.15 207.702 149.346 206.227 149.346C204.752 149.346 203.557 148.15 203.557 146.674C203.557 145.198 204.752 144.002 206.227 144.002C207.702 144.002 208.897 145.198 208.897 146.674Z" fill="#DEE0E3"/>
<path fill-rule="evenodd" clip-rule="evenodd" d="M208.897 164.659C208.897 166.135 207.702 167.332 206.227 167.332C204.752 167.332 203.557 166.135 203.557 164.659C203.557 163.183 204.752 161.987 206.227 161.987C207.702 161.987 208.897 163.183 208.897 164.659Z" fill="#DEE0E3"/>
<path fill-rule="evenodd" clip-rule="evenodd" d="M208.897 182.648C208.897 184.124 207.702 185.32 206.227 185.32C204.752 185.32 203.557 184.124 203.557 182.648C203.557 181.172 204.752 179.976 206.227 179.976C207.702 179.976 208.897 181.172 208.897 182.648Z" fill="#DEE0E3"/>
<path fill-rule="evenodd" clip-rule="evenodd" d="M191.231 38.7427C191.231 40.2189 190.036 41.4151 188.561 41.4151C187.086 41.4151 185.89 40.2189 185.89 38.7427C185.89 37.2665 187.086 36.0703 188.561 36.0703C190.036 36.0703 191.231 37.2665 191.231 38.7427Z" fill="#DEE0E3"/>
<path fill-rule="evenodd" clip-rule="evenodd" d="M191.231 56.7311C191.231 58.2073 190.036 59.4035 188.561 59.4035C187.086 59.4035 185.89 58.2073 185.89 56.7311C185.89 55.2549 187.086 54.0587 188.561 54.0587C190.036 54.0587 191.231 55.2549 191.231 56.7311Z" fill="#DEE0E3"/>
<path fill-rule="evenodd" clip-rule="evenodd" d="M191.231 74.7198C191.231 76.196 190.036 77.3922 188.561 77.3922C187.086 77.3922 185.89 76.196 185.89 74.7198C185.89 73.2436 187.086 72.0474 188.561 72.0474C190.036 72.0474 191.231 73.2436 191.231 74.7198Z" fill="#DEE0E3"/>
<path fill-rule="evenodd" clip-rule="evenodd" d="M191.231 92.7084C191.231 94.1846 190.036 95.3808 188.561 95.3808C187.086 95.3808 185.89 94.1846 185.89 92.7084C185.89 91.2322 187.086 90.036 188.561 90.036C190.036 90.036 191.231 91.2322 191.231 92.7084Z" fill="#DEE0E3"/>
<path fill-rule="evenodd" clip-rule="evenodd" d="M191.231 110.697C191.231 112.173 190.036 113.369 188.561 113.369C187.086 113.369 185.89 112.173 185.89 110.697C185.89 109.221 187.086 108.024 188.561 108.024C190.036 108.024 191.231 109.221 191.231 110.697Z" fill="#DEE0E3"/>
<path fill-rule="evenodd" clip-rule="evenodd" d="M191.231 128.685C191.231 130.161 190.036 131.358 188.561 131.358C187.086 131.358 185.89 130.161 185.89 128.685C185.89 127.209 187.086 126.013 188.561 126.013C190.036 126.013 191.231 127.209 191.231 128.685Z" fill="#DEE0E3"/>
<path fill-rule="evenodd" clip-rule="evenodd" d="M191.231 146.674C191.231 148.15 190.036 149.346 188.561 149.346C187.086 149.346 185.89 148.15 185.89 146.674C185.89 145.198 187.086 144.002 188.561 144.002C190.036 144.002 191.231 145.198 191.231 146.674Z" fill="#DEE0E3"/>
<path fill-rule="evenodd" clip-rule="evenodd" d="M191.231 164.659C191.231 166.135 190.036 167.332 188.561 167.332C187.086 167.332 185.89 166.135 185.89 164.659C185.89 163.183 187.086 161.987 188.561 161.987C190.036 161.987 191.231 163.183 191.231 164.659Z" fill="#DEE0E3"/>
<path fill-rule="evenodd" clip-rule="evenodd" d="M191.231 182.648C191.231 184.124 190.036 185.32 188.561 185.32C187.086 185.32 185.89 184.124 185.89 182.648C185.89 181.172 187.086 179.976 188.561 179.976C190.036 179.976 191.231 181.172 191.231 182.648Z" fill="#DEE0E3"/>
<path fill-rule="evenodd" clip-rule="evenodd" d="M173.569 38.7427C173.569 40.2189 172.374 41.4151 170.899 41.4151C169.424 41.4151 168.229 40.2189 168.229 38.7427C168.229 37.2665 169.424 36.0703 170.899 36.0703C172.374 36.0703 173.569 37.2665 173.569 38.7427Z" fill="#DEE0E3"/>
<path fill-rule="evenodd" clip-rule="evenodd" d="M173.569 56.7311C173.569 58.2073 172.374 59.4035 170.899 59.4035C169.424 59.4035 168.229 58.2073 168.229 56.7311C168.229 55.2549 169.424 54.0587 170.899 54.0587C172.374 54.0587 173.569 55.2549 173.569 56.7311Z" fill="#DEE0E3"/>
<path fill-rule="evenodd" clip-rule="evenodd" d="M173.569 74.7198C173.569 76.196 172.374 77.3922 170.899 77.3922C169.424 77.3922 168.229 76.196 168.229 74.7198C168.229 73.2436 169.424 72.0474 170.899 72.0474C172.374 72.0474 173.569 73.2436 173.569 74.7198Z" fill="#DEE0E3"/>
<path fill-rule="evenodd" clip-rule="evenodd" d="M173.569 92.7084C173.569 94.1846 172.374 95.3808 170.899 95.3808C169.424 95.3808 168.229 94.1846 168.229 92.7084C168.229 91.2322 169.424 90.036 170.899 90.036C172.374 90.036 173.569 91.2322 173.569 92.7084Z" fill="#DEE0E3"/>
<path fill-rule="evenodd" clip-rule="evenodd" d="M173.569 110.697C173.569 112.173 172.374 113.369 170.899 113.369C169.424 113.369 168.229 112.173 168.229 110.697C168.229 109.221 169.424 108.024 170.899 108.024C172.374 108.024 173.569 109.221 173.569 110.697Z" fill="#DEE0E3"/>
<path fill-rule="evenodd" clip-rule="evenodd" d="M173.569 128.685C173.569 130.161 172.374 131.358 170.899 131.358C169.424 131.358 168.229 130.161 168.229 128.685C168.229 127.209 169.424 126.013 170.899 126.013C172.374 126.013 173.569 127.209 173.569 128.685Z" fill="#DEE0E3"/>
<path fill-rule="evenodd" clip-rule="evenodd" d="M173.569 146.674C173.569 148.15 172.374 149.346 170.899 149.346C169.424 149.346 168.229 148.15 168.229 146.674C168.229 145.198 169.424 144.002 170.899 144.002C172.374 144.002 173.569 145.198 173.569 146.674Z" fill="#DEE0E3"/>
<path fill-rule="evenodd" clip-rule="evenodd" d="M173.569 164.659C173.569 166.135 172.374 167.332 170.899 167.332C169.424 167.332 168.229 166.135 168.229 164.659C168.229 163.183 169.424 161.987 170.899 161.987C172.374 161.987 173.569 163.183 173.569 164.659Z" fill="#DEE0E3"/>
<path fill-rule="evenodd" clip-rule="evenodd" d="M173.569 182.648C173.569 184.124 172.374 185.32 170.899 185.32C169.424 185.32 168.229 184.124 168.229 182.648C168.229 181.172 169.424 179.976 170.899 179.976C172.374 179.976 173.569 181.172 173.569 182.648Z" fill="#DEE0E3"/>
<path fill-rule="evenodd" clip-rule="evenodd" d="M155.908 38.7427C155.908 40.2189 154.713 41.4151 153.238 41.4151C151.763 41.4151 150.568 40.2189 150.568 38.7427C150.568 37.2665 151.763 36.0703 153.238 36.0703C154.713 36.0703 155.908 37.2665 155.908 38.7427Z" fill="#DEE0E3"/>
<path fill-rule="evenodd" clip-rule="evenodd" d="M155.908 56.7311C155.908 58.2073 154.713 59.4035 153.238 59.4035C151.763 59.4035 150.568 58.2073 150.568 56.7311C150.568 55.2549 151.763 54.0587 153.238 54.0587C154.713 54.0587 155.908 55.2549 155.908 56.7311Z" fill="#DEE0E3"/>
<path fill-rule="evenodd" clip-rule="evenodd" d="M155.908 74.7198C155.908 76.196 154.713 77.3922 153.238 77.3922C151.763 77.3922 150.568 76.196 150.568 74.7198C150.568 73.2436 151.763 72.0474 153.238 72.0474C154.713 72.0474 155.908 73.2436 155.908 74.7198Z" fill="#DEE0E3"/>
<path fill-rule="evenodd" clip-rule="evenodd" d="M155.908 92.7084C155.908 94.1846 154.713 95.3808 153.238 95.3808C151.763 95.3808 150.568 94.1846 150.568 92.7084C150.568 91.2322 151.763 90.036 153.238 90.036C154.713 90.036 155.908 91.2322 155.908 92.7084Z" fill="#DEE0E3"/>
<path fill-rule="evenodd" clip-rule="evenodd" d="M155.908 110.697C155.908 112.173 154.713 113.369 153.238 113.369C151.763 113.369 150.568 112.173 150.568 110.697C150.568 109.221 151.763 108.024 153.238 108.024C154.713 108.024 155.908 109.221 155.908 110.697Z" fill="#DEE0E3"/>
<path fill-rule="evenodd" clip-rule="evenodd" d="M155.908 128.685C155.908 130.161 154.713 131.358 153.238 131.358C151.763 131.358 150.568 130.161 150.568 128.685C150.568 127.209 151.763 126.013 153.238 126.013C154.713 126.013 155.908 127.209 155.908 128.685Z" fill="#DEE0E3"/>
<path fill-rule="evenodd" clip-rule="evenodd" d="M155.908 146.674C155.908 148.15 154.713 149.346 153.238 149.346C151.763 149.346 150.568 148.15 150.568 146.674C150.568 145.198 151.763 144.002 153.238 144.002C154.713 144.002 155.908 145.198 155.908 146.674Z" fill="#DEE0E3"/>
<path fill-rule="evenodd" clip-rule="evenodd" d="M155.908 164.659C155.908 166.135 154.713 167.332 153.238 167.332C151.763 167.332 150.568 166.135 150.568 164.659C150.568 163.183 151.763 161.987 153.238 161.987C154.713 161.987 155.908 163.183 155.908 164.659Z" fill="#DEE0E3"/>
<path fill-rule="evenodd" clip-rule="evenodd" d="M155.908 182.648C155.908 184.124 154.713 185.32 153.238 185.32C151.763 185.32 150.568 184.124 150.568 182.648C150.568 181.172 151.763 179.976 153.238 179.976C154.713 179.976 155.908 181.172 155.908 182.648Z" fill="#DEE0E3"/>
<path fill-rule="evenodd" clip-rule="evenodd" d="M138.247 38.7427C138.247 40.2189 137.051 41.4151 135.576 41.4151C134.102 41.4151 132.906 40.2189 132.906 38.7427C132.906 37.2665 134.102 36.0703 135.576 36.0703C137.051 36.0703 138.247 37.2665 138.247 38.7427Z" fill="#DEE0E3"/>
<path fill-rule="evenodd" clip-rule="evenodd" d="M138.247 56.7311C138.247 58.2073 137.051 59.4035 135.576 59.4035C134.102 59.4035 132.906 58.2073 132.906 56.7311C132.906 55.2549 134.102 54.0587 135.576 54.0587C137.051 54.0587 138.247 55.2549 138.247 56.7311Z" fill="#DEE0E3"/>
<path fill-rule="evenodd" clip-rule="evenodd" d="M138.247 74.7198C138.247 76.196 137.051 77.3922 135.576 77.3922C134.102 77.3922 132.906 76.196 132.906 74.7198C132.906 73.2436 134.102 72.0474 135.576 72.0474C137.051 72.0474 138.247 73.2436 138.247 74.7198Z" fill="#DEE0E3"/>
<path fill-rule="evenodd" clip-rule="evenodd" d="M138.247 92.7084C138.247 94.1846 137.051 95.3808 135.576 95.3808C134.102 95.3808 132.906 94.1846 132.906 92.7084C132.906 91.2322 134.102 90.036 135.576 90.036C137.051 90.036 138.247 91.2322 138.247 92.7084Z" fill="#DEE0E3"/>
<path fill-rule="evenodd" clip-rule="evenodd" d="M138.247 110.697C138.247 112.173 137.051 113.369 135.576 113.369C134.102 113.369 132.906 112.173 132.906 110.697C132.906 109.221 134.102 108.024 135.576 108.024C137.051 108.024 138.247 109.221 138.247 110.697Z" fill="#DEE0E3"/>
<path fill-rule="evenodd" clip-rule="evenodd" d="M138.247 128.685C138.247 130.161 137.051 131.358 135.576 131.358C134.102 131.358 132.906 130.161 132.906 128.685C132.906 127.209 134.102 126.013 135.576 126.013C137.051 126.013 138.247 127.209 138.247 128.685Z" fill="#DEE0E3"/>
<path fill-rule="evenodd" clip-rule="evenodd" d="M138.247 146.674C138.247 148.15 137.051 149.346 135.576 149.346C134.102 149.346 132.906 148.15 132.906 146.674C132.906 145.198 134.102 144.002 135.576 144.002C137.051 144.002 138.247 145.198 138.247 146.674Z" fill="#DEE0E3"/>
<path fill-rule="evenodd" clip-rule="evenodd" d="M138.247 164.659C138.247 166.135 137.051 167.332 135.576 167.332C134.102 167.332 132.906 166.135 132.906 164.659C132.906 163.183 134.102 161.987 135.576 161.987C137.051 161.987 138.247 163.183 138.247 164.659Z" fill="#DEE0E3"/>
<path fill-rule="evenodd" clip-rule="evenodd" d="M138.247 182.648C138.247 184.124 137.051 185.32 135.576 185.32C134.102 185.32 132.906 184.124 132.906 182.648C132.906 181.172 134.102 179.976 135.576 179.976C137.051 179.976 138.247 181.172 138.247 182.648Z" fill="#DEE0E3"/>
<path fill-rule="evenodd" clip-rule="evenodd" d="M120.585 38.7427C120.585 40.2189 119.39 41.4151 117.915 41.4151C116.44 41.4151 115.245 40.2189 115.245 38.7427C115.245 37.2665 116.44 36.0703 117.915 36.0703C119.39 36.0703 120.585 37.2665 120.585 38.7427Z" fill="#DEE0E3"/>
<path fill-rule="evenodd" clip-rule="evenodd" d="M120.585 56.7311C120.585 58.2073 119.39 59.4035 117.915 59.4035C116.44 59.4035 115.245 58.2073 115.245 56.7311C115.245 55.2549 116.44 54.0587 117.915 54.0587C119.39 54.0587 120.585 55.2549 120.585 56.7311Z" fill="#DEE0E3"/>
<path fill-rule="evenodd" clip-rule="evenodd" d="M120.585 74.7198C120.585 76.196 119.39 77.3922 117.915 77.3922C116.44 77.3922 115.245 76.196 115.245 74.7198C115.245 73.2436 116.44 72.0474 117.915 72.0474C119.39 72.0474 120.585 73.2436 120.585 74.7198Z" fill="#DEE0E3"/>
<path fill-rule="evenodd" clip-rule="evenodd" d="M120.585 92.7084C120.585 94.1846 119.39 95.3808 117.915 95.3808C116.44 95.3808 115.245 94.1846 115.245 92.7084C115.245 91.2322 116.44 90.036 117.915 90.036C119.39 90.036 120.585 91.2322 120.585 92.7084Z" fill="#DEE0E3"/>
<path fill-rule="evenodd" clip-rule="evenodd" d="M120.585 110.697C120.585 112.173 119.39 113.369 117.915 113.369C116.44 113.369 115.245 112.173 115.245 110.697C115.245 109.221 116.44 108.024 117.915 108.024C119.39 108.024 120.585 109.221 120.585 110.697Z" fill="#DEE0E3"/>
<path fill-rule="evenodd" clip-rule="evenodd" d="M120.585 128.685C120.585 130.161 119.39 131.358 117.915 131.358C116.44 131.358 115.245 130.161 115.245 128.685C115.245 127.209 116.44 126.013 117.915 126.013C119.39 126.013 120.585 127.209 120.585 128.685Z" fill="#DEE0E3"/>
<path fill-rule="evenodd" clip-rule="evenodd" d="M120.585 146.674C120.585 148.15 119.39 149.346 117.915 149.346C116.44 149.346 115.245 148.15 115.245 146.674C115.245 145.198 116.44 144.002 117.915 144.002C119.39 144.002 120.585 145.198 120.585 146.674Z" fill="#DEE0E3"/>
<path fill-rule="evenodd" clip-rule="evenodd" d="M120.585 164.659C120.585 166.135 119.39 167.332 117.915 167.332C116.44 167.332 115.245 166.135 115.245 164.659C115.245 163.183 116.44 161.987 117.915 161.987C119.39 161.987 120.585 163.183 120.585 164.659Z" fill="#DEE0E3"/>
<path fill-rule="evenodd" clip-rule="evenodd" d="M120.585 182.648C120.585 184.124 119.39 185.32 117.915 185.32C116.44 185.32 115.245 184.124 115.245 182.648C115.245 181.172 116.44 179.976 117.915 179.976C119.39 179.976 120.585 181.172 120.585 182.648Z" fill="#DEE0E3"/>
<path fill-rule="evenodd" clip-rule="evenodd" d="M102.918 38.7427C102.918 40.2189 101.723 41.4151 100.248 41.4151C98.7734 41.4151 97.5782 40.2189 97.5782 38.7427C97.5782 37.2665 98.7734 36.0703 100.248 36.0703C101.723 36.0703 102.918 37.2665 102.918 38.7427Z" fill="#DEE0E3"/>
<path fill-rule="evenodd" clip-rule="evenodd" d="M102.918 56.7311C102.918 58.2073 101.723 59.4035 100.248 59.4035C98.7734 59.4035 97.5782 58.2073 97.5782 56.7311C97.5782 55.2549 98.7734 54.0587 100.248 54.0587C101.723 54.0587 102.918 55.2549 102.918 56.7311Z" fill="#DEE0E3"/>
<path fill-rule="evenodd" clip-rule="evenodd" d="M102.918 74.7198C102.918 76.196 101.723 77.3922 100.248 77.3922C98.7734 77.3922 97.5782 76.196 97.5782 74.7198C97.5782 73.2436 98.7734 72.0474 100.248 72.0474C101.723 72.0474 102.918 73.2436 102.918 74.7198Z" fill="#DEE0E3"/>
<path fill-rule="evenodd" clip-rule="evenodd" d="M102.918 92.7084C102.918 94.1846 101.723 95.3808 100.248 95.3808C98.7734 95.3808 97.5782 94.1846 97.5782 92.7084C97.5782 91.2322 98.7734 90.036 100.248 90.036C101.723 90.036 102.918 91.2322 102.918 92.7084Z" fill="#DEE0E3"/>
<path fill-rule="evenodd" clip-rule="evenodd" d="M102.918 110.697C102.918 112.173 101.723 113.369 100.248 113.369C98.7734 113.369 97.5782 112.173 97.5782 110.697C97.5782 109.221 98.7734 108.024 100.248 108.024C101.723 108.024 102.918 109.221 102.918 110.697Z" fill="#DEE0E3"/>
<path fill-rule="evenodd" clip-rule="evenodd" d="M102.918 128.685C102.918 130.161 101.723 131.358 100.248 131.358C98.7734 131.358 97.5782 130.161 97.5782 128.685C97.5782 127.209 98.7734 126.013 100.248 126.013C101.723 126.013 102.918 127.209 102.918 128.685Z" fill="#DEE0E3"/>
<path fill-rule="evenodd" clip-rule="evenodd" d="M102.918 146.674C102.918 148.15 101.723 149.346 100.248 149.346C98.7734 149.346 97.5782 148.15 97.5782 146.674C97.5782 145.198 98.7734 144.002 100.248 144.002C101.723 144.002 102.918 145.198 102.918 146.674Z" fill="#DEE0E3"/>
<path fill-rule="evenodd" clip-rule="evenodd" d="M102.918 164.659C102.918 166.135 101.723 167.332 100.248 167.332C98.7734 167.332 97.5782 166.135 97.5782 164.659C97.5782 163.183 98.7734 161.987 100.248 161.987C101.723 161.987 102.918 163.183 102.918 164.659Z" fill="#DEE0E3"/>
<path fill-rule="evenodd" clip-rule="evenodd" d="M102.918 182.648C102.918 184.124 101.723 185.32 100.248 185.32C98.7734 185.32 97.5782 184.124 97.5782 182.648C97.5782 181.172 98.7734 179.976 100.248 179.976C101.723 179.976 102.918 181.172 102.918 182.648Z" fill="#DEE0E3"/>
<path fill-rule="evenodd" clip-rule="evenodd" d="M85.2517 38.7427C85.2517 40.2189 84.0565 41.4151 82.5816 41.4151C81.1066 41.4151 79.9115 40.2189 79.9115 38.7427C79.9115 37.2665 81.1066 36.0703 82.5816 36.0703C84.0565 36.0703 85.2517 37.2665 85.2517 38.7427Z" fill="#DEE0E3"/>
<path fill-rule="evenodd" clip-rule="evenodd" d="M85.2517 56.7311C85.2517 58.2073 84.0565 59.4035 82.5816 59.4035C81.1066 59.4035 79.9115 58.2073 79.9115 56.7311C79.9115 55.2549 81.1066 54.0587 82.5816 54.0587C84.0565 54.0587 85.2517 55.2549 85.2517 56.7311Z" fill="#DEE0E3"/>
<path fill-rule="evenodd" clip-rule="evenodd" d="M85.2517 74.7198C85.2517 76.196 84.0565 77.3922 82.5816 77.3922C81.1066 77.3922 79.9115 76.196 79.9115 74.7198C79.9115 73.2436 81.1066 72.0474 82.5816 72.0474C84.0565 72.0474 85.2517 73.2436 85.2517 74.7198Z" fill="#DEE0E3"/>
<path fill-rule="evenodd" clip-rule="evenodd" d="M85.2517 92.7084C85.2517 94.1846 84.0565 95.3808 82.5816 95.3808C81.1066 95.3808 79.9115 94.1846 79.9115 92.7084C79.9115 91.2322 81.1066 90.036 82.5816 90.036C84.0565 90.036 85.2517 91.2322 85.2517 92.7084Z" fill="#DEE0E3"/>
<path fill-rule="evenodd" clip-rule="evenodd" d="M85.2517 110.697C85.2517 112.173 84.0565 113.369 82.5816 113.369C81.1066 113.369 79.9115 112.173 79.9115 110.697C79.9115 109.221 81.1066 108.024 82.5816 108.024C84.0565 108.024 85.2517 109.221 85.2517 110.697Z" fill="#DEE0E3"/>
<path fill-rule="evenodd" clip-rule="evenodd" d="M85.2517 128.685C85.2517 130.161 84.0565 131.358 82.5816 131.358C81.1066 131.358 79.9115 130.161 79.9115 128.685C79.9115 127.209 81.1066 126.013 82.5816 126.013C84.0565 126.013 85.2517 127.209 85.2517 128.685Z" fill="#DEE0E3"/>
<path fill-rule="evenodd" clip-rule="evenodd" d="M85.2517 146.674C85.2517 148.15 84.0565 149.346 82.5816 149.346C81.1066 149.346 79.9115 148.15 79.9115 146.674C79.9115 145.198 81.1066 144.002 82.5816 144.002C84.0565 144.002 85.2517 145.198 85.2517 146.674Z" fill="#DEE0E3"/>
<path fill-rule="evenodd" clip-rule="evenodd" d="M85.2517 164.659C85.2517 166.135 84.0565 167.332 82.5816 167.332C81.1066 167.332 79.9115 166.135 79.9115 164.659C79.9115 163.183 81.1066 161.987 82.5816 161.987C84.0565 161.987 85.2517 163.183 85.2517 164.659Z" fill="#DEE0E3"/>
<path fill-rule="evenodd" clip-rule="evenodd" d="M85.2517 182.648C85.2517 184.124 84.0565 185.32 82.5816 185.32C81.1066 185.32 79.9115 184.124 79.9115 182.648C79.9115 181.172 81.1066 179.976 82.5816 179.976C84.0565 179.976 85.2517 181.172 85.2517 182.648Z" fill="#DEE0E3"/>
<path fill-rule="evenodd" clip-rule="evenodd" d="M67.5902 38.7427C67.5902 40.2189 66.395 41.4151 64.9201 41.4151C63.4451 41.4151 62.25 40.2189 62.25 38.7427C62.25 37.2665 63.4451 36.0703 64.9201 36.0703C66.395 36.0703 67.5902 37.2665 67.5902 38.7427Z" fill="#DEE0E3"/>
<path fill-rule="evenodd" clip-rule="evenodd" d="M67.5902 56.7311C67.5902 58.2073 66.395 59.4035 64.9201 59.4035C63.4451 59.4035 62.25 58.2073 62.25 56.7311C62.25 55.2549 63.4451 54.0587 64.9201 54.0587C66.395 54.0587 67.5902 55.2549 67.5902 56.7311Z" fill="#DEE0E3"/>
<path fill-rule="evenodd" clip-rule="evenodd" d="M67.5902 74.7198C67.5902 76.196 66.395 77.3922 64.9201 77.3922C63.4451 77.3922 62.25 76.196 62.25 74.7198C62.25 73.2436 63.4451 72.0474 64.9201 72.0474C66.395 72.0474 67.5902 73.2436 67.5902 74.7198Z" fill="#DEE0E3"/>
<path fill-rule="evenodd" clip-rule="evenodd" d="M67.5902 92.7084C67.5902 94.1846 66.395 95.3808 64.9201 95.3808C63.4451 95.3808 62.25 94.1846 62.25 92.7084C62.25 91.2322 63.4451 90.036 64.9201 90.036C66.395 90.036 67.5902 91.2322 67.5902 92.7084Z" fill="#DEE0E3"/>
<path fill-rule="evenodd" clip-rule="evenodd" d="M67.5902 110.697C67.5902 112.173 66.395 113.369 64.9201 113.369C63.4451 113.369 62.25 112.173 62.25 110.697C62.25 109.221 63.4451 108.024 64.9201 108.024C66.395 108.024 67.5902 109.221 67.5902 110.697Z" fill="#DEE0E3"/>
<path fill-rule="evenodd" clip-rule="evenodd" d="M67.5902 128.685C67.5902 130.161 66.395 131.358 64.9201 131.358C63.4451 131.358 62.25 130.161 62.25 128.685C62.25 127.209 63.4451 126.013 64.9201 126.013C66.395 126.013 67.5902 127.209 67.5902 128.685Z" fill="#DEE0E3"/>
<path fill-rule="evenodd" clip-rule="evenodd" d="M67.5902 146.674C67.5902 148.15 66.395 149.346 64.9201 149.346C63.4451 149.346 62.25 148.15 62.25 146.674C62.25 145.198 63.4451 144.002 64.9201 144.002C66.395 144.002 67.5902 145.198 67.5902 146.674Z" fill="#DEE0E3"/>
<path fill-rule="evenodd" clip-rule="evenodd" d="M67.5902 164.659C67.5902 166.135 66.395 167.332 64.9201 167.332C63.4451 167.332 62.25 166.135 62.25 164.659C62.25 163.183 63.4451 161.987 64.9201 161.987C66.395 161.987 67.5902 163.183 67.5902 164.659Z" fill="#DEE0E3"/>
<path fill-rule="evenodd" clip-rule="evenodd" d="M67.5902 182.648C67.5902 184.124 66.395 185.32 64.9201 185.32C63.4451 185.32 62.25 184.124 62.25 182.648C62.25 181.172 63.4451 179.976 64.9201 179.976C66.395 179.976 67.5902 181.172 67.5902 182.648Z" fill="#DEE0E3"/>
<path d="M188.903 201.448C183.928 200.322 180.046 196.562 178.883 191.751L175.875 179.32L172.867 191.751C171.704 196.566 167.818 200.322 162.847 201.448L150 204.358L162.847 207.269C167.822 208.395 171.704 212.155 172.867 216.965L175.875 229.396L178.883 216.965C180.046 212.151 183.932 208.395 188.903 207.269L201.75 204.358L188.903 201.448Z" fill="#E2C89F"/>
<rect x="190.5" y="343.5" width="50.9969" height="51.0016" rx="5.15601" fill="white"/>
<path d="M235.831 343.5C237.333 343.5 238.775 344.097 239.837 345.16C240.9 346.223 241.497 347.664 241.497 349.167V388.835C241.497 390.338 240.9 391.779 239.837 392.842C238.775 393.905 237.333 394.502 235.831 394.502H196.166C194.664 394.502 193.222 393.905 192.16 392.842C191.097 391.779 190.5 390.338 190.5 388.835V349.167C190.5 347.664 191.097 346.223 192.16 345.16C193.222 344.097 194.664 343.5 196.166 343.5H235.831ZM234.414 387.418V372.401C234.414 369.951 233.441 367.602 231.709 365.869C229.977 364.137 227.627 363.164 225.178 363.164C222.77 363.164 219.965 364.637 218.605 366.847V363.702H210.7V387.418H218.605V373.449C218.605 371.268 220.362 369.483 222.543 369.483C223.595 369.483 224.604 369.9 225.348 370.644C226.092 371.388 226.509 372.397 226.509 373.449V387.418H234.414ZM201.493 359.254C202.755 359.254 203.966 358.752 204.858 357.86C205.751 356.967 206.252 355.756 206.252 354.494C206.252 351.859 204.127 349.705 201.493 349.705C200.223 349.705 199.005 350.21 198.107 351.108C197.209 352.006 196.705 353.224 196.705 354.494C196.705 357.129 198.858 359.254 201.493 359.254ZM205.431 387.418V363.702H197.583V387.418H205.431Z" fill="#0E0F0F"/>
</svg>
