<svg width="262" height="34" viewBox="0 0 262 34" fill="none" xmlns="http://www.w3.org/2000/svg">
<path d="M33.5638 17C22.3755 20.0892 19.8716 22.5944 16.7825 33.7819C13.6922 22.5944 11.1883 20.0904 0 17C11.1883 13.9108 13.6922 11.4068 16.7813 0.218079C19.8705 11.4068 22.3755 13.9108 33.5627 17H33.5638Z" fill="#C8CCD1"/>
<path d="M73.8572 8.17707L79.0424 0.218079L78.7884 9.86227L87.433 6.62844L81.8373 14.274L90.6385 17.0006L81.8373 19.726L87.433 27.3716L78.7884 24.1377L79.0424 33.7819L73.8572 25.8229L68.6709 33.7819L68.9249 24.1377L60.2802 27.3716L65.8759 19.726L57.0747 17.0006L65.8759 14.274L60.2802 6.62844L68.9249 9.86227L68.6709 0.218079L73.8572 8.17707Z" fill="#E2C89F"/>
<path d="M131.469 2.0422H130.76C122.795 2.0422 116.339 8.49875 116.339 16.4633V17.1719C116.339 25.1364 122.795 31.593 130.76 31.593H131.469C139.433 31.593 145.89 25.1364 145.89 17.1719V16.4633C145.89 8.49875 139.433 2.0422 131.469 2.0422Z" fill="#19B6B1"/>
<path d="M204.788 15.407H191.854L201 6.26075L198.747 4.00606L189.601 13.1537V0.218079H186.414V13.1537L177.267 4.00606L175.013 6.26075L184.16 15.407H171.225V18.5943H184.16L175.013 27.7406L177.267 29.9939L186.414 20.8476V33.7819H189.601V20.8476L198.747 29.9939L201 27.7406L191.854 18.5943H204.788V15.407Z" fill="#E899B0"/>
<path d="M256.313 17.1824C263.734 27.4807 255.427 35.8294 245.18 28.3706C234.933 35.8294 226.626 27.4807 234.047 17.1824C226.626 6.88415 234.933 -1.46455 245.18 5.99424C255.427 -1.46455 263.734 6.88415 256.313 17.1824Z" fill="#C8CCD1"/>
</svg>
