<svg width="493" height="493" viewBox="0 0 493 493" fill="none" xmlns="http://www.w3.org/2000/svg">
<path d="M0 245.996C0 110.787 110.426 0 246.121 0C381.816 0 493 111.794 493 245.996C493 380.199 382.574 493 246.121 493C109.668 493 0 380.451 0 245.996ZM383.585 245.996C383.585 169.453 323.95 107.261 246.121 107.261C168.292 107.261 109.415 170.46 109.415 245.996C109.415 321.533 169.05 385.739 246.121 385.739C323.192 385.739 383.585 321.784 383.585 245.996Z" fill="#F2F3F7"/>
<rect x="422" y="342" width="66.6" height="63" rx="19.4352" fill="white"/>
<path fill-rule="evenodd" clip-rule="evenodd" d="M440.833 373.021C440.833 365.558 446.798 358.833 455.028 358.833C463.075 358.833 469.167 365.431 469.167 372.979C469.167 381.733 462.027 387.167 455 387.167C452.677 387.167 450.098 386.542 448.03 385.322C447.308 384.882 446.698 384.556 445.919 384.811L443.058 385.663C442.335 385.89 441.683 385.322 441.896 384.556L442.845 381.378C443.001 380.938 442.973 380.47 442.746 380.101C441.528 377.859 440.833 375.405 440.833 373.021ZM453.158 373.021C453.158 374.029 453.966 374.837 454.972 374.852C455.978 374.852 456.785 374.029 456.785 373.035C456.785 372.028 455.978 371.219 454.972 371.219C453.98 371.205 453.158 372.028 453.158 373.021ZM459.689 373.035C459.689 374.029 460.497 374.852 461.503 374.852C462.508 374.852 463.316 374.029 463.316 373.035C463.316 372.028 462.508 371.219 461.503 371.219C460.497 371.219 459.689 372.028 459.689 373.035ZM448.441 374.852C447.449 374.852 446.628 374.029 446.628 373.035C446.628 372.028 447.435 371.219 448.441 371.219C449.447 371.219 450.254 372.028 450.254 373.035C450.254 374.029 449.447 374.837 448.441 374.852Z" fill="#C8CCD1"/>
<path d="M488 60.0938C478 62.8549 475.762 65.0941 473.001 75.0938C470.238 65.0941 468 62.856 458 60.0938C468 57.3326 470.238 55.0944 472.999 45.0938C475.761 55.0944 478 57.3326 487.999 60.0938H488Z" fill="#0E0F0F"/>
<path fill-rule="evenodd" clip-rule="evenodd" d="M278.53 51.657C278.53 53.6252 276.936 55.2202 274.97 55.2202C273.003 55.2202 271.409 53.6252 271.409 51.657C271.409 49.6887 273.003 48.0937 274.97 48.0937C276.936 48.0937 278.53 49.6887 278.53 51.657Z" fill="#DEE0E3"/>
<path fill-rule="evenodd" clip-rule="evenodd" d="M278.53 75.6414C278.53 77.6097 276.936 79.2046 274.97 79.2046C273.003 79.2046 271.409 77.6097 271.409 75.6414C271.409 73.6731 273.003 72.0782 274.97 72.0782C276.936 72.0782 278.53 73.6731 278.53 75.6414Z" fill="#DEE0E3"/>
<path fill-rule="evenodd" clip-rule="evenodd" d="M278.53 99.6263C278.53 101.595 276.936 103.19 274.97 103.19C273.003 103.19 271.409 101.595 271.409 99.6263C271.409 97.658 273.003 96.0631 274.97 96.0631C276.936 96.0631 278.53 97.658 278.53 99.6263Z" fill="#DEE0E3"/>
<path fill-rule="evenodd" clip-rule="evenodd" d="M278.53 123.611C278.53 125.579 276.936 127.174 274.97 127.174C273.003 127.174 271.409 125.579 271.409 123.611C271.409 121.643 273.003 120.048 274.97 120.048C276.936 120.048 278.53 121.643 278.53 123.611Z" fill="#DEE0E3"/>
<path fill-rule="evenodd" clip-rule="evenodd" d="M278.53 147.596C278.53 149.564 276.936 151.159 274.97 151.159C273.003 151.159 271.409 149.564 271.409 147.596C271.409 145.627 273.003 144.032 274.97 144.032C276.936 144.032 278.53 145.627 278.53 147.596Z" fill="#DEE0E3"/>
<path fill-rule="evenodd" clip-rule="evenodd" d="M278.53 171.58C278.53 173.548 276.936 175.143 274.97 175.143C273.003 175.143 271.409 173.548 271.409 171.58C271.409 169.612 273.003 168.017 274.97 168.017C276.936 168.017 278.53 169.612 278.53 171.58Z" fill="#DEE0E3"/>
<path fill-rule="evenodd" clip-rule="evenodd" d="M278.53 195.565C278.53 197.534 276.936 199.128 274.97 199.128C273.003 199.128 271.409 197.534 271.409 195.565C271.409 193.597 273.003 192.002 274.97 192.002C276.936 192.002 278.53 193.597 278.53 195.565Z" fill="#DEE0E3"/>
<path fill-rule="evenodd" clip-rule="evenodd" d="M278.53 219.546C278.53 221.514 276.936 223.109 274.97 223.109C273.003 223.109 271.409 221.514 271.409 219.546C271.409 217.577 273.003 215.982 274.97 215.982C276.936 215.982 278.53 217.577 278.53 219.546Z" fill="#DEE0E3"/>
<path fill-rule="evenodd" clip-rule="evenodd" d="M278.53 243.53C278.53 245.499 276.936 247.094 274.97 247.094C273.003 247.094 271.409 245.499 271.409 243.53C271.409 241.562 273.003 239.967 274.97 239.967C276.936 239.967 278.53 241.562 278.53 243.53Z" fill="#DEE0E3"/>
<path fill-rule="evenodd" clip-rule="evenodd" d="M254.974 51.657C254.974 53.6252 253.381 55.2202 251.414 55.2202C249.447 55.2202 247.854 53.6252 247.854 51.657C247.854 49.6887 249.447 48.0937 251.414 48.0937C253.381 48.0937 254.974 49.6887 254.974 51.657Z" fill="#DEE0E3"/>
<path fill-rule="evenodd" clip-rule="evenodd" d="M254.974 75.6414C254.974 77.6097 253.381 79.2046 251.414 79.2046C249.447 79.2046 247.854 77.6097 247.854 75.6414C247.854 73.6731 249.447 72.0782 251.414 72.0782C253.381 72.0782 254.974 73.6731 254.974 75.6414Z" fill="#DEE0E3"/>
<path fill-rule="evenodd" clip-rule="evenodd" d="M254.974 99.6263C254.974 101.595 253.381 103.19 251.414 103.19C249.447 103.19 247.854 101.595 247.854 99.6263C247.854 97.658 249.447 96.0631 251.414 96.0631C253.381 96.0631 254.974 97.658 254.974 99.6263Z" fill="#DEE0E3"/>
<path fill-rule="evenodd" clip-rule="evenodd" d="M254.974 123.611C254.974 125.579 253.381 127.174 251.414 127.174C249.447 127.174 247.854 125.579 247.854 123.611C247.854 121.643 249.447 120.048 251.414 120.048C253.381 120.048 254.974 121.643 254.974 123.611Z" fill="#DEE0E3"/>
<path fill-rule="evenodd" clip-rule="evenodd" d="M254.974 147.596C254.974 149.564 253.381 151.159 251.414 151.159C249.447 151.159 247.854 149.564 247.854 147.596C247.854 145.627 249.447 144.032 251.414 144.032C253.381 144.032 254.974 145.627 254.974 147.596Z" fill="#DEE0E3"/>
<path fill-rule="evenodd" clip-rule="evenodd" d="M254.974 171.58C254.974 173.548 253.381 175.143 251.414 175.143C249.447 175.143 247.854 173.548 247.854 171.58C247.854 169.612 249.447 168.017 251.414 168.017C253.381 168.017 254.974 169.612 254.974 171.58Z" fill="#DEE0E3"/>
<path fill-rule="evenodd" clip-rule="evenodd" d="M254.974 195.565C254.974 197.534 253.381 199.128 251.414 199.128C249.447 199.128 247.854 197.534 247.854 195.565C247.854 193.597 249.447 192.002 251.414 192.002C253.381 192.002 254.974 193.597 254.974 195.565Z" fill="#DEE0E3"/>
<path fill-rule="evenodd" clip-rule="evenodd" d="M254.974 219.546C254.974 221.514 253.381 223.109 251.414 223.109C249.447 223.109 247.854 221.514 247.854 219.546C247.854 217.577 249.447 215.982 251.414 215.982C253.381 215.982 254.974 217.577 254.974 219.546Z" fill="#DEE0E3"/>
<path fill-rule="evenodd" clip-rule="evenodd" d="M254.974 243.53C254.974 245.499 253.381 247.094 251.414 247.094C249.447 247.094 247.854 245.499 247.854 243.53C247.854 241.562 249.447 239.967 251.414 239.967C253.381 239.967 254.974 241.562 254.974 243.53Z" fill="#DEE0E3"/>
<path fill-rule="evenodd" clip-rule="evenodd" d="M231.426 51.657C231.426 53.6252 229.832 55.2202 227.866 55.2202C225.899 55.2202 224.305 53.6252 224.305 51.657C224.305 49.6887 225.899 48.0937 227.866 48.0937C229.832 48.0937 231.426 49.6887 231.426 51.657Z" fill="#DEE0E3"/>
<path fill-rule="evenodd" clip-rule="evenodd" d="M231.426 75.6414C231.426 77.6097 229.832 79.2046 227.866 79.2046C225.899 79.2046 224.305 77.6097 224.305 75.6414C224.305 73.6731 225.899 72.0782 227.866 72.0782C229.832 72.0782 231.426 73.6731 231.426 75.6414Z" fill="#DEE0E3"/>
<path fill-rule="evenodd" clip-rule="evenodd" d="M231.426 99.6263C231.426 101.595 229.832 103.19 227.866 103.19C225.899 103.19 224.305 101.595 224.305 99.6263C224.305 97.658 225.899 96.0631 227.866 96.0631C229.832 96.0631 231.426 97.658 231.426 99.6263Z" fill="#DEE0E3"/>
<path fill-rule="evenodd" clip-rule="evenodd" d="M231.426 123.611C231.426 125.579 229.832 127.174 227.866 127.174C225.899 127.174 224.305 125.579 224.305 123.611C224.305 121.643 225.899 120.048 227.866 120.048C229.832 120.048 231.426 121.643 231.426 123.611Z" fill="#DEE0E3"/>
<path fill-rule="evenodd" clip-rule="evenodd" d="M231.426 147.596C231.426 149.564 229.832 151.159 227.866 151.159C225.899 151.159 224.305 149.564 224.305 147.596C224.305 145.627 225.899 144.032 227.866 144.032C229.832 144.032 231.426 145.627 231.426 147.596Z" fill="#DEE0E3"/>
<path fill-rule="evenodd" clip-rule="evenodd" d="M231.426 171.58C231.426 173.548 229.832 175.143 227.866 175.143C225.899 175.143 224.305 173.548 224.305 171.58C224.305 169.612 225.899 168.017 227.866 168.017C229.832 168.017 231.426 169.612 231.426 171.58Z" fill="#DEE0E3"/>
<path fill-rule="evenodd" clip-rule="evenodd" d="M231.426 195.565C231.426 197.534 229.832 199.128 227.866 199.128C225.899 199.128 224.305 197.534 224.305 195.565C224.305 193.597 225.899 192.002 227.866 192.002C229.832 192.002 231.426 193.597 231.426 195.565Z" fill="#DEE0E3"/>
<path fill-rule="evenodd" clip-rule="evenodd" d="M231.426 219.546C231.426 221.514 229.832 223.109 227.866 223.109C225.899 223.109 224.305 221.514 224.305 219.546C224.305 217.577 225.899 215.982 227.866 215.982C229.832 215.982 231.426 217.577 231.426 219.546Z" fill="#DEE0E3"/>
<path fill-rule="evenodd" clip-rule="evenodd" d="M231.426 243.53C231.426 245.499 229.832 247.094 227.866 247.094C225.899 247.094 224.305 245.499 224.305 243.53C224.305 241.562 225.899 239.967 227.866 239.967C229.832 239.967 231.426 241.562 231.426 243.53Z" fill="#DEE0E3"/>
<path fill-rule="evenodd" clip-rule="evenodd" d="M207.877 51.657C207.877 53.6252 206.284 55.2202 204.317 55.2202C202.351 55.2202 200.757 53.6252 200.757 51.657C200.757 49.6887 202.351 48.0937 204.317 48.0937C206.284 48.0937 207.877 49.6887 207.877 51.657Z" fill="#DEE0E3"/>
<path fill-rule="evenodd" clip-rule="evenodd" d="M207.877 75.6414C207.877 77.6097 206.284 79.2046 204.317 79.2046C202.351 79.2046 200.757 77.6097 200.757 75.6414C200.757 73.6731 202.351 72.0782 204.317 72.0782C206.284 72.0782 207.877 73.6731 207.877 75.6414Z" fill="#DEE0E3"/>
<path fill-rule="evenodd" clip-rule="evenodd" d="M207.877 99.6263C207.877 101.595 206.284 103.19 204.317 103.19C202.351 103.19 200.757 101.595 200.757 99.6263C200.757 97.658 202.351 96.0631 204.317 96.0631C206.284 96.0631 207.877 97.658 207.877 99.6263Z" fill="#DEE0E3"/>
<path fill-rule="evenodd" clip-rule="evenodd" d="M207.877 123.611C207.877 125.579 206.284 127.174 204.317 127.174C202.351 127.174 200.757 125.579 200.757 123.611C200.757 121.643 202.351 120.048 204.317 120.048C206.284 120.048 207.877 121.643 207.877 123.611Z" fill="#DEE0E3"/>
<path fill-rule="evenodd" clip-rule="evenodd" d="M207.877 147.596C207.877 149.564 206.284 151.159 204.317 151.159C202.351 151.159 200.757 149.564 200.757 147.596C200.757 145.627 202.351 144.032 204.317 144.032C206.284 144.032 207.877 145.627 207.877 147.596Z" fill="#DEE0E3"/>
<path fill-rule="evenodd" clip-rule="evenodd" d="M207.877 171.58C207.877 173.548 206.284 175.143 204.317 175.143C202.351 175.143 200.757 173.548 200.757 171.58C200.757 169.612 202.351 168.017 204.317 168.017C206.284 168.017 207.877 169.612 207.877 171.58Z" fill="#DEE0E3"/>
<path fill-rule="evenodd" clip-rule="evenodd" d="M207.877 195.565C207.877 197.534 206.284 199.128 204.317 199.128C202.351 199.128 200.757 197.534 200.757 195.565C200.757 193.597 202.351 192.002 204.317 192.002C206.284 192.002 207.877 193.597 207.877 195.565Z" fill="#DEE0E3"/>
<path fill-rule="evenodd" clip-rule="evenodd" d="M207.877 219.546C207.877 221.514 206.284 223.109 204.317 223.109C202.351 223.109 200.757 221.514 200.757 219.546C200.757 217.577 202.351 215.982 204.317 215.982C206.284 215.982 207.877 217.577 207.877 219.546Z" fill="#DEE0E3"/>
<path fill-rule="evenodd" clip-rule="evenodd" d="M207.877 243.53C207.877 245.499 206.284 247.094 204.317 247.094C202.351 247.094 200.757 245.499 200.757 243.53C200.757 241.562 202.351 239.967 204.317 239.967C206.284 239.967 207.877 241.562 207.877 243.53Z" fill="#DEE0E3"/>
<path fill-rule="evenodd" clip-rule="evenodd" d="M184.329 51.657C184.329 53.6252 182.735 55.2202 180.768 55.2202C178.802 55.2202 177.208 53.6252 177.208 51.657C177.208 49.6887 178.802 48.0937 180.768 48.0937C182.735 48.0937 184.329 49.6887 184.329 51.657Z" fill="#DEE0E3"/>
<path fill-rule="evenodd" clip-rule="evenodd" d="M184.329 75.6414C184.329 77.6097 182.735 79.2046 180.768 79.2046C178.802 79.2046 177.208 77.6097 177.208 75.6414C177.208 73.6731 178.802 72.0782 180.768 72.0782C182.735 72.0782 184.329 73.6731 184.329 75.6414Z" fill="#DEE0E3"/>
<path fill-rule="evenodd" clip-rule="evenodd" d="M184.329 99.6263C184.329 101.595 182.735 103.19 180.768 103.19C178.802 103.19 177.208 101.595 177.208 99.6263C177.208 97.658 178.802 96.0631 180.768 96.0631C182.735 96.0631 184.329 97.658 184.329 99.6263Z" fill="#DEE0E3"/>
<path fill-rule="evenodd" clip-rule="evenodd" d="M184.329 123.611C184.329 125.579 182.735 127.174 180.768 127.174C178.802 127.174 177.208 125.579 177.208 123.611C177.208 121.643 178.802 120.048 180.768 120.048C182.735 120.048 184.329 121.643 184.329 123.611Z" fill="#DEE0E3"/>
<path fill-rule="evenodd" clip-rule="evenodd" d="M184.329 147.596C184.329 149.564 182.735 151.159 180.768 151.159C178.802 151.159 177.208 149.564 177.208 147.596C177.208 145.627 178.802 144.032 180.768 144.032C182.735 144.032 184.329 145.627 184.329 147.596Z" fill="#DEE0E3"/>
<path fill-rule="evenodd" clip-rule="evenodd" d="M184.329 171.58C184.329 173.548 182.735 175.143 180.768 175.143C178.802 175.143 177.208 173.548 177.208 171.58C177.208 169.612 178.802 168.017 180.768 168.017C182.735 168.017 184.329 169.612 184.329 171.58Z" fill="#DEE0E3"/>
<path fill-rule="evenodd" clip-rule="evenodd" d="M184.329 195.565C184.329 197.534 182.735 199.128 180.768 199.128C178.802 199.128 177.208 197.534 177.208 195.565C177.208 193.597 178.802 192.002 180.768 192.002C182.735 192.002 184.329 193.597 184.329 195.565Z" fill="#DEE0E3"/>
<path fill-rule="evenodd" clip-rule="evenodd" d="M184.329 219.546C184.329 221.514 182.735 223.109 180.768 223.109C178.802 223.109 177.208 221.514 177.208 219.546C177.208 217.577 178.802 215.982 180.768 215.982C182.735 215.982 184.329 217.577 184.329 219.546Z" fill="#DEE0E3"/>
<path fill-rule="evenodd" clip-rule="evenodd" d="M184.329 243.53C184.329 245.499 182.735 247.094 180.768 247.094C178.802 247.094 177.208 245.499 177.208 243.53C177.208 241.562 178.802 239.967 180.768 239.967C182.735 239.967 184.329 241.562 184.329 243.53Z" fill="#DEE0E3"/>
<path fill-rule="evenodd" clip-rule="evenodd" d="M160.78 51.657C160.78 53.6252 159.187 55.2202 157.22 55.2202C155.253 55.2202 153.66 53.6252 153.66 51.657C153.66 49.6887 155.253 48.0937 157.22 48.0937C159.187 48.0937 160.78 49.6887 160.78 51.657Z" fill="#DEE0E3"/>
<path fill-rule="evenodd" clip-rule="evenodd" d="M160.78 75.6414C160.78 77.6097 159.187 79.2046 157.22 79.2046C155.253 79.2046 153.66 77.6097 153.66 75.6414C153.66 73.6731 155.253 72.0782 157.22 72.0782C159.187 72.0782 160.78 73.6731 160.78 75.6414Z" fill="#DEE0E3"/>
<path fill-rule="evenodd" clip-rule="evenodd" d="M160.78 99.6263C160.78 101.595 159.187 103.19 157.22 103.19C155.253 103.19 153.66 101.595 153.66 99.6263C153.66 97.658 155.253 96.0631 157.22 96.0631C159.187 96.0631 160.78 97.658 160.78 99.6263Z" fill="#DEE0E3"/>
<path fill-rule="evenodd" clip-rule="evenodd" d="M160.78 123.611C160.78 125.579 159.187 127.174 157.22 127.174C155.253 127.174 153.66 125.579 153.66 123.611C153.66 121.643 155.253 120.048 157.22 120.048C159.187 120.048 160.78 121.643 160.78 123.611Z" fill="#DEE0E3"/>
<path fill-rule="evenodd" clip-rule="evenodd" d="M160.78 147.596C160.78 149.564 159.187 151.159 157.22 151.159C155.253 151.159 153.66 149.564 153.66 147.596C153.66 145.627 155.253 144.032 157.22 144.032C159.187 144.032 160.78 145.627 160.78 147.596Z" fill="#DEE0E3"/>
<path fill-rule="evenodd" clip-rule="evenodd" d="M160.78 171.58C160.78 173.548 159.187 175.143 157.22 175.143C155.253 175.143 153.66 173.548 153.66 171.58C153.66 169.612 155.253 168.017 157.22 168.017C159.187 168.017 160.78 169.612 160.78 171.58Z" fill="#DEE0E3"/>
<path fill-rule="evenodd" clip-rule="evenodd" d="M160.78 195.565C160.78 197.534 159.187 199.128 157.22 199.128C155.253 199.128 153.66 197.534 153.66 195.565C153.66 193.597 155.253 192.002 157.22 192.002C159.187 192.002 160.78 193.597 160.78 195.565Z" fill="#DEE0E3"/>
<path fill-rule="evenodd" clip-rule="evenodd" d="M160.78 219.546C160.78 221.514 159.187 223.109 157.22 223.109C155.253 223.109 153.66 221.514 153.66 219.546C153.66 217.577 155.253 215.982 157.22 215.982C159.187 215.982 160.78 217.577 160.78 219.546Z" fill="#DEE0E3"/>
<path fill-rule="evenodd" clip-rule="evenodd" d="M160.78 243.53C160.78 245.499 159.187 247.094 157.22 247.094C155.253 247.094 153.66 245.499 153.66 243.53C153.66 241.562 155.253 239.967 157.22 239.967C159.187 239.967 160.78 241.562 160.78 243.53Z" fill="#DEE0E3"/>
<path fill-rule="evenodd" clip-rule="evenodd" d="M137.225 51.657C137.225 53.6252 135.631 55.2202 133.664 55.2202C131.698 55.2202 130.104 53.6252 130.104 51.657C130.104 49.6887 131.698 48.0937 133.664 48.0937C135.631 48.0937 137.225 49.6887 137.225 51.657Z" fill="#DEE0E3"/>
<path fill-rule="evenodd" clip-rule="evenodd" d="M137.225 75.6414C137.225 77.6097 135.631 79.2046 133.664 79.2046C131.698 79.2046 130.104 77.6097 130.104 75.6414C130.104 73.6731 131.698 72.0782 133.664 72.0782C135.631 72.0782 137.225 73.6731 137.225 75.6414Z" fill="#DEE0E3"/>
<path fill-rule="evenodd" clip-rule="evenodd" d="M137.225 99.6263C137.225 101.595 135.631 103.19 133.664 103.19C131.698 103.19 130.104 101.595 130.104 99.6263C130.104 97.658 131.698 96.0631 133.664 96.0631C135.631 96.0631 137.225 97.658 137.225 99.6263Z" fill="#DEE0E3"/>
<path fill-rule="evenodd" clip-rule="evenodd" d="M137.225 123.611C137.225 125.579 135.631 127.174 133.664 127.174C131.698 127.174 130.104 125.579 130.104 123.611C130.104 121.643 131.698 120.048 133.664 120.048C135.631 120.048 137.225 121.643 137.225 123.611Z" fill="#DEE0E3"/>
<path fill-rule="evenodd" clip-rule="evenodd" d="M137.225 147.596C137.225 149.564 135.631 151.159 133.664 151.159C131.698 151.159 130.104 149.564 130.104 147.596C130.104 145.627 131.698 144.032 133.664 144.032C135.631 144.032 137.225 145.627 137.225 147.596Z" fill="#DEE0E3"/>
<path fill-rule="evenodd" clip-rule="evenodd" d="M137.225 171.58C137.225 173.548 135.631 175.143 133.664 175.143C131.698 175.143 130.104 173.548 130.104 171.58C130.104 169.612 131.698 168.017 133.664 168.017C135.631 168.017 137.225 169.612 137.225 171.58Z" fill="#DEE0E3"/>
<path fill-rule="evenodd" clip-rule="evenodd" d="M137.225 195.565C137.225 197.534 135.631 199.128 133.664 199.128C131.698 199.128 130.104 197.534 130.104 195.565C130.104 193.597 131.698 192.002 133.664 192.002C135.631 192.002 137.225 193.597 137.225 195.565Z" fill="#DEE0E3"/>
<path fill-rule="evenodd" clip-rule="evenodd" d="M137.225 219.546C137.225 221.514 135.631 223.109 133.664 223.109C131.698 223.109 130.104 221.514 130.104 219.546C130.104 217.577 131.698 215.982 133.664 215.982C135.631 215.982 137.225 217.577 137.225 219.546Z" fill="#DEE0E3"/>
<path fill-rule="evenodd" clip-rule="evenodd" d="M137.225 243.53C137.225 245.499 135.631 247.094 133.664 247.094C131.698 247.094 130.104 245.499 130.104 243.53C130.104 241.562 131.698 239.967 133.664 239.967C135.631 239.967 137.225 241.562 137.225 243.53Z" fill="#DEE0E3"/>
<path fill-rule="evenodd" clip-rule="evenodd" d="M113.669 51.657C113.669 53.6252 112.075 55.2202 110.109 55.2202C108.142 55.2202 106.549 53.6252 106.549 51.657C106.549 49.6887 108.142 48.0937 110.109 48.0937C112.075 48.0937 113.669 49.6887 113.669 51.657Z" fill="#DEE0E3"/>
<path fill-rule="evenodd" clip-rule="evenodd" d="M113.669 75.6414C113.669 77.6097 112.075 79.2046 110.109 79.2046C108.142 79.2046 106.549 77.6097 106.549 75.6414C106.549 73.6731 108.142 72.0782 110.109 72.0782C112.075 72.0782 113.669 73.6731 113.669 75.6414Z" fill="#DEE0E3"/>
<path fill-rule="evenodd" clip-rule="evenodd" d="M113.669 99.6263C113.669 101.595 112.075 103.19 110.109 103.19C108.142 103.19 106.549 101.595 106.549 99.6263C106.549 97.658 108.142 96.0631 110.109 96.0631C112.075 96.0631 113.669 97.658 113.669 99.6263Z" fill="#DEE0E3"/>
<path fill-rule="evenodd" clip-rule="evenodd" d="M113.669 123.611C113.669 125.579 112.075 127.174 110.109 127.174C108.142 127.174 106.549 125.579 106.549 123.611C106.549 121.643 108.142 120.048 110.109 120.048C112.075 120.048 113.669 121.643 113.669 123.611Z" fill="#DEE0E3"/>
<path fill-rule="evenodd" clip-rule="evenodd" d="M113.669 147.596C113.669 149.564 112.075 151.159 110.109 151.159C108.142 151.159 106.549 149.564 106.549 147.596C106.549 145.627 108.142 144.032 110.109 144.032C112.075 144.032 113.669 145.627 113.669 147.596Z" fill="#DEE0E3"/>
<path fill-rule="evenodd" clip-rule="evenodd" d="M113.669 171.58C113.669 173.548 112.075 175.143 110.109 175.143C108.142 175.143 106.549 173.548 106.549 171.58C106.549 169.612 108.142 168.017 110.109 168.017C112.075 168.017 113.669 169.612 113.669 171.58Z" fill="#DEE0E3"/>
<path fill-rule="evenodd" clip-rule="evenodd" d="M113.669 195.565C113.669 197.534 112.075 199.128 110.109 199.128C108.142 199.128 106.549 197.534 106.549 195.565C106.549 193.597 108.142 192.002 110.109 192.002C112.075 192.002 113.669 193.597 113.669 195.565Z" fill="#DEE0E3"/>
<path fill-rule="evenodd" clip-rule="evenodd" d="M113.669 219.546C113.669 221.514 112.075 223.109 110.109 223.109C108.142 223.109 106.549 221.514 106.549 219.546C106.549 217.577 108.142 215.982 110.109 215.982C112.075 215.982 113.669 217.577 113.669 219.546Z" fill="#DEE0E3"/>
<path fill-rule="evenodd" clip-rule="evenodd" d="M113.669 243.53C113.669 245.499 112.075 247.094 110.109 247.094C108.142 247.094 106.549 245.499 106.549 243.53C106.549 241.562 108.142 239.967 110.109 239.967C112.075 239.967 113.669 241.562 113.669 243.53Z" fill="#DEE0E3"/>
<path fill-rule="evenodd" clip-rule="evenodd" d="M90.1201 51.657C90.1201 53.6252 88.5266 55.2202 86.56 55.2202C84.5933 55.2202 82.9998 53.6252 82.9998 51.657C82.9998 49.6887 84.5933 48.0937 86.56 48.0937C88.5266 48.0937 90.1201 49.6887 90.1201 51.657Z" fill="#DEE0E3"/>
<path fill-rule="evenodd" clip-rule="evenodd" d="M90.1201 75.6414C90.1201 77.6097 88.5266 79.2046 86.56 79.2046C84.5933 79.2046 82.9998 77.6097 82.9998 75.6414C82.9998 73.6731 84.5933 72.0782 86.56 72.0782C88.5266 72.0782 90.1201 73.6731 90.1201 75.6414Z" fill="#DEE0E3"/>
<path fill-rule="evenodd" clip-rule="evenodd" d="M90.1201 99.6263C90.1201 101.595 88.5266 103.19 86.56 103.19C84.5933 103.19 82.9998 101.595 82.9998 99.6263C82.9998 97.658 84.5933 96.0631 86.56 96.0631C88.5266 96.0631 90.1201 97.658 90.1201 99.6263Z" fill="#DEE0E3"/>
<path fill-rule="evenodd" clip-rule="evenodd" d="M90.1201 123.611C90.1201 125.579 88.5266 127.174 86.56 127.174C84.5933 127.174 82.9998 125.579 82.9998 123.611C82.9998 121.643 84.5933 120.048 86.56 120.048C88.5266 120.048 90.1201 121.643 90.1201 123.611Z" fill="#DEE0E3"/>
<path fill-rule="evenodd" clip-rule="evenodd" d="M90.1201 147.596C90.1201 149.564 88.5266 151.159 86.56 151.159C84.5933 151.159 82.9998 149.564 82.9998 147.596C82.9998 145.627 84.5933 144.032 86.56 144.032C88.5266 144.032 90.1201 145.627 90.1201 147.596Z" fill="#DEE0E3"/>
<path fill-rule="evenodd" clip-rule="evenodd" d="M90.1201 171.58C90.1201 173.548 88.5266 175.143 86.56 175.143C84.5933 175.143 82.9998 173.548 82.9998 171.58C82.9998 169.612 84.5933 168.017 86.56 168.017C88.5266 168.017 90.1201 169.612 90.1201 171.58Z" fill="#DEE0E3"/>
<path fill-rule="evenodd" clip-rule="evenodd" d="M90.1201 195.565C90.1201 197.534 88.5266 199.128 86.56 199.128C84.5933 199.128 82.9998 197.534 82.9998 195.565C82.9998 193.597 84.5933 192.002 86.56 192.002C88.5266 192.002 90.1201 193.597 90.1201 195.565Z" fill="#DEE0E3"/>
<path fill-rule="evenodd" clip-rule="evenodd" d="M90.1201 219.546C90.1201 221.514 88.5266 223.109 86.56 223.109C84.5933 223.109 82.9998 221.514 82.9998 219.546C82.9998 217.577 84.5933 215.982 86.56 215.982C88.5266 215.982 90.1201 217.577 90.1201 219.546Z" fill="#DEE0E3"/>
<path fill-rule="evenodd" clip-rule="evenodd" d="M90.1201 243.53C90.1201 245.499 88.5266 247.094 86.56 247.094C84.5933 247.094 82.9998 245.499 82.9998 243.53C82.9998 241.562 84.5933 239.967 86.56 239.967C88.5266 239.967 90.1201 241.562 90.1201 243.53Z" fill="#DEE0E3"/>
<path d="M251.871 268.597C245.238 267.096 240.061 262.083 238.511 255.669L234.5 239.094L230.489 255.669C228.939 262.087 223.757 267.096 217.129 268.597L200 272.478L217.129 276.359C223.762 277.859 228.939 282.873 230.489 289.287L234.5 305.862L238.511 289.287C240.061 282.868 245.243 277.859 251.871 276.359L269 272.478L251.871 268.597Z" fill="#E2C89F"/>
<rect x="310" y="157.094" width="67.9958" height="68.0021" rx="6.87468" fill="white"/>
<path d="M370.441 157.094C372.444 157.094 374.366 157.89 375.783 159.307C377.2 160.724 377.996 162.646 377.996 164.65V217.54C377.996 219.544 377.2 221.466 375.783 222.883C374.366 224.3 372.444 225.096 370.441 225.096H317.555C315.551 225.096 313.63 224.3 312.213 222.883C310.796 221.466 310 219.544 310 217.54V164.65C310 162.646 310.796 160.724 312.213 159.307C313.63 157.89 315.551 157.094 317.555 157.094H370.441ZM368.552 215.651V195.628C368.552 192.362 367.255 189.229 364.945 186.92C362.636 184.61 359.503 183.312 356.237 183.312C353.026 183.312 349.286 185.277 347.473 188.224V184.03H336.934V215.651H347.473V197.026C347.473 194.117 349.815 191.737 352.724 191.737C354.127 191.737 355.472 192.294 356.464 193.286C357.455 194.278 358.013 195.623 358.013 197.026V215.651H368.552ZM324.657 178.099C326.34 178.099 327.954 177.43 329.144 176.24C330.335 175.05 331.003 173.435 331.003 171.752C331.003 168.239 328.17 165.367 324.657 165.367C322.964 165.367 321.34 166.04 320.143 167.237C318.945 168.435 318.273 170.059 318.273 171.752C318.273 175.265 321.144 178.099 324.657 178.099ZM329.908 215.651V184.03H319.444V215.651H329.908Z" fill="#0E0F0F"/>
</svg>
