<svg width="280.5" height="354" xmlns="http://www.w3.org/2000/svg" fill="none" viewBox="2.88 16.88 282.75 355.13">
<path d="M 144.3 84.3 L 187.6 18 L 185.5 98.4 L 257.7 71.4 L 210.9 135.2 L 284.5 157.9 L 210.9 180.6 L 257.7 244.3 L 185.5 217.4 L 187.6 297.8 L 144.3 231.4 L 100.9 297.8 L 103 217.4 L 30.8 244.3 L 77.6 180.6 L 4 157.9 L 77.6 135.2 L 30.8 71.4 L 103 98.4 L 100.9 18 L 144.3 84.3 Z" stroke="#dee0e3" stroke-width="2.25" stroke-miterlimit="10"/>
<g filter="url(#filter0_d_498_70198)">
<rect x="71" y="20" width="44.4" height="42" rx="12" fill="white" shape-rendering="crispEdges"/>
<g clip-path="url(#clip0_498_70198)">
<path fill-rule="evenodd" clip-rule="evenodd" d="M 95.3 31.4 C 95 31.4 94.8 31.5 94.7 31.6 C 94.5 31.7 94.4 31.9 94.3 32.2 C 94.3 32.6 94.6 33 95.1 33.1 C 98.2 33.4 100.6 35.8 100.9 38.9 C 101 39.4 101.3 39.7 101.8 39.7 C 101.8 39.7 101.8 39.7 101.9 39.7 C 102.1 39.6 102.3 39.5 102.4 39.4 C 102.5 39.2 102.6 39 102.6 38.8 C 102.1 34.9 99.1 31.9 95.3 31.4 Z M 95.3 34.8 C 94.9 34.7 94.4 35 94.4 35.4 C 94.3 35.9 94.6 36.3 95 36.4 C 96.3 36.6 97.4 37.7 97.6 39 V 39 C 97.7 39.4 98 39.7 98.4 39.7 C 98.5 39.7 98.5 39.7 98.6 39.7 C 99 39.6 99.3 39.1 99.2 38.7 C 98.9 36.7 97.3 35.2 95.3 34.8 Z M 96.8 44 C 97.3 43.7 97.8 43.4 98.4 43.6 C 98.9 43.7 100.8 45.2 101.4 45.8 C 101.7 46.1 101.9 46.5 101.9 46.8 C 102 48.3 100 49.9 99.7 50.1 C 99.2 50.4 98.7 50.6 98.1 50.6 C 97.4 50.6 96.7 50.4 96 50.1 C 91.9 48.3 85.6 42.2 83.9 38.1 C 83.2 36.6 83.2 35.3 83.9 34.4 C 84.2 33.9 85.7 32.1 87.1 32.2 C 87.5 32.2 87.9 32.4 88.2 32.7 C 88.7 33.2 90.3 35.2 90.4 35.7 C 90.5 36.3 90.2 36.8 90 37.3 C 89.9 37.4 89.8 37.5 89.8 37.6 C 89.5 38.1 89.1 38.7 89.2 39.1 C 90.2 41.5 92.6 43.7 95 44.7 C 95.4 44.9 96 44.5 96.5 44.2 C 96.6 44.1 96.7 44 96.8 44 L 96.8 44 Z" fill="#0e0f0f"/>
</g>
</g>
<path d="M 72.1 362 C 70.3 361.5 68.9 360.2 68.5 358.5 L 67.4 354 L 66.3 358.5 C 65.9 360.2 64.5 361.5 62.7 362 L 58 363 L 62.7 364 C 64.5 364.5 65.9 365.8 66.3 367.5 L 67.4 372 L 68.5 367.5 C 68.9 365.8 70.3 364.5 72.1 364 L 76.8 363 L 72.1 362 Z" fill="#0e0f0f"/>
<defs>
<filter id="filter0_d_498_70198" x="46.4" y="0.800022" width="93.5998" height="91.1999" filterUnits="userSpaceOnUse" color-interpolation-filters="sRGB">
<feFlood flood-opacity="0" result="BackgroundImageFix"/>
<feColorMatrix in="SourceAlpha" type="matrix" values="0 0 0 0 0 0 0 0 0 0 0 0 0 0 0 0 0 0 127 0" result="hardAlpha"/>
<feOffset dy="5.39999"/>
<feGaussianBlur stdDeviation="12.3"/>
<feComposite in2="hardAlpha" operator="out"/>
<feColorMatrix type="matrix" values="0 0 0 0 0.145098 0 0 0 0 0.141176 0 0 0 0 0.141176 0 0 0 0.05 0"/>
<feBlend mode="normal" in2="BackgroundImageFix" result="effect1_dropShadow_498_70198"/>
<feBlend mode="normal" in="SourceGraphic" in2="effect1_dropShadow_498_70198" result="shape"/>
</filter>
<filter id="filter1_d_498_70198" x="46.4" y="0.800022" width="93.5998" height="91.1999" filterUnits="userSpaceOnUse" color-interpolation-filters="sRGB">
<feFlood flood-opacity="0" result="BackgroundImageFix"/>
<feColorMatrix in="SourceAlpha" type="matrix" values="0 0 0 0 0 0 0 0 0 0 0 0 0 0 0 0 0 0 127 0" result="hardAlpha"/>
<feOffset dy="5.39999"/>
<feGaussianBlur stdDeviation="12.3"/>
<feComposite in2="hardAlpha" operator="out"/>
<feColorMatrix type="matrix" values="0 0 0 0 0.145098 0 0 0 0 0.141176 0 0 0 0 0.141176 0 0 0 0.05 0"/>
<feBlend mode="normal" in2="BackgroundImageFix" result="effect1_dropShadow_498_70198"/>
<feBlend mode="normal" in="SourceGraphic" in2="effect1_dropShadow_498_70198" result="shape"/>
</filter>
<clipPath id="clip0_498_70198">
<rect width="22.8" height="22.8" fill="white" transform="translate(81.8,29.6)"/>
</clipPath>
</defs>
    <polyline points="105,44 35,17" fill="rgb(255, 255, 255)"/>
</svg>