<svg width="32" height="32" viewBox="0 0 32 32" fill="none" xmlns="http://www.w3.org/2000/svg">
<g id="el:facebook">
<g clip-path="url(#clip0_498_73982)">
<rect id="Rectangle 2927" width="32" height="32" fill="#0E0F0F"/>
<path id="Vector" d="M24.1803 8.06657L6.41283 15.2579C5.83819 15.4915 5.87031 16.3478 6.46637 16.5294L10.9814 17.9158L12.6661 23.4687C12.841 24.047 13.5512 24.2249 13.9581 23.7912L16.2924 21.315L20.8716 24.8069C21.432 25.2332 22.2315 24.9181 22.3743 24.2101L25.4081 9.14528C25.558 8.4076 24.8584 7.79226 24.1803 8.06657ZM21.9531 11.4102L13.7011 18.9908C13.619 19.0649 13.5655 19.1724 13.5548 19.2836L13.2371 22.2158C13.2264 22.3122 13.0979 22.3233 13.0694 22.2306L11.7595 17.8565C11.6988 17.6563 11.7773 17.4376 11.9487 17.3301L21.6961 11.0506C21.921 10.9061 22.1494 11.2248 21.9531 11.4065V11.4102Z" fill="white"/>
</g>
</g>
<defs>
<clipPath id="clip0_498_73982">
<rect width="32" height="32" rx="6" fill="white"/>
</clipPath>
</defs>
</svg>
