<svg width="43" height="45" viewBox="0 0 43 45" fill="none" xmlns="http://www.w3.org/2000/svg">
<ellipse cx="16.5" cy="16.6813" rx="16.5" ry="16.6813" fill="#B5B7BA"/>
<path fill-rule="evenodd" clip-rule="evenodd" d="M39.0775 22.4421C38.0656 16.2142 32.7757 11.581 26.4688 11.3986C26.169 11.3868 25.8767 11.4948 25.6565 11.6987C25.4363 11.9026 25.3062 12.1856 25.2949 12.4855V12.4855V12.587L26.0051 23.2102C26.0516 23.9253 26.6664 24.4689 27.3819 24.4276L38.0341 23.7174C38.3342 23.6952 38.6131 23.5542 38.809 23.3257C39.0048 23.0972 39.1015 22.8 39.0775 22.5V22.4421Z" stroke="white" stroke-width="2.375" stroke-linecap="round" stroke-linejoin="round"/>
<path d="M19.0931 17.7174C19.7707 17.5606 20.4641 17.9073 20.7453 18.5435C20.8189 18.6931 20.8632 18.8554 20.8757 19.0217C21.0207 21.0797 21.325 25.5869 21.4989 28.0217C21.5286 28.4603 21.7319 28.869 22.0637 29.1573C22.3955 29.4456 22.8286 29.5898 23.267 29.558V29.558L32.2091 29.0072C32.6083 28.9832 32.9996 29.1253 33.2905 29.3997C33.5814 29.6741 33.746 30.0566 33.7453 30.4565V30.4565C33.3829 35.8563 29.5034 40.3704 24.2195 41.5405C18.9356 42.7106 13.5129 40.2564 10.9047 35.5145C10.1261 34.1497 9.63304 32.6409 9.45544 31.0797C9.37952 30.6006 9.35039 30.1152 9.36848 29.6304C9.38386 23.8639 13.4337 18.8953 19.0786 17.7174" stroke="white" stroke-width="2.375" stroke-linecap="round" stroke-linejoin="round"/>
</svg>
