<svg width="46" height="46" viewBox="0 0 46 46" fill="none" xmlns="http://www.w3.org/2000/svg">
<ellipse cx="16.5" cy="16.6813" rx="16.5" ry="16.6813" fill="#B5B7BA"/>
<path d="M12.8945 22.6362H41.1158" stroke="white" stroke-width="2.375" stroke-linecap="round" stroke-linejoin="round"/>
<path d="M34.0347 28.8877H34.0493" stroke="white" stroke-width="2.375" stroke-linecap="round" stroke-linejoin="round"/>
<path d="M27.0093 28.8877H27.0239" stroke="white" stroke-width="2.375" stroke-linecap="round" stroke-linejoin="round"/>
<path d="M19.9663 28.8877H19.981" stroke="white" stroke-width="2.375" stroke-linecap="round" stroke-linejoin="round"/>
<path d="M34.0347 35.1089H34.0493" stroke="white" stroke-width="2.375" stroke-linecap="round" stroke-linejoin="round"/>
<path d="M27.0093 35.1089H27.0239" stroke="white" stroke-width="2.375" stroke-linecap="round" stroke-linejoin="round"/>
<path d="M19.9663 35.1089H19.981" stroke="white" stroke-width="2.375" stroke-linecap="round" stroke-linejoin="round"/>
<path d="M33.4014 10.7839V16.0516" stroke="white" stroke-width="2.375" stroke-linecap="round" stroke-linejoin="round"/>
<path d="M20.6123 10.7839V16.0516" stroke="white" stroke-width="2.375" stroke-linecap="round" stroke-linejoin="round"/>
<path fill-rule="evenodd" clip-rule="evenodd" d="M33.7106 13.3118H20.304C15.6543 13.3118 12.75 15.9305 12.75 20.744V35.2301C12.75 40.1193 15.6543 42.7985 20.304 42.7985H33.6959C38.3603 42.7985 41.2499 40.1647 41.2499 35.3512V20.744C41.2646 15.9305 38.375 13.3118 33.7106 13.3118Z" stroke="white" stroke-width="2.375" stroke-linecap="round" stroke-linejoin="round"/>
</svg>
