<svg width="46" height="48" viewBox="0 0 46 48" fill="none" xmlns="http://www.w3.org/2000/svg">
<ellipse cx="16.5" cy="16.6813" rx="16.5" ry="16.6813" fill="#B5B7BA"/>
<path d="M35.3427 24.3469L28.5891 29.7845C27.311 30.7866 25.5194 30.7866 24.2413 29.7845L17.4297 24.3469" stroke="white" stroke-width="2.375" stroke-linecap="round" stroke-linejoin="round"/>
<path fill-rule="evenodd" clip-rule="evenodd" d="M18.9071 15.5417H33.8346C35.987 15.5659 38.0356 16.4758 39.5033 18.0596C40.971 19.6433 41.7297 21.7627 41.6028 23.9241V34.2599C41.7297 36.4213 40.971 38.5407 39.5033 40.1244C38.0356 41.7082 35.987 42.6181 33.8346 42.6423H18.9071C14.2839 42.6423 11.168 38.8811 11.168 34.2599V23.9241C11.168 19.3029 14.2839 15.5417 18.9071 15.5417Z" stroke="white" stroke-width="2.375" stroke-linecap="round" stroke-linejoin="round"/>
</svg>
