<svg width="46" height="46" viewBox="0 0 46 46" fill="none" xmlns="http://www.w3.org/2000/svg">
<ellipse cx="16.5" cy="16.6813" rx="16.5" ry="16.6813" fill="#B5B7BA"/>
<path fill-rule="evenodd" clip-rule="evenodd" d="M13.5443 29.8294V29.4827C13.5951 28.4569 13.9239 27.4629 14.4967 26.6034C15.4501 25.5708 16.1027 24.3055 16.3862 22.9401C16.3862 21.8849 16.3862 20.8146 16.4784 19.7593C16.9546 14.679 21.9778 11.1665 26.9396 11.1665H27.0625C32.0243 11.1665 37.0476 14.679 37.5392 19.7593C37.6314 20.8146 37.5392 21.8849 37.616 22.9401C37.9032 24.3087 38.5552 25.5779 39.5055 26.6185C40.0825 27.4704 40.4118 28.4607 40.4579 29.4827V29.8144C40.4922 31.1926 40.0175 32.5365 39.1214 33.5982C37.9373 34.8397 36.3305 35.612 34.6051 35.769C29.5457 36.3117 24.4411 36.3117 19.3817 35.769C17.6583 35.6052 16.0538 34.834 14.8654 33.5982C13.9831 32.5357 13.5148 31.1998 13.5443 29.8294Z" stroke="white" stroke-width="2.375" stroke-linecap="round" stroke-linejoin="round"/>
<path d="M23.1289 41.0151C23.9194 42.0074 25.0803 42.6495 26.3546 42.7995C27.6289 42.9494 28.9116 42.5948 29.9188 41.8141C30.2285 41.5832 30.5072 41.3148 30.7483 41.0151" stroke="white" stroke-width="2.375" stroke-linecap="round" stroke-linejoin="round"/>
</svg>
