<svg width="643" height="406" viewBox="0 0 643 406" fill="none" xmlns="http://www.w3.org/2000/svg">
<circle cx="550.248" cy="206.499" r="180.5" fill="#E2C89F"/>
<path d="M461.617 98.8544C601.559 -30.1915 688.29 -163.157 655.336 -198.133C622.383 -233.109 482.223 -156.85 342.282 -27.8042C202.34 101.242 115.609 234.208 148.562 269.183C181.516 304.159 321.675 227.9 461.617 98.8544Z" stroke="#DEE0E3" stroke-width="4" stroke-miterlimit="10"/>
<path d="M515.806 157.85C655.748 28.8041 742.479 -104.162 709.526 -139.138C676.572 -174.113 536.413 -97.8545 396.471 31.1914C256.529 160.237 169.798 293.203 202.752 328.179C235.705 363.155 375.864 286.896 515.806 157.85Z" stroke="#DEE0E3" stroke-width="4" stroke-miterlimit="10"/>
<path d="M262.106 124.812C227.387 131.726 220.119 139.022 213.392 173.685C200.472 137.434 191.818 128.854 155.39 116.184C190.109 109.27 197.377 101.978 204.104 67.3116C217.021 103.566 225.678 112.145 262.103 124.811L262.106 124.812Z" fill="#DEE0E3"/>
</svg>
