<svg width="46" height="48" viewBox="0 0 46 48" fill="none" xmlns="http://www.w3.org/2000/svg">
<ellipse cx="16.5" cy="16.6813" rx="16.5" ry="16.6813" fill="#B5B7BA"/>
<path fill-rule="evenodd" clip-rule="evenodd" d="M23.6399 34.0767C17.5536 34.0767 12.3555 34.9966 12.3555 38.6826C12.3555 42.367 17.5203 43.3217 23.6399 43.3217C29.7262 43.3217 34.9243 42.4002 34.9243 38.7158C34.9243 35.0314 29.7595 34.0767 23.6399 34.0767Z" stroke="white" stroke-width="2.375" stroke-linecap="round" stroke-linejoin="round"/>
<path fill-rule="evenodd" clip-rule="evenodd" d="M23.6389 28.8193C27.6543 28.8193 30.8716 25.6004 30.8716 21.5867C30.8716 17.5713 27.6543 14.354 23.6389 14.354C19.6252 14.354 16.4062 17.5713 16.4062 21.5867C16.4062 25.6004 19.6252 28.8193 23.6389 28.8193Z" stroke="white" stroke-width="2.375" stroke-linecap="round" stroke-linejoin="round"/>
<path d="M38.4069 23.7261V30.0752" stroke="white" stroke-width="2.375" stroke-linecap="round" stroke-linejoin="round"/>
<path d="M41.6477 26.9006H35.1719" stroke="white" stroke-width="2.375" stroke-linecap="round" stroke-linejoin="round"/>
</svg>
