<svg width="376" height="357" viewBox="0 0 376 357" fill="none" xmlns="http://www.w3.org/2000/svg">
<g clip-path="url(#clip0_805_8604)">
<path d="M30.0707 74.45C38.7007 67.65 51.1607 62.66 69.6007 60.54C51.1607 58.42 38.7007 53.43 30.0707 46.63C23.2707 38 18.2807 25.54 16.1607 7.09998C14.0407 25.54 9.0507 38 2.2507 46.63C-6.3793 53.43 -18.8393 58.42 -37.2793 60.54C-18.8393 62.66 -6.3793 67.65 2.2507 74.45C9.0507 83.08 14.0407 95.54 16.1607 113.98C18.2807 95.54 23.2707 83.08 30.0707 74.45Z" fill="#191B1B"/>
<path d="M235.42 227.35C244.05 220.55 256.51 215.56 274.95 213.44C256.51 211.32 244.05 206.33 235.42 199.53C228.62 190.9 223.63 178.44 221.51 160C219.39 178.44 214.4 190.9 207.6 199.53C198.97 206.33 186.51 211.32 168.07 213.44C186.51 215.56 198.97 220.55 207.6 227.35C214.4 235.98 219.39 248.44 221.51 266.88C223.63 248.44 228.62 235.98 235.42 227.35Z" fill="#191B1B"/>
<path d="M207.094 235.095C270.941 171.248 270.941 67.7319 207.094 3.8851C143.247 -59.9617 39.731 -59.9617 -24.1158 3.8851C-87.9626 67.7319 -87.9626 171.248 -24.1158 235.095C39.731 298.942 143.247 298.942 207.094 235.095Z" stroke="#191B1B" stroke-width="4" stroke-miterlimit="10"/>
<path d="M262.563 272.428C326.41 208.581 326.41 105.065 262.563 41.2182C198.716 -22.6286 95.1998 -22.6286 31.3529 41.2182C-32.4939 105.065 -32.4939 208.581 31.3529 272.428C95.1998 336.275 198.716 336.275 262.563 272.428Z" stroke="#191B1B" stroke-width="4" stroke-miterlimit="10"/>
<path d="M209.9 354.95C300.193 354.95 373.39 281.753 373.39 191.46C373.39 101.167 300.193 27.97 209.9 27.97C119.607 27.97 46.4102 101.167 46.4102 191.46C46.4102 281.753 119.607 354.95 209.9 354.95Z" stroke="#191B1B" stroke-width="4" stroke-miterlimit="10"/>
</g>
<defs>
<clipPath id="clip0_805_8604">
<rect width="449.39" height="402.94" fill="white" transform="translate(-74 -46)"/>
</clipPath>
</defs>
</svg>
