<svg width="307" height="6" viewBox="0 0 307 6" fill="none" xmlns="http://www.w3.org/2000/svg">
<path fill-rule="evenodd" clip-rule="evenodd" d="M307 2.68457C307 4.1675 305.799 5.36915 304.318 5.36915C302.836 5.36915 301.635 4.1675 301.635 2.68457C301.635 1.20163 302.836 -1.82013e-07 304.318 -1.17247e-07C305.799 -5.24806e-08 307 1.20163 307 2.68457Z" fill="#DEE0E3"/>
<path fill-rule="evenodd" clip-rule="evenodd" d="M289.256 2.68457C289.256 4.1675 288.055 5.36915 286.574 5.36915C285.092 5.36915 283.891 4.1675 283.891 2.68457C283.891 1.20163 285.092 -1.82013e-07 286.574 -1.17247e-07C288.055 -5.24805e-08 289.256 1.20163 289.256 2.68457Z" fill="#DEE0E3"/>
<path fill-rule="evenodd" clip-rule="evenodd" d="M271.512 2.68457C271.512 4.1675 270.311 5.36915 268.829 5.36915C267.348 5.36915 266.147 4.1675 266.147 2.68457C266.147 1.20163 267.348 -1.82013e-07 268.829 -1.17247e-07C270.311 -5.24805e-08 271.512 1.20163 271.512 2.68457Z" fill="#DEE0E3"/>
<path fill-rule="evenodd" clip-rule="evenodd" d="M253.77 2.68457C253.77 4.1675 252.569 5.36915 251.087 5.36915C249.606 5.36915 248.405 4.1675 248.405 2.68457C248.405 1.20163 249.606 -1.82013e-07 251.087 -1.17247e-07C252.569 -5.24805e-08 253.77 1.20163 253.77 2.68457Z" fill="#DEE0E3"/>
<path fill-rule="evenodd" clip-rule="evenodd" d="M236.025 2.68457C236.025 4.1675 234.825 5.36915 233.343 5.36915C231.861 5.36915 230.661 4.1675 230.661 2.68457C230.661 1.20163 231.861 -1.82013e-07 233.343 -1.17247e-07C234.825 -5.24805e-08 236.025 1.20163 236.025 2.68457Z" fill="#DEE0E3"/>
<path fill-rule="evenodd" clip-rule="evenodd" d="M218.283 2.68457C218.283 4.1675 217.083 5.36915 215.601 5.36915C214.119 5.36915 212.919 4.1675 212.919 2.68457C212.919 1.20163 214.119 -1.82013e-07 215.601 -1.17247e-07C217.083 -5.24805e-08 218.283 1.20163 218.283 2.68457Z" fill="#DEE0E3"/>
<path fill-rule="evenodd" clip-rule="evenodd" d="M200.543 2.68457C200.543 4.1675 199.342 5.36915 197.861 5.36915C196.379 5.36915 195.178 4.1675 195.178 2.68457C195.178 1.20163 196.379 -1.82013e-07 197.861 -1.17247e-07C199.342 -5.24805e-08 200.543 1.20163 200.543 2.68457Z" fill="#DEE0E3"/>
<path fill-rule="evenodd" clip-rule="evenodd" d="M182.799 2.68457C182.799 4.1675 181.598 5.36915 180.117 5.36915C178.635 5.36915 177.434 4.1675 177.434 2.68457C177.434 1.20163 178.635 -1.82013e-07 180.117 -1.17247e-07C181.598 -5.24805e-08 182.799 1.20163 182.799 2.68457Z" fill="#DEE0E3"/>
<path fill-rule="evenodd" clip-rule="evenodd" d="M165.055 2.68457C165.055 4.1675 163.854 5.36915 162.372 5.36915C160.891 5.36915 159.69 4.1675 159.69 2.68457C159.69 1.20163 160.891 -1.82013e-07 162.372 -1.17247e-07C163.854 -5.24805e-08 165.055 1.20163 165.055 2.68457Z" fill="#DEE0E3"/>
<path fill-rule="evenodd" clip-rule="evenodd" d="M147.312 2.68457C147.312 4.1675 146.112 5.36915 144.63 5.36915C143.149 5.36915 141.948 4.1675 141.948 2.68457C141.948 1.20163 143.149 -1.82012e-07 144.63 -1.17246e-07C146.112 -5.24801e-08 147.312 1.20163 147.312 2.68457Z" fill="#DEE0E3"/>
<path fill-rule="evenodd" clip-rule="evenodd" d="M129.568 2.68457C129.568 4.1675 128.368 5.36915 126.886 5.36915C125.404 5.36915 124.204 4.1675 124.204 2.68457C124.204 1.20163 125.404 -1.82013e-07 126.886 -1.17247e-07C128.368 -5.24809e-08 129.568 1.20163 129.568 2.68457Z" fill="#DEE0E3"/>
<path fill-rule="evenodd" clip-rule="evenodd" d="M111.826 2.68457C111.826 4.1675 110.626 5.36915 109.144 5.36915C107.662 5.36915 106.462 4.1675 106.462 2.68457C106.462 1.20163 107.662 -1.82013e-07 109.144 -1.17247e-07C110.626 -5.24809e-08 111.826 1.20163 111.826 2.68457Z" fill="#DEE0E3"/>
<path fill-rule="evenodd" clip-rule="evenodd" d="M94.082 2.68457C94.082 4.1675 92.8814 5.36915 91.3998 5.36915C89.9181 5.36915 88.7175 4.1675 88.7175 2.68457C88.7175 1.20163 89.9181 -1.82012e-07 91.3998 -1.17246e-07C92.8814 -5.24801e-08 94.082 1.20163 94.082 2.68457Z" fill="#DEE0E3"/>
<path fill-rule="evenodd" clip-rule="evenodd" d="M76.3379 2.68457C76.3379 4.1675 75.1373 5.36915 73.6556 5.36915C72.1739 5.36915 70.9733 4.1675 70.9733 2.68457C70.9733 1.20163 72.1739 -1.82012e-07 73.6556 -1.17246e-07C75.1373 -5.24801e-08 76.3379 1.20163 76.3379 2.68457Z" fill="#DEE0E3"/>
<path fill-rule="evenodd" clip-rule="evenodd" d="M58.5957 2.68457C58.5957 4.1675 57.3951 5.36915 55.9134 5.36915C54.4317 5.36915 53.2311 4.1675 53.2311 2.68457C53.2311 1.20163 54.4317 -1.82013e-07 55.9134 -1.17247e-07C57.3951 -5.24809e-08 58.5957 1.20163 58.5957 2.68457Z" fill="#DEE0E3"/>
<path fill-rule="evenodd" clip-rule="evenodd" d="M40.8516 2.68457C40.8516 4.1675 39.651 5.36915 38.1693 5.36915C36.6876 5.36915 35.487 4.1675 35.487 2.68457C35.487 1.20163 36.6876 -1.82012e-07 38.1693 -1.17246e-07C39.651 -5.24801e-08 40.8516 1.20163 40.8516 2.68457Z" fill="#DEE0E3"/>
<path fill-rule="evenodd" clip-rule="evenodd" d="M23.1074 2.68457C23.1074 4.1675 21.9068 5.36915 20.4251 5.36915C18.9435 5.36915 17.7428 4.1675 17.7428 2.68457C17.7428 1.20163 18.9435 -1.82012e-07 20.4251 -1.17246e-07C21.9068 -5.24801e-08 23.1074 1.20163 23.1074 2.68457Z" fill="#DEE0E3"/>
<path fill-rule="evenodd" clip-rule="evenodd" d="M5.36719 2.68457C5.36719 4.1675 4.16658 5.36915 2.68491 5.36915C1.20323 5.36915 0.00260812 4.1675 0.00260818 2.68457C0.00260825 1.20163 1.20323 -1.82012e-07 2.68491 -1.17246e-07C4.16658 -5.24801e-08 5.36719 1.20163 5.36719 2.68457Z" fill="#DEE0E3"/>
</svg>
