<svg width="42" height="44" viewBox="0 0 42 44" fill="none" xmlns="http://www.w3.org/2000/svg">
<ellipse cx="16.5" cy="16.6813" rx="16.5" ry="16.6813" fill="#E899B0"/>
<path fill-rule="evenodd" clip-rule="evenodd" d="M28.1098 12.7701C28.0505 12.7596 27.9895 12.754 27.9271 12.754C27.8648 12.754 27.8038 12.7596 27.7445 12.7701H19.1297C15.7051 12.7701 12.8184 15.5483 12.8184 18.9369V33.6867C12.8184 37.2672 15.5783 40.104 19.1297 40.104H30.129C33.5068 40.104 36.2958 37.1274 36.2958 33.6867V21.0668C36.2958 20.8002 36.1927 20.544 36.0081 20.3517L29.0345 13.0876C28.8398 12.8848 28.5708 12.7701 28.2896 12.7701H28.1098ZM26.8945 14.8342L19.1289 14.8353C16.8276 14.8353 14.8828 16.707 14.8828 18.9369V33.6866C14.8828 36.1391 16.731 38.0387 19.1289 38.0387H30.1283C32.3343 38.0387 34.2298 36.0158 34.2298 33.6866L34.2289 22.3684L33.0235 22.3725C32.5641 22.372 32.0416 22.371 31.4606 22.3697C29.0243 22.3645 27.036 20.4549 26.9018 18.0512L26.8945 17.7918V14.8342ZM33.0988 20.3042L31.4651 20.3045C30.0808 20.3015 28.9597 19.1775 28.9597 17.7918V15.9929L33.0988 20.3042ZM27.6663 30.3876C28.2366 30.3876 28.6989 30.8499 28.6989 31.4202C28.6989 31.943 28.3105 32.375 27.8064 32.4434L27.6663 32.4528H20.2357C19.6654 32.4528 19.2031 31.9905 19.2031 31.4202C19.2031 30.8974 19.5915 30.4654 20.0955 30.397L20.2357 30.3876H27.6663ZM25.8889 24.6019C25.8889 24.0317 25.4266 23.5693 24.8563 23.5693H20.2357L20.0956 23.5788C19.5916 23.6471 19.2031 24.0792 19.2031 24.6019C19.2031 25.1722 19.6654 25.6346 20.2357 25.6346H24.8563L24.9964 25.6251C25.5005 25.5568 25.8889 25.1247 25.8889 24.6019Z" fill="#0E0F0F"/>
</svg>
