<svg width="39" height="42" viewBox="0 0 39 42" fill="none" xmlns="http://www.w3.org/2000/svg">
<ellipse cx="16.5" cy="16.6813" rx="16.5" ry="16.6813" fill="#C8CCD1"/>
<path fill-rule="evenodd" clip-rule="evenodd" d="M15.5552 10.7537H27.4889C32.1757 10.7537 35.2901 14.099 35.2901 18.8999V30.1437C35.2901 34.9448 32.1755 38.2899 27.4875 38.2899H15.5552C10.8683 38.2899 7.75391 34.9446 7.75391 30.1437V18.8999C7.75391 14.103 10.8757 10.7537 15.5552 10.7537ZM27.4895 12.8232H15.5558C12.0532 12.8232 9.82422 15.2147 9.82422 18.8998V30.1436C9.82422 31.1692 9.99592 32.0942 10.3193 32.8952L11.9024 30.9734L12.602 30.1108C14.363 27.9288 15.9774 26.9863 18.0918 27.872C18.4129 28.0067 18.6875 28.1522 19.0389 28.3691L19.9485 28.956C20.8568 29.5318 21.2894 29.6144 21.9537 29.2545C22.5442 28.935 22.9584 28.4881 23.5882 27.5186L24.0016 26.8609L24.2828 26.4099C24.5356 26.0105 24.7157 25.7484 24.936 25.463C26.393 23.5774 28.6648 22.9634 30.6505 24.158C31.5107 24.6764 32.1355 25.1909 33.2211 26.2268V18.8998C33.2211 15.2102 30.9989 12.8232 27.4895 12.8232ZM33.2211 29.0861L33.1532 29.0253C33.0097 28.8932 32.8562 28.7485 32.6721 28.5721L31.7092 27.6452C30.7859 26.7685 30.2576 26.3376 29.5829 25.931C28.5628 25.3173 27.4269 25.6243 26.5741 26.728L26.4016 26.9603C26.3444 27.0407 26.2861 27.1256 26.2233 27.2204L25.6842 28.0754C24.6677 29.7225 24.0508 30.473 22.9392 31.0745C21.5701 31.8163 20.4544 31.6622 19.0977 30.8616L18.4948 30.48L17.9878 30.1528C17.7062 29.9779 17.505 29.8702 17.2917 29.7807C16.3686 29.3941 15.5484 29.8215 14.4157 31.1643L11.9287 34.2026C11.7944 34.3651 11.6557 34.5327 11.5119 34.7065C12.4988 35.6763 13.8806 36.2201 15.5558 36.2201H27.4881C30.9988 36.2201 33.2211 33.8334 33.2211 30.1436V29.0861ZM13.6348 20.1157C13.6348 18.1385 15.2389 16.5338 17.2153 16.5338C19.1928 16.5338 20.7972 18.1382 20.7972 20.1157C20.7972 22.0932 19.1928 23.6976 17.2153 23.6976C15.2389 23.6976 13.6348 22.0929 13.6348 20.1157ZM18.7282 20.1156C18.7282 19.2812 18.0504 18.6034 17.2159 18.6034C16.3827 18.6034 15.7051 19.2813 15.7051 20.1156C15.7051 20.95 16.3827 21.6279 17.2159 21.6279C18.0504 21.6279 18.7282 20.9501 18.7282 20.1156Z" fill="#0E0F0F"/>
</svg>
