<svg width="140" height="140" viewBox="0 0 140 140" fill="none" xmlns="http://www.w3.org/2000/svg">
<g filter="url(#filter0_d_805_8587)">
<circle cx="70.1847" cy="61.1836" r="28.2469" transform="rotate(19.9296 70.1847 61.1836)" fill="#19B6B1"/>
<path fill-rule="evenodd" clip-rule="evenodd" d="M78.1674 49.6933C79.1061 49.8134 80.0254 50.0591 80.8761 50.457C86.1261 52.8545 87.2921 58.827 84.9293 63.6145C83.6293 66.0491 81.7659 68.1845 79.4885 69.8326C76.2409 72.1056 72.7558 74.0463 69.0757 75.6314L68.6735 75.797L68.3191 75.5201C65.1989 73.079 62.3618 70.329 59.8396 67.303C58.1169 65.1428 56.9124 62.6291 56.3232 59.9526C55.3523 54.7384 58.1432 49.2724 63.9383 48.2586C64.3898 48.1726 64.8486 48.1307 65.3027 48.1327L65.4812 48.1556C65.9074 48.1512 66.3263 48.1775 66.7428 48.2308L66.9064 48.2518C67.8398 48.3986 68.7252 48.6701 69.564 49.0665L69.6518 49.0777C69.7075 49.1121 69.7479 49.1475 69.7738 49.1781C70.0883 49.3205 70.3832 49.4733 70.6586 49.6667L71.1898 49.9791C71.3166 50.0658 71.4549 50.1911 71.5744 50.2993C71.6501 50.3679 71.7183 50.4297 71.7713 50.4705C71.7936 50.4872 71.8164 50.5041 71.8393 50.521C71.9568 50.608 72.0792 50.6987 72.1797 50.7946C74.0027 49.8072 76.1017 49.4145 78.1674 49.6933ZM80.6801 60.3674C81.2922 60.4299 81.8788 60.032 82.0079 59.4432L82.0318 59.2751C82.3574 57.3024 81.349 55.3487 79.5269 54.4109C78.9453 54.1337 78.2315 54.3601 77.9241 54.9247C77.6316 55.4911 77.8666 56.1826 78.4615 56.473C79.3669 56.934 79.8785 57.9067 79.7383 58.8938L79.7321 58.9376C79.6579 59.2574 79.7162 59.5826 79.8903 59.8493C80.0645 60.1161 80.357 60.2959 80.6801 60.3674Z" fill="white"/>
</g>
<defs>
<filter id="filter0_d_805_8587" x="0.929688" y="0.928955" width="138.51" height="138.509" filterUnits="userSpaceOnUse" color-interpolation-filters="sRGB">
<feFlood flood-opacity="0" result="BackgroundImageFix"/>
<feColorMatrix in="SourceAlpha" type="matrix" values="0 0 0 0 0 0 0 0 0 0 0 0 0 0 0 0 0 0 127 0" result="hardAlpha"/>
<feOffset dy="9"/>
<feGaussianBlur stdDeviation="20.5"/>
<feComposite in2="hardAlpha" operator="out"/>
<feColorMatrix type="matrix" values="0 0 0 0 0.145098 0 0 0 0 0.141176 0 0 0 0 0.141176 0 0 0 0.05 0"/>
<feBlend mode="normal" in2="BackgroundImageFix" result="effect1_dropShadow_805_8587"/>
<feBlend mode="normal" in="SourceGraphic" in2="effect1_dropShadow_805_8587" result="shape"/>
</filter>
</defs>
</svg>
