<svg width="42" height="42" viewBox="0 0 42 42" fill="none" xmlns="http://www.w3.org/2000/svg">
<ellipse cx="16.5" cy="16.6813" rx="16.5" ry="16.6813" fill="#E899B0"/>
<path fill-rule="evenodd" clip-rule="evenodd" d="M24.6924 10.7537H24.3515C21.0622 10.7537 18.3947 13.4818 18.3947 16.8459V23.1321C18.3947 26.497 21.0618 29.2242 24.3515 29.2242H24.6924C27.983 29.2242 30.6493 26.4974 30.6493 23.1321V16.8459C30.6493 13.4814 27.9826 10.7537 24.6924 10.7537ZM24.3508 12.8258H24.6917C26.7504 12.8258 28.4391 14.4442 28.6084 16.5046H27.0657L26.9282 16.5141C26.4337 16.5827 26.0526 17.0162 26.0526 17.5407C26.0526 18.1129 26.5061 18.5768 27.0657 18.5768H28.6224V20.886H25.7787L25.6412 20.8954C25.1467 20.9641 24.7656 21.3975 24.7656 21.9221C24.7656 22.4943 25.2192 22.9582 25.7787 22.9582H28.6224V23.1321C28.6224 25.353 26.8633 27.1521 24.6917 27.1521H24.3508C22.18 27.1521 20.42 25.3525 20.42 23.1321V16.8458C20.42 14.6262 22.1804 12.8258 24.3508 12.8258ZM34.5237 22.1065C35.0833 22.1065 35.5368 22.5704 35.5368 23.1426C35.5368 29.0144 31.1441 33.836 25.5359 34.3595V37.2539C25.5359 37.8261 25.0823 38.2899 24.5228 38.2899C24.01 38.2899 23.5861 37.9002 23.519 37.3945L23.5098 37.2539V34.3597C17.9007 33.8374 13.5078 29.0153 13.5078 23.1426C13.5078 22.5704 13.9614 22.1065 14.5209 22.1065C15.0804 22.1065 15.534 22.5704 15.534 23.1426C15.534 28.2198 19.5572 32.3344 24.5217 32.3344C29.4864 32.3344 33.5107 28.2195 33.5107 23.1426C33.5107 22.5704 33.9642 22.1065 34.5237 22.1065Z" fill="#0E0F0F"/>
</svg>
