<svg width="42" height="42" viewBox="0 0 42 42" fill="none" xmlns="http://www.w3.org/2000/svg">
<ellipse cx="16.5" cy="16.6813" rx="16.5" ry="16.6813" fill="#19B6B1"/>
<path fill-rule="evenodd" clip-rule="evenodd" d="M31.1599 14.3077C31.1599 12.3449 32.7561 10.7537 34.725 10.7537C36.694 10.7537 38.2902 12.3449 38.2902 14.3077C38.2902 16.2706 36.694 17.8618 34.725 17.8618C32.7561 17.8618 31.1599 16.2706 31.1599 14.3077ZM36.2897 14.3077C36.2897 13.4467 35.5895 12.7487 34.7258 12.7487C33.8621 12.7487 33.1619 13.4467 33.1619 14.3077C33.1619 15.1687 33.8621 15.8667 34.7258 15.8667C35.5895 15.8667 36.2897 15.1687 36.2897 14.3077ZM29.3787 21.1351C29.7172 20.6996 30.3457 20.6201 30.7825 20.9575C31.1797 21.2643 31.2817 21.81 31.0426 22.2339L30.9606 22.357L27.0528 27.3849C26.7437 27.7827 26.193 27.8832 25.7673 27.6413L25.6438 27.5584L21.883 24.6137L18.5066 28.9892C18.2003 29.3861 17.6532 29.4897 17.2272 29.2528L17.1034 29.1715C16.7052 28.8661 16.6014 28.3207 16.839 27.8961L16.9205 27.7726L20.9138 22.5987C21.2223 22.1989 21.7744 22.0972 22.2011 22.3395L22.325 22.4225L26.0869 25.3692L29.3787 21.1351ZM28.9603 12.8712C28.9603 12.3203 28.5123 11.8737 27.9597 11.8737H18.2634L17.9509 11.8789C13.6111 12.0242 10.7539 15.2016 10.7539 19.713V30.4627L10.7587 30.7837C10.8925 35.244 13.8199 38.2899 18.2634 38.2899H29.7426L30.0552 38.2847C34.3966 38.1398 37.2521 34.972 37.2521 30.4627V21.1009L37.243 20.9655C37.1767 20.4786 36.7581 20.1033 36.2515 20.1033C35.6989 20.1033 35.2509 20.5499 35.2509 21.1009V30.4627L35.2454 30.7723C35.1245 34.1413 33.0204 36.2949 29.7426 36.2949H18.2634L17.9662 36.289C14.7343 36.1604 12.7551 33.9241 12.7551 30.4627V19.713L12.7606 19.4031C12.8817 16.0307 14.9885 13.8687 18.2634 13.8687H27.9597L28.0954 13.8596C28.5838 13.7935 28.9603 13.3762 28.9603 12.8712Z" fill="#0E0F0F"/>
</svg>
