<svg width="20" height="21" viewBox="0 0 20 21" fill="none" xmlns="http://www.w3.org/2000/svg">
<path id="Vector" d="M8.6 12.3046L6.45 10.1546C6.26667 9.9713 6.03333 9.87964 5.75 9.87964C5.46667 9.87964 5.23333 9.9713 5.05 10.1546C4.86667 10.338 4.775 10.5713 4.775 10.8546C4.775 11.138 4.86667 11.3713 5.05 11.5546L7.9 14.4046C8.1 14.6046 8.33333 14.7046 8.6 14.7046C8.86667 14.7046 9.1 14.6046 9.3 14.4046L14.95 8.75464C15.1333 8.57131 15.225 8.33797 15.225 8.05464C15.225 7.77131 15.1333 7.53797 14.95 7.35464C14.7667 7.17131 14.5333 7.07964 14.25 7.07964C13.9667 7.07964 13.7333 7.17131 13.55 7.35464L8.6 12.3046ZM10 20.5046C8.61667 20.5046 7.31667 20.242 6.1 19.7166C4.88333 19.1913 3.825 18.479 2.925 17.5796C2.025 16.6796 1.31267 15.6213 0.788 14.4046C0.263333 13.188 0.000666667 11.888 0 10.5046C0 9.12131 0.262667 7.82131 0.788 6.60464C1.31333 5.38797 2.02567 4.32964 2.925 3.42964C3.825 2.52964 4.88333 1.81731 6.1 1.29264C7.31667 0.767972 8.61667 0.505305 10 0.504639C11.3833 0.504639 12.6833 0.767305 13.9 1.29264C15.1167 1.81797 16.175 2.53031 17.075 3.42964C17.975 4.32964 18.6877 5.38797 19.213 6.60464C19.7383 7.82131 20.0007 9.12131 20 10.5046C20 11.888 19.7373 13.188 19.212 14.4046C18.6867 15.6213 17.9743 16.6796 17.075 17.5796C16.175 18.4796 15.1167 19.1923 13.9 19.7176C12.6833 20.243 11.3833 20.5053 10 20.5046Z" fill="#E2C89F"/>
</svg>
