<svg width="20" height="21" viewBox="0 0 20 21" fill="none" xmlns="http://www.w3.org/2000/svg">
<path id="Vector" d="M8.6 12.0754L6.45 9.92539C6.26667 9.74206 6.03333 9.65039 5.75 9.65039C5.46667 9.65039 5.23333 9.74206 5.05 9.92539C4.86667 10.1087 4.775 10.3421 4.775 10.6254C4.775 10.9087 4.86667 11.1421 5.05 11.3254L7.9 14.1754C8.1 14.3754 8.33333 14.4754 8.6 14.4754C8.86667 14.4754 9.1 14.3754 9.3 14.1754L14.95 8.52539C15.1333 8.34206 15.225 8.10872 15.225 7.82539C15.225 7.54206 15.1333 7.30872 14.95 7.12539C14.7667 6.94206 14.5333 6.85039 14.25 6.85039C13.9667 6.85039 13.7333 6.94206 13.55 7.12539L8.6 12.0754ZM10 20.2754C8.61667 20.2754 7.31667 20.0127 6.1 19.4874C4.88333 18.9621 3.825 18.2497 2.925 17.3504C2.025 16.4504 1.31267 15.3921 0.788 14.1754C0.263333 12.9587 0.000666667 11.6587 0 10.2754C0 8.89206 0.262667 7.59206 0.788 6.37539C1.31333 5.15872 2.02567 4.10039 2.925 3.20039C3.825 2.30039 4.88333 1.58806 6.1 1.06339C7.31667 0.538724 8.61667 0.276057 10 0.275391C11.3833 0.275391 12.6833 0.538057 13.9 1.06339C15.1167 1.58872 16.175 2.30106 17.075 3.20039C17.975 4.10039 18.6877 5.15872 19.213 6.37539C19.7383 7.59206 20.0007 8.89206 20 10.2754C20 11.6587 19.7373 12.9587 19.212 14.1754C18.6867 15.3921 17.9743 16.4504 17.075 17.3504C16.175 18.2504 15.1167 18.9631 13.9 19.4884C12.6833 20.0137 11.3833 20.2761 10 20.2754Z" fill="#0E0F0F"/>
</svg>
